<?xml version="1.0" encoding="utf-8"?>
<!-- Generator: Adobe Illustrator 18.0.0, SVG Export Plug-In . SVG Version: 6.00 Build 0)  -->
<!DOCTYPE svg PUBLIC "-//W3C//DTD SVG 1.1//EN" "http://www.w3.org/Graphics/SVG/1.1/DTD/svg11.dtd">
<svg version="1.1" id="Layer_1" xmlns="http://www.w3.org/2000/svg" xmlns:xlink="http://www.w3.org/1999/xlink" x="0px" y="0px"
	 viewBox="0 0 1000 1000" enable-background="new 0 0 1000 1000" xml:space="preserve">
<g>
	<rect x="126.8" y="694.9" transform="matrix(-0.707 -0.7072 0.7072 -0.707 -393.9388 1577.241)" width="5.8" height="350.6"/>
	<path d="M989.2,503.3l4.8-4.8L749.8,254.3L996.3,7.9l-4.1-4.1L745.7,250.2l0.9,0.9L499.9,4.4L254.3,250.1L7.9,3.7L3.8,7.8
		l246.4,246.4L5.9,498.5l489.3,489.3l4.8,4.8l247.2-247.2l-2.9,2.9l247.9,248l4.1-4.1l-247.9-248L989.2,503.3z M25,498.5l475-475
		l475,475l-475,475L25,498.5z"/>
	<path d="M499.9,42.1L43.4,498.6l456.7,456.7l456.5-456.5L499.9,42.1z M499.9,85.7l413,413L795.5,616.3
		c13.8-28.1,10.4-52.6-10.4-73.4c-31.7-31.7-71.9-23.1-120.8,25.7l-21.2,21.2c-25.3,25.3-40.8,61.3-46.6,108.2
		c-5.8,46.9-19,80.6-39.5,101.2l-38.3,38.3c-12.8,12.8-23.9,14.4-33.3,5c-9.4-9.4-7.7-20.5,5-33.3l62-62L519,713.9l-41.2,41.2
		c-34.7,34.7-49.1,65.1-43.1,91.1l-38-38l283.5-370.1l-33.7-33.7L276.4,688L87.1,498.6L499.9,85.7z M723.3,688.4l-99.6,99.6
		c8.1-18.1,14-40.9,17.8-68.2c6.6-47.7,17.2-78.8,31.6-93.3l45.4-45.4c12.8-12.8,23.9-14.4,33.3-5c9.4,9.4,7.7,20.5-5,33.3
		l-51.2,51.2L723.3,688.4z M401.5,725.2l-38.5,49.4l-53-53l49.1-38.8L401.5,725.2z M399.3,651.6L505,569.2l63.7-53.7L515,580
		l-82.4,104.9L399.3,651.6z M481.7,893.3c13.4,3.1,28,0.8,43.7-7l-25.4,25.4L481.7,893.3z"/>
	<polygon points="829.1,523.6 846.4,514.5 863.7,523.6 860.4,504.3 874.4,490.7 855,487.9 846.4,470.4 837.7,487.9 818.4,490.7 
		832.4,504.3 	"/>
	<polygon points="481.7,175.5 499,166.4 516.3,175.5 513,156.2 526.9,142.6 507.6,139.8 499,122.3 490.3,139.8 471,142.6 485,156.2 
			"/>
	<polygon points="182.8,490.7 163.5,487.9 154.8,470.4 146.2,487.9 126.9,490.7 140.8,504.3 137.5,523.6 154.8,514.5 172.1,523.6 
		168.8,504.3 	"/>
</g>
</svg>
