<?xml version="1.0" encoding="utf-8"?>
<!-- Generator: Adobe Illustrator 21.0.2, SVG Export Plug-In . SVG Version: 6.00 Build 0)  -->
<svg version="1.1" id="Layer_1" xmlns="http://www.w3.org/2000/svg" xmlns:xlink="http://www.w3.org/1999/xlink" x="0px" y="0px"
	 viewBox="0 0 1000 1000" style="enable-background:new 0 0 1000 1000;" xml:space="preserve">
<path d="M922.9,1000H77c-42.6,0-77-31.3-77-73.8V77.1C0,34.5,34.5,0,77,0H923c42.6,0,77,34.5,77,77.1v849.2
	C999.9,968.7,965.4,1000,922.9,1000z M426.1,193c-45.6,0-89.9,7.3-119.7,21.8c-29.8,14.5-51.4,40.4-62.5,63.5
	c-11.1,23.1-16.7,51.4-16.7,98.4v44.7h-74.8v117h74.8v388.9h160V538.5h99.7l27.6-117H387.1v-42c0-28.5,5.1-47.7,15.4-57.7
	c10.3-10,30.9-16,54.7-16c24.2,0,43.6,11.3,68,25.6l29.1-110.1C509.5,208.5,472.8,193,426.1,193z"/>
</svg>
