<?xml version="1.0" encoding="utf-8"?>
<!-- Generator: Adobe Illustrator 18.0.0, SVG Export Plug-In . SVG Version: 6.00 Build 0)  -->
<!DOCTYPE svg PUBLIC "-//W3C//DTD SVG 1.1//EN" "http://www.w3.org/Graphics/SVG/1.1/DTD/svg11.dtd">
<svg version="1.1" id="Layer_1" xmlns="http://www.w3.org/2000/svg" xmlns:xlink="http://www.w3.org/1999/xlink" x="0px" y="0px"
	 viewBox="0 0 1000 1000" enable-background="new 0 0 1000 1000" xml:space="preserve">
<path fill-rule="evenodd" clip-rule="evenodd" d="M843.8,278.5v157.8h-62.5V278.5H625V214h156.3V56.2h62.5V214h156.3v64.5H843.8z
	 M411.6,118.7c55.5,31.8,88,83.4,88,150.8c0,56.7-33.8,101.3-77.4,136c-42.5,33.8-50.6,48-50.6,76.7c0,24.5,45.6,66.3,69.4,83.4
	c69.7,50.1,90.3,96.6,90.3,174.2c0,96.9-90.3,205-257.3,205c-146.5,0-274-72.5-274-169.4c0-98.3,116.7-193.2,263.1-193.2
	c16,0,30.6-0.7,45.7-0.7c-20.1-19.8-35.9-44.5-35.9-74.5c0-17.7,5.6-35.6,13.4-50.8c-8,0.6-16.1-0.7-24.5-0.7
	c-120.3,0-200.9-90-200.9-197.8c0-105.5,111.3-202.6,229.6-202.6c65.9,0,263.8,0,263.8,0l-59,63.5H411.6z M290.9,607.3
	c-101.2-1.1-192,62.8-192,139.4c0,78.2,73.1,135.5,174.4,135.5c142.3,0,192-53.2,192-131.4c0-9.4-1.2-18.7-3.2-27.7
	c-11.1-44.3-50.5-66.2-105.5-105C336.6,611.4,314.6,607.6,290.9,607.3z M404.7,270.7C393,180,325.4,107.2,257.5,105.2
	c-67.9-2.1-113.5,67.3-101.8,158.1C167.4,354,232,429.2,300,431.2C367.9,433.3,416.4,361.5,404.7,270.7z"/>
</svg>
