<?xml version="1.0" encoding="utf-8"?>
<!-- Generator: Adobe Illustrator 21.0.2, SVG Export Plug-In . SVG Version: 6.00 Build 0)  -->
<svg version="1.1" id="Layer_1" xmlns="http://www.w3.org/2000/svg" xmlns:xlink="http://www.w3.org/1999/xlink" x="0px" y="0px"
	 viewBox="0 0 1000 1000" style="enable-background:new 0 0 1000 1000;" xml:space="preserve">
<g>
	<path d="M702.1,0H297.9C133.6,0,0,133.6,0,297.9v404.2C0,866.4,133.6,1000,297.9,1000h404.2c164.3,0,297.9-133.6,297.9-297.9V297.9
		C1000,133.6,866.4,0,702.1,0z M899.4,702.1c0,109-88.3,197.3-197.3,197.3H297.9c-109,0-197.3-88.3-197.3-197.3V297.9
		c0-109,88.3-197.3,197.3-197.3h404.2c109,0,197.3,88.3,197.3,197.3V702.1L899.4,702.1z"/>
	<path d="M500,241.4c-142.6,0-258.6,116-258.6,258.6s116,258.6,258.6,258.6s258.6-116,258.6-258.6S642.6,241.4,500,241.4z M500,658
		c-87.3,0-158-70.8-158-158s70.8-158,158-158c87.3,0,158,70.8,158,158C658,587.3,587.3,658,500,658z"/>
	<circle cx="759.1" cy="243.3" r="62"/>
</g>
</svg>
