<?xml version="1.0" encoding="utf-8"?>
<!-- Generator: Adobe Illustrator 18.0.0, SVG Export Plug-In . SVG Version: 6.00 Build 0)  -->
<!DOCTYPE svg PUBLIC "-//W3C//DTD SVG 1.1//EN" "http://www.w3.org/Graphics/SVG/1.1/DTD/svg11.dtd">
<svg version="1.1" id="Layer_1" xmlns="http://www.w3.org/2000/svg" xmlns:xlink="http://www.w3.org/1999/xlink" x="0px" y="0px"
	 viewBox="0 0 1000 1000" enable-background="new 0 0 1000 1000" xml:space="preserve">
<path fill-rule="evenodd" clip-rule="evenodd" d="M683.5,675c-16.5,23.5-40.8,42.2-72.3,55.4c-31.2,13.1-68.6,19.7-111.2,19.7
	c-51.1,0-93.9-9.1-127.4-27c-23.9-13-43.6-30.6-58.6-52.5c-15.1-22-22.8-43.8-22.8-64.9c0-13.1,5-24.5,14.8-33.9
	c9.7-9.3,22.2-14,37.1-14c12.2,0,22.8,3.7,31.3,11c8.2,7,15.2,17.4,20.9,30.8c6.3,14.6,13.2,26.9,20.4,36.6c7,9.4,17,17.2,29.8,23.3
	c12.9,6.2,30.3,9.3,51.7,9.3c29.4,0,53.5-6.3,71.7-18.9c17.7-12.2,26.3-26.9,26.3-44.8c0-14.2-4.5-25.3-13.7-34.1
	c-9.7-9.1-22.5-16.2-38-21.2c-16.2-5.1-38.1-10.6-65.3-16.3c-36.9-8-68.3-17.5-93.2-28.1c-25.5-11-46.1-26.2-61.1-45.2
	c-15.3-19.3-23-43.5-23-72c0-27.1,8.1-51.6,24.2-72.7c15.9-21,39.1-37.3,69.1-48.4c29.5-11,64.6-16.6,104.4-16.6
	c31.8,0,59.7,3.7,83,11c23.5,7.4,43.2,17.3,58.8,29.6c15.6,12.4,27.3,25.5,34.6,39.3c7.3,13.8,11.1,27.6,11.1,41
	c0,12.9-4.9,24.5-14.6,34.7c-9.7,10.2-22,15.4-36.5,15.4c-13.2,0-23.5-3.3-30.6-9.6c-6.7-6-13.6-15.2-21.2-28.6
	c-8.9-17-19.6-30.4-31.9-39.9c-12-9.2-31.9-13.8-59.4-13.8c-25.5,0-46.2,5.2-61.6,15.4c-14.9,9.8-22.1,21.1-22.1,34.4
	c0,8.2,2.3,15,7.1,20.9c5,6.3,12.2,11.7,21.2,16.3c9.3,4.8,19,8.5,28.6,11.2c9.9,2.8,26.5,6.9,49.2,12.2
	c28.8,6.3,55.3,13.2,78.6,20.8c23.7,7.7,44.2,17.1,60.9,28.1c17,11.2,30.5,25.6,40.1,42.7c9.6,17.3,14.5,38.5,14.5,63.3
	C708.4,624.4,700,651.4,683.5,675z M976.3,749.8c0,137.9-106.6,249.8-238.1,249.8c-64,0-121.9-26.6-164.7-69.6
	c-23.9,4.5-48.3,7.2-73.4,7.2C269.8,937.1,83.3,741.4,83.3,500c0-26.3,2.6-52,6.9-77c-41-44.9-66.4-105.7-66.4-172.7
	C23.7,112.3,130.3,0.4,261.9,0.4c64,0,121.9,26.6,164.7,69.6c23.9-4.5,48.3-7.2,73.4-7.2c230.2,0,416.7,195.7,416.7,437.1
	c0,26.3-2.6,52-6.9,77C950.9,621.9,976.3,682.7,976.3,749.8z"/>
</svg>
