<?xml version="1.0" encoding="utf-8"?>
<!-- Generator: Adobe Illustrator 21.0.2, SVG Export Plug-In . SVG Version: 6.00 Build 0)  -->
<svg version="1.1" id="Layer_1" xmlns="http://www.w3.org/2000/svg" xmlns:xlink="http://www.w3.org/1999/xlink" x="0px" y="0px"
	 viewBox="0 0 551 551" style="enable-background:new 0 0 551 551;" xml:space="preserve">
<g id="XMLID_496_">
	<path id="XMLID_497_" d="M9.7,265.7l127,47.4l49.1,158c3.1,10.1,15.5,13.9,23.7,7.1l70.8-57.7c7.4-6,18-6.3,25.7-0.7l127.7,92.7
		c8.8,6.4,21.2,1.6,23.4-9l93.5-449.8c2.4-11.6-9-21.3-20-17L9.6,237.7C-3.3,242.6-3.2,260.8,9.7,265.7z M177.9,287.8L426.1,135
		c4.5-2.7,9,3.3,5.2,6.8L226.5,332.2c-7.2,6.7-11.8,15.7-13.2,25.4l-7,51.7c-0.9,6.9-10.6,7.6-12.5,0.9L167,316
		C163.9,305.2,168.4,293.7,177.9,287.8z"/>
</g>
</svg>
