<?xml version="1.0" encoding="utf-8"?>
<!-- Generator: Adobe Illustrator 18.0.0, SVG Export Plug-In . SVG Version: 6.00 Build 0)  -->
<!DOCTYPE svg PUBLIC "-//W3C//DTD SVG 1.1//EN" "http://www.w3.org/Graphics/SVG/1.1/DTD/svg11.dtd">
<svg version="1.1" id="Layer_1" xmlns="http://www.w3.org/2000/svg" xmlns:xlink="http://www.w3.org/1999/xlink" x="0px" y="0px"
	 viewBox="0 0 1000 1000" enable-background="new 0 0 1000 1000" xml:space="preserve">
<path fill-rule="evenodd" clip-rule="evenodd" d="M803.5,945.7c-41.3,20-78.7,34.2-112.2,42.3c-33.5,8.1-69.7,12.2-108.6,12.2
	c-44.2,0-70.3-5.7-104.2-17.2c-33.9-11.6-62.9-28.2-86.8-49.4c-24-21.4-40.6-44.2-49.9-68.2c-9.2-24.1-13.9-59-13.9-104.8V409.8
	H196.5V268.1c38-12.7,82-31.1,109-54.9c27.2-23.9,48.9-52.5,65.2-85.9c16.4-33.3,27.7-75.8,33.9-127.5h137.5v231.5h223.4v178.5
	H542.1v256.5c0,58-0.7,91.5,5.2,107.9c5.9,16.4,20.7,33.4,36.8,43.2c21.4,13.2,45.8,19.9,73.3,19.9c49,0,97.6-16.5,146-49.4V945.7z"
	/>
</svg>
