<?xml version="1.0" encoding="utf-8"?>
<!-- Generator: Adobe Illustrator 18.0.0, SVG Export Plug-In . SVG Version: 6.00 Build 0)  -->
<!DOCTYPE svg PUBLIC "-//W3C//DTD SVG 1.1//EN" "http://www.w3.org/Graphics/SVG/1.1/DTD/svg11.dtd">
<svg version="1.1" id="Layer_1" xmlns="http://www.w3.org/2000/svg" xmlns:xlink="http://www.w3.org/1999/xlink" x="0px" y="0px"
	 viewBox="0 0 1000 1000" enable-background="new 0 0 1000 1000" xml:space="preserve">
<path fill-rule="evenodd" clip-rule="evenodd" d="M680.1,71.8c79.4-1.5,121.7,29.1,162.1,67.9c34.3-3.1,78.8-23.3,105.1-37.4
	c8.5-4.9,17-9.8,25.5-14.7c-15,42.8-35.3,76.2-66.5,101.6c-6.9,5.6-13.8,13.3-22.5,16.9c0,0.2,0,0.4,0,0.5
	c44.5-0.5,81.2-21.7,116.1-33.2c0,0.2,0,0.4,0,0.5c-18.3,30.7-43.1,61.9-69.5,84.2c-10.7,8.9-21.4,17.9-32,26.8
	c0.6,49.7-0.7,97.2-9.5,139C837.5,667.1,701.8,832,487,902.7c-77.1,25.4-201.8,35.8-290.2,12.6c-43.8-11.5-83.4-24.4-120.6-41.6
	c-20.6-9.5-39.8-19.8-58-31.6c-6-3.9-12-7.7-18-11.6c19.9,0.6,43.3,6.4,65.5,2.6c20.2-3.4,39.9-2.5,58.5-6.8
	c46.4-10.7,87.6-25,123.1-46.9c17.2-10.6,43.3-23.1,55.5-38.4c-23,0.4-43.9-5.2-61-11.6c-66.3-24.7-105-70.2-130.1-138.5
	c20.1,2.3,78,7.9,91.6-4.2c-25.3-1.5-49.6-16.9-67-28.4C82.9,523.1,39.4,464,39.7,373c7,3.5,14,7,21,10.5c13.4,6,27,9.2,43,12.6
	c6.8,1.5,20.3,5.7,28,2.6c-0.3,0-0.7,0-1,0c-10.3-12.7-27.1-21.1-37.5-34.7C59,319.1,26.9,250,47.2,167.7
	c5.1-20.9,13.3-39.3,22-56.3c0.3,0.2,0.7,0.4,1,0.5c4,8.8,12.9,15.3,18.5,22.6c17.5,22.9,39.1,43.5,61,61.6
	c74.9,61.8,142.3,99.8,250.7,127.9c27.5,7.1,59.2,12.6,92.1,12.6c-9.2-28.3-6.3-74.2,1-101.6c18.3-69,57.9-118.7,116.1-145.3
	c13.9-6.4,29.3-11,45.5-14.7C663.4,73.9,671.8,72.9,680.1,71.8z"/>
</svg>
