<?xml version="1.0" encoding="utf-8"?>
<!-- Generator: Adobe Illustrator 18.0.0, SVG Export Plug-In . SVG Version: 6.00 Build 0)  -->
<!DOCTYPE svg PUBLIC "-//W3C//DTD SVG 1.1//EN" "http://www.w3.org/Graphics/SVG/1.1/DTD/svg11.dtd">
<svg version="1.1" id="Layer_1" xmlns="http://www.w3.org/2000/svg" xmlns:xlink="http://www.w3.org/1999/xlink" x="0px" y="0px"
	 viewBox="0 0 639.8 379" enable-background="new 0 0 639.8 379" xml:space="preserve">
<path d="M312.6,377.4h38.2c0,0,11.1-1.6,17.5-8c4.8-6.4,4.8-17.5,4.8-17.5s0-52.5,22.3-60.5c23.9-8,54.1,51,86,74.8
	c23.9,17.5,43,12.7,43,12.7l86-1.6c0,0,44.6-3.2,23.9-39.8c-1.6-3.2-12.7-27.1-63.7-76.4c-54.1-51-46.2-43,17.5-132.2
	c39.8-54.1,55.7-87.6,49.4-101.9c-4.8-12.7-33.4-9.6-33.4-9.6h-95.5c0,0-6.4-1.6-12.7,1.6c-4.8,3.2-8,11.1-8,11.1s-15.9,41.4-35,78
	c-43,74.8-60.5,79.6-66.9,74.8c-15.9-11.1-12.7-43-12.7-66.9c0-73.2,11.1-103.5-20.7-111.5C341.3,1.6,334.9,0,307.9,0
	c-35,0-63.7,0-79.6,8c-11.1,4.8-19.1,17.5-14.3,19.1c6.4,1.6,20.7,4.8,28.7,14.3c9.6,14.3,9.6,44.6,9.6,44.6s6.4,86-12.7,97.1
	c-12.7,8-30.3-8-68.5-76.4c-19.1-35-35-73.2-35-73.2s-3.2-6.4-9.6-9.6c-6.4-4.8-14.3-6.4-14.3-6.4H21.2c0,0-14.3,0-19.1,6.4
	c-4.8,4.8,0,17.5,0,17.5S73.8,215,155,302.5C228.2,382.2,312.6,377.4,312.6,377.4L312.6,377.4z"/>
</svg>
