<?xml version="1.0" standalone="no"?>
<!DOCTYPE svg PUBLIC "-//W3C//DTD SVG 1.1//EN" "http://www.w3.org/Graphics/SVG/1.1/DTD/svg11.dtd" >
<svg xmlns="http://www.w3.org/2000/svg" xmlns:xlink="http://www.w3.org/1999/xlink" version="1.1">
<metadata>
Created by FontForge 20161116 at Fri Jan 11 12:35:56 2013
 By Jimmy Wärting
Copyright (c) 2012 by Mariya Pigoulevskaya. All rights reserved.
</metadata>
<defs>
<font id="Neusa-SemiBold" horiz-adv-x="492" >
  <font-face 
    font-family="Neusa SemiBold"
    font-weight="600"
    font-stretch="normal"
    units-per-em="1000"
    panose-1="0 0 7 0 0 0 0 0 0 0"
    ascent="750"
    descent="-250"
    x-height="500"
    cap-height="700"
    bbox="-36 -262 921 1019"
    underline-thickness="50"
    underline-position="-100"
    unicode-range="U+0020-FB02"
  />
<missing-glyph horiz-adv-x="250" 
 />
    <glyph glyph-name=".notdef" horiz-adv-x="250" 
 />
    <glyph glyph-name=".null" horiz-adv-x="0" 
 />
    <glyph glyph-name="nonmarkingreturn" horiz-adv-x="333" 
 />
    <glyph glyph-name="space" unicode=" " horiz-adv-x="300" 
 />
    <glyph glyph-name="exclam" unicode="!" horiz-adv-x="203" 
d="M52 700h98v-240l-13 -273h-72l-13 272v241zM50 0v102h103v-102h-103z" />
    <glyph glyph-name="quotedbl" unicode="&#x22;" horiz-adv-x="311" 
d="M33 700h100l-15 -242h-70zM178 700h100l-15 -242h-69z" />
    <glyph glyph-name="numbersign" unicode="#" horiz-adv-x="672" 
d="M613 386h-104l-20 -92h103l-30 -108h-106l-47 -186h-116l47 186h-96l-47 -186h-116l47 186h-101l32 108h101l21 92h-101l32 108h101l53 206h116l-52 -206h95l53 206h116l-53 -206h104zM372 294l21 92h-96l-21 -92h96z" />
    <glyph glyph-name="dollar" unicode="$" horiz-adv-x="475" 
d="M435 483h-107q0 58 -24.5 88t-62 30t-60.5 -25t-23 -69q0 -21 8 -37t17 -25t28 -16.5t27 -9.5t29 -6q93 -20 135 -73t42 -128q0 -92 -39.5 -143.5t-106.5 -66.5v-52h-115v51q-64 14 -107.5 67t-43.5 149h107q0 -59 28 -88t69 -29q47 0 72 26.5t25 74.5t-28 70.5t-91 37.5
q-24 5 -43 12t-43.5 21.5t-41 34t-28 51.5t-11.5 72q0 85 38 133.5t98 63.5v53h115v-52q59 -15 98 -68t39 -147z" />
    <glyph glyph-name="percent" unicode="%" horiz-adv-x="703" 
d="M50 451v143q0 31 12.5 55t31.5 35.5t37 17t35 5.5q18 0 37 -5.5t37.5 -18t30 -36t11.5 -53.5v-143q0 -30 -11.5 -53.5t-30 -35.5t-37 -18t-37.5 -7q-17 0 -35 5.5t-37 17.5t-31.5 35.5t-12.5 55.5zM482 700h78l-339 -700h-78zM212 449v147q0 23 -14.5 34t-31.5 11
q-16 0 -31 -11t-15 -34v-147q0 -24 15 -34.5t31 -10.5q18 0 32 11t14 34zM420 107v142q0 32 12.5 55.5t31.5 35.5t37.5 17.5t35.5 5.5q18 0 37 -6t37 -18.5t30 -35.5t12 -54v-142q0 -31 -11.5 -54t-30 -35.5t-37.5 -18.5t-37 -6q-17 0 -35.5 5.5t-37.5 17.5t-31.5 35.5
t-12.5 55.5zM583 104v148q0 22 -14.5 33.5t-31.5 11.5t-32 -11t-15 -34v-148q0 -23 15 -34t32 -11t31.5 11.5t14.5 33.5z" />
    <glyph glyph-name="ampersand" unicode="&#x26;" horiz-adv-x="546" 
d="M515 408v-105h-36v-94q0 -63 -17 -107t-48 -67t-67 -33t-83 -10h-13q-46 0 -84.5 11.5t-69.5 35t-49 64.5t-18 97v10q0 54 23.5 93t60.5 53q-34 13 -57 50.5t-23 90.5v10q0 56 17.5 97t48.5 63t66.5 32t78.5 10h63v-108h-63q-45 0 -71 -23t-26 -71v-6q0 -44 28 -68.5
t73 -24.5h119v135h111v-135h36zM368 213v90h-119q-50 0 -77.5 -25t-28.5 -72v-7q0 -44 30.5 -71.5t80.5 -27.5h8q53 0 79.5 25.5t26.5 87.5z" />
    <glyph glyph-name="quotesingle" unicode="'" horiz-adv-x="200" 
d="M50 700h100l-15 -242h-69z" />
    <glyph glyph-name="parenleft" unicode="(" horiz-adv-x="299" 
d="M194 750h55v-108h-34q-21 0 -36 -16t-15 -40v-562q0 -24 15 -40t36 -16h34v-107h-55q-64 0 -104 39t-40 107v597q0 68 40 107t104 39z" />
    <glyph glyph-name="parenright" unicode=")" horiz-adv-x="299" 
d="M50 750h54q65 0 105 -39t40 -107v-597q0 -68 -40 -107t-105 -39h-54v107h34q21 0 36 16t15 40v562q0 24 -15 40t-36 16h-34v108z" />
    <glyph glyph-name="asterisk" unicode="*" horiz-adv-x="469" 
d="M186 716h100l-5 -126l119 44l31 -95l-123 -34l79 -100l-81 -59l-70 106l-70 -106l-81 59l79 100l-123 34l31 95l119 -44z" />
    <glyph glyph-name="plus" unicode="+" horiz-adv-x="555" 
d="M221 505h114v-171h171v-108h-171v-171h-114v171h-171v108h171v171z" />
    <glyph glyph-name="comma" unicode="," horiz-adv-x="203" 
d="M50 102h103v-102l-38 -103h-39l18 103h-44v102z" />
    <glyph glyph-name="hyphen" unicode="-" horiz-adv-x="348" 
d="M50 322h248v-108h-248v108z" />
    <glyph glyph-name="period" unicode="." horiz-adv-x="203" 
d="M50 0v102h103v-102h-103z" />
    <glyph glyph-name="slash" unicode="/" horiz-adv-x="428" 
d="M27 0l257 700h116l-256 -700h-117z" />
    <glyph glyph-name="zero" unicode="0" horiz-adv-x="483" 
d="M36 234v193q0 66 17.5 115t48 75.5t65 39t74.5 12.5q39 0 73.5 -12t65.5 -38.5t49 -75.5t18 -116v-193q0 -67 -18 -116t-49 -75.5t-65.5 -38.5t-73.5 -12q-40 0 -74.5 12.5t-65 39t-48 75.5t-17.5 115zM333 242v178q0 73 -25 107t-67 34q-91 0 -91 -141v-178
q0 -142 91 -142q42 0 67 34t25 108z" />
    <glyph glyph-name="one" unicode="1" horiz-adv-x="235" 
d="M25 660h173v-660h-114v552h-59v108z" />
    <glyph glyph-name="two" unicode="2" horiz-adv-x="458" 
d="M227 668h11q36 0 69 -11.5t62 -35t46.5 -65t17.5 -96.5v-3q0 -44 -18 -81.5t-45.5 -62t-61 -50t-63.5 -45.5t-54 -49t-33 -61h270v-108h-402v57q0 43 12.5 81t33 64t47 50t54 41.5t54 37t47 37t33 40.5t12.5 49q0 49 -24.5 76.5t-58.5 27.5h-6q-34 -1 -58.5 -28.5
t-31.5 -79.5h-114v7q4 55 23.5 97t48.5 65t61.5 34.5t67.5 11.5z" />
    <glyph glyph-name="three" unicode="3" horiz-adv-x="461" 
d="M226 669h11q34 0 66 -10t62 -30.5t48 -58.5t19 -88v-10q0 -49 -23 -86t-58 -50q38 -13 61.5 -52t23.5 -90v-9q0 -50 -17 -88t-46 -60t-63 -33.5t-72 -11.5h-12q-35 0 -68 11.5t-62 34.5t-48 64t-22 95l-1 4h111q6 -53 32.5 -77t61.5 -24h7q36 0 60.5 23t24.5 61v5
q0 44 -27 69t-76 25h-56v105h56q44 0 71.5 23.5t27.5 66.5v5q0 35 -26 56.5t-56 21.5h-7q-33 0 -59 -24t-33 -72h-111v5q4 52 23.5 92t48.5 62t61 33t67 12z" />
    <glyph glyph-name="four" unicode="4" horiz-adv-x="487" 
d="M462 231v-107h-49v-124h-113v124h-269v129l150 413h113l-149 -435h155v269h113v-269h49z" />
    <glyph glyph-name="five" unicode="5" horiz-adv-x="463" 
d="M52 666h344v-108h-230v-153l59 2q56 1 81 -5q67 -13 99.5 -65.5t32.5 -122.5v-32q-1 -48 -18 -85.5t-45.5 -59.5t-62 -33.5t-71.5 -11.5h-12q-36 0 -68.5 11t-62 34t-48.5 64t-22 95l-1 5h111q6 -53 32.5 -77.5t61.5 -24.5h8q36 1 60 25.5t24 71.5v27q0 48 -28 68t-85 20
h-159v355z" />
    <glyph glyph-name="six" unicode="6" horiz-adv-x="468" 
d="M27 212v216q0 66 18 115t49 75.5t66 39t76 12.5q36 0 69 -10.5t63 -33t48 -64t20 -97.5h-114q0 49 -25 73t-61 24q-45 0 -72 -33t-27 -106v-75q35 52 105 53h24q40 1 71.5 -11.5t50.5 -32.5t31.5 -48t17 -55.5t4.5 -57.5q0 -39 -9 -73t-30 -64.5t-60 -48.5t-93 -18h-29
q-90 1 -141 55.5t-52 164.5zM222 100h24q41 0 61 26.5t20 69.5t-20 70t-61 27h-24q-41 0 -61 -27t-20 -70t20 -69.5t61 -26.5z" />
    <glyph glyph-name="seven" unicode="7" horiz-adv-x="450" 
d="M28 666h393v-88l-238 -578h-116l231 557h-270v109z" />
    <glyph glyph-name="eight" unicode="8" horiz-adv-x="470" 
d="M223 669h23q83 0 138 -53.5t56 -132.5v-9q0 -93 -80 -139q41 -19 63 -55t22 -84v-10q0 -84 -53.5 -138.5t-144.5 -54.5h-23q-91 0 -144.5 54.5t-53.5 138.5v10q1 99 84 138q-81 46 -81 140v9q1 79 56 132.5t138 53.5zM326 476v5q0 23 -8.5 40t-22 25t-26.5 11.5t-26 3.5
h-17q-13 0 -26 -3.5t-26.5 -11.5t-22 -25t-8.5 -40v-5q0 -44 25.5 -62t61.5 -18h9q36 0 61.5 18t25.5 62zM331 190v6q0 92 -92 92h-8q-92 0 -92 -92v-6q1 -47 26 -68t61 -21h17q37 0 62.5 21t25.5 68z" />
    <glyph glyph-name="nine" unicode="9" horiz-adv-x="464" 
d="M439 449v-215q0 -66 -18 -115t-49 -75.5t-66 -39t-75 -12.5q-37 0 -70 10.5t-62.5 33t-48 64t-19.5 97.5h113q1 -49 26 -73t61 -24q45 0 71.5 33t26.5 106v75q-34 -52 -104 -53h-25q-40 -1 -71 11.5t-50.5 32.5t-31.5 48t-17 55.5t-5 57.5q0 39 9.5 73t30 64.5t59.5 48.5
t93 18h29q91 -1 141.5 -55.5t51.5 -165.5zM244 562h-24q-41 0 -61 -26.5t-20 -69.5t20 -70t61 -27h24q41 0 61 27t20 70t-20 69.5t-61 26.5z" />
    <glyph glyph-name="colon" unicode=":" horiz-adv-x="203" 
d="M50 338v102h103v-102h-103zM50 0v102h103v-102h-103z" />
    <glyph glyph-name="semicolon" unicode=";" horiz-adv-x="203" 
d="M50 440h103v-102h-103v102zM50 0v102h103v-102l-38 -103h-39l18 103h-44z" />
    <glyph glyph-name="less" unicode="&#x3c;" horiz-adv-x="503" 
d="M50 318l403 204v-110l-212 -112l212 -111v-110l-403 203v36z" />
    <glyph glyph-name="equal" unicode="=" horiz-adv-x="556" 
d="M50 432h456v-108h-456v108zM50 254h456v-109h-456v109z" />
    <glyph glyph-name="greater" unicode="&#x3e;" horiz-adv-x="503" 
d="M50 412v110l403 -204v-36l-403 -203v110l212 111z" />
    <glyph glyph-name="question" unicode="?" horiz-adv-x="508" 
d="M249 704h11q36 0 69.5 -11t63 -34.5t47.5 -65.5t18 -97v-2q0 -39 -10 -69t-26 -47.5t-35 -31.5t-38 -26t-35 -25.5t-26 -35t-10 -50.5h-94q0 35 7 63.5t18.5 45.5t25.5 32t29 24.5t29.5 21.5t25.5 24t18 30.5t7 42.5q0 49 -25 76.5t-59 27.5h-5q-34 -1 -59 -28.5
t-32 -79.5h-114v5q4 56 23 98t48 65t61 34.5t67 12.5zM180 102h103v-102h-103v102z" />
    <glyph glyph-name="at" unicode="@" horiz-adv-x="821" 
d="M539 -150h-143q-176 0 -261 101.5t-85 317.5q-1 213 87.5 309.5t275.5 96.5q65 0 117 -9.5t89 -26t64.5 -41.5t44 -54t26.5 -67t14 -76t4 -85v-164q0 -64 -39 -105t-110 -41q-87 -1 -124 57q-34 -65 -112 -65q-25 0 -47.5 9t-43 28.5t-32 55t-11.5 83.5v165
q0 49 11.5 84.5t32 55t43 28t47.5 8.5q74 0 108 -57l11 48h67v-354q0 -30 10 -45t39 -15q55 0 55 62v169q0 38 -2 65t-8.5 56.5t-18 49.5t-31 39.5t-47 30.5t-66.5 18t-89 7q-101 0 -159 -28.5t-86 -98.5t-28 -193q0 -174 59 -254t196 -80h142v-85zM347 293v-72
q0 -77 16.5 -107.5t50 -30.5t49.5 30.5t16 107.5v72q0 77 -17 107.5t-49 30.5q-33 0 -49.5 -30.5t-16.5 -107.5z" />
    <glyph glyph-name="A" unicode="A" horiz-adv-x="518" 
d="M372 0l-40 174h-146l-41 -174h-111l154 700h141l154 -700h-111zM198 286h121l-60 286z" />
    <glyph glyph-name="B" unicode="B" horiz-adv-x="461" 
d="M46 700h176q39 0 73 -9t63.5 -28t46.5 -52t17 -76v-36q0 -96 -84 -137q48 -19 74 -58.5t26 -95.5v-31q0 -85 -56 -131t-154 -46h-182v700zM314 496v10q0 43 -27 64.5t-66 21.5h-64v-183h64q40 0 66.5 21.5t26.5 65.5zM325 202v11q0 46 -26.5 70t-73.5 24h-68v-200h68
q47 0 73.5 24t26.5 71z" />
    <glyph glyph-name="C" unicode="C" horiz-adv-x="473" 
d="M45 234v233q0 66 17.5 115t47.5 75.5t65 39t75 12.5q38 0 71.5 -11.5t63 -37t47 -72.5t18.5 -111v-20h-111v17q-6 127 -89 127q-91 0 -91 -141v-218q0 -142 91 -142q82 0 89 126v19h111v-20q-1 -64 -18.5 -111t-47 -73t-63 -37.5t-71.5 -11.5q-40 0 -75 12.5t-65 39
t-47.5 75.5t-17.5 115z" />
    <glyph glyph-name="D" unicode="D" horiz-adv-x="480" 
d="M46 700h189q39 0 73 -11.5t64.5 -37t48 -75t17.5 -118.5v-216q0 -69 -17.5 -118.5t-48 -75t-64.5 -37t-73 -11.5h-189v700zM327 250v201q0 73 -25.5 107t-66.5 34h-78v-484h78q41 0 66.5 34t25.5 108z" />
    <glyph glyph-name="E" unicode="E" horiz-adv-x="372" 
d="M349 592h-192v-182h182v-108h-182v-194h192v-108h-303v700h303v-108z" />
    <glyph glyph-name="F" unicode="F" horiz-adv-x="364" 
d="M341 592h-184v-193h174v-107h-174v-292h-111v700h295v-108z" />
    <glyph glyph-name="G" unicode="G" horiz-adv-x="491" 
d="M45 234v233q0 67 17 115.5t46.5 75t64 39t74.5 12.5q39 0 72.5 -12t63 -38t46.5 -74t18 -114v-10h-108v7q-2 69 -27 101t-65 32q-91 0 -91 -141v-218q0 -142 91 -142q41 0 66.5 32.5t25.5 105.5v45h-89v108h197v-157q0 -67 -17 -116t-46.5 -75.5t-63.5 -38.5t-73 -12
q-40 0 -74.5 12.5t-64 39t-46.5 75t-17 115.5z" />
    <glyph glyph-name="H" unicode="H" horiz-adv-x="477" 
d="M321 700h110v-700h-110v302h-164v-302h-111v700h111v-290h164v290z" />
    <glyph glyph-name="I" unicode="I" horiz-adv-x="206" 
d="M46 0v700h115v-700h-115z" />
    <glyph glyph-name="J" unicode="J" horiz-adv-x="322" 
d="M166 700h111v-466q0 -65 -16.5 -113t-45 -75t-61.5 -40t-70 -14h-50v108h29q46 1 74.5 34.5t28.5 107.5v458z" />
    <glyph glyph-name="K" unicode="K" horiz-adv-x="502" 
d="M468 0h-129l-178 302v-302h-115v700h115v-286l162 286h127l-189 -344z" />
    <glyph glyph-name="L" unicode="L" horiz-adv-x="375" 
d="M157 108h184v-108h-295v700h111v-592z" />
    <glyph glyph-name="M" unicode="M" horiz-adv-x="627" 
d="M445 700h136v-700h-107v440l-127 -440h-69l-127 440v-440h-108v700h136l133 -467z" />
    <glyph glyph-name="N" unicode="N" horiz-adv-x="502" 
d="M352 700h107v-700h-109l-199 446v-446h-108v700h110l199 -446v446z" />
    <glyph glyph-name="O" unicode="O" 
d="M40 234v233q0 66 18 115t48 75.5t64.5 39t74.5 12.5t74.5 -12t65 -38.5t48.5 -75.5t18 -116v-233q0 -67 -18 -116t-48.5 -75.5t-65 -38.5t-74.5 -12t-74.5 12.5t-64.5 39t-48 75.5t-18 115zM337 242v218q0 73 -25 107t-67 34q-91 0 -91 -141v-218q0 -142 91 -142
q42 0 67 34t25 108z" />
    <glyph glyph-name="P" unicode="P" horiz-adv-x="467" 
d="M46 700h159q42 0 79 -9.5t70 -30.5t52 -59t19 -91v-42q0 -49 -17.5 -86t-48 -58.5t-65.5 -32.5t-74 -13h-63v-278h-111v700zM317 483v12q0 52 -27.5 75t-68.5 23h-64v-208h64q41 0 68.5 23t27.5 75z" />
    <glyph glyph-name="Q" unicode="Q" horiz-adv-x="526" 
d="M481 100v-107h-217q-9 -1 -17 -1q-40 0 -74.5 12.5t-64 39t-46.5 75t-17 115.5v233q0 67 17 115.5t46.5 75t64 39t74.5 12.5q39 0 73 -12t64.5 -38.5t48 -75.5t17.5 -116v-233q0 -79 -25 -134h56zM156 460v-218q0 -142 91 -142h3h4q39 3 62 37t23 105v218q0 73 -25.5 107
t-66.5 34q-91 0 -91 -141z" />
    <glyph glyph-name="R" unicode="R" horiz-adv-x="475" 
d="M46 700h163q42 0 79 -9.5t70 -30t52.5 -59t19.5 -91.5v-38q0 -112 -100 -155l111 -317h-117l-93 283h-74v-283h-111v700zM321 487v8q0 53 -27 75.5t-68 22.5h-69v-203h69q40 0 67.5 22.5t27.5 74.5z" />
    <glyph glyph-name="S" unicode="S" horiz-adv-x="475" 
d="M32 217h107q0 -59 28 -88t69 -29q47 0 72 26t25 73q0 50 -27.5 72.5t-91.5 37.5q-24 5 -43 11.5t-43.5 21.5t-41 34t-28 51.5t-11.5 72.5q0 57 16.5 99t45 65t61.5 34t71 11t70.5 -11.5t61 -36.5t45.5 -70.5t17 -107.5h-107q0 58 -24.5 88t-62 30t-60.5 -25t-23 -69
q0 -20 7 -36t16 -25t25.5 -16t26.5 -9.5t27 -6.5q5 -1 7 -1q177 -38 177 -203q0 -60 -16.5 -103.5t-46.5 -68t-65.5 -35.5t-79.5 -11q-39 0 -73.5 11.5t-64.5 36.5t-48 70.5t-18 106.5z" />
    <glyph glyph-name="T" unicode="T" horiz-adv-x="432" 
d="M398 700v-108h-126v-592h-111v592h-127v108h364z" />
    <glyph glyph-name="U" unicode="U" 
d="M157 236v464h-111v-472q0 -66 17 -114t46.5 -73.5t63 -37t74.5 -11.5q39 0 73 11.5t64 37t47 73.5t17 114v472h-111v-464q0 -136 -90 -136t-90 136z" />
    <glyph glyph-name="V" unicode="V" horiz-adv-x="519" 
d="M372 700h112l-153 -700h-143l-154 700h112l113 -524z" />
    <glyph glyph-name="W" unicode="W" horiz-adv-x="780" 
d="M634 700h112l-137 -700h-130l-89 430l-89 -430h-130l-137 700h112l97 -515l95 515h104l95 -515z" />
    <glyph glyph-name="X" unicode="X" horiz-adv-x="511" 
d="M471 700l-143 -343l149 -357h-116l-105 249l-106 -249h-116l147 357l-141 343h116l100 -242l100 242h115z" />
    <glyph glyph-name="Y" unicode="Y" horiz-adv-x="518" 
d="M368 700h116l-169 -423v-277h-114v276l-167 424h116l108 -297z" />
    <glyph glyph-name="Z" unicode="Z" horiz-adv-x="473" 
d="M152 108h289v-108h-409v90l285 502h-278v108h397v-93z" />
    <glyph glyph-name="bracketleft" unicode="[" horiz-adv-x="279" 
d="M229 642h-65v-673h65v-109h-179v890h179v-108z" />
    <glyph glyph-name="backslash" unicode="\" horiz-adv-x="428" 
d="M27 700h117l256 -700h-116z" />
    <glyph glyph-name="bracketright" unicode="]" horiz-adv-x="279" 
d="M50 750h179v-890h-179v109h65v673h-65v108z" />
    <glyph glyph-name="asciicircum" unicode="^" horiz-adv-x="463" 
d="M50 446l182 247l181 -247h-82l-99 138l-100 -138h-82z" />
    <glyph glyph-name="underscore" unicode="_" horiz-adv-x="514" 
d="M50 -28h414v-108h-414v108z" />
    <glyph glyph-name="grave" unicode="`" horiz-adv-x="278" 
d="M56 714h109l57 -151h-75z" />
    <glyph glyph-name="a" unicode="a" horiz-adv-x="388" 
d="M285 500h67v-500h-67l-11 51q-34 -59 -108 -59q-26 0 -48.5 9t-42.5 28.5t-31.5 55t-11.5 83.5v165q0 48 11.5 83.5t31.5 55t42.5 28.5t48.5 9q73 0 107 -57zM126 286v-71q0 -78 16.5 -108t50 -30t49.5 30t16 108v71q0 78 -17 108t-49 30q-33 0 -49.5 -30t-16.5 -108z
" />
    <glyph glyph-name="b" unicode="b" horiz-adv-x="388" 
d="M131 700v-238q31 47 95 47q55 0 93 -41.5t38 -134.5v-165q0 -93 -38 -134.5t-93 -41.5q-76 0 -110 60l-12 -52h-67v700h94zM263 215v71q0 78 -16.5 108t-49.5 30q-32 0 -49 -30t-17 -108v-71q0 -78 16 -108t49.5 -30t50 30t16.5 108z" />
    <glyph glyph-name="c" unicode="c" horiz-adv-x="379" 
d="M32 168v165q0 48 14 83.5t37.5 55t50.5 28.5t57 9t56 -8.5t49.5 -27t37.5 -53.5t15 -81v-23h-92q-1 108 -66 108q-33 0 -49 -30t-16 -108v-71q0 -78 16 -108t50 -30q31 0 48 24t18 84h91v-22q-1 -47 -15 -81.5t-37.5 -53.5t-49.5 -27.5t-56 -8.5t-57 9t-50.5 28.5
t-37.5 55t-14 83.5z" />
    <glyph glyph-name="d" unicode="d" horiz-adv-x="388" 
d="M258 700h94v-700h-67l-12 52q-35 -60 -110 -60q-55 0 -93 41.5t-38 134.5v165q0 93 38 134.5t93 41.5q64 0 95 -47v238zM126 286v-71q0 -78 16.5 -108t50 -30t49.5 30t15 108v71q0 78 -16.5 108t-48.5 30q-33 0 -49.5 -30t-16.5 -108z" />
    <glyph glyph-name="e" unicode="e" horiz-adv-x="381" 
d="M32 168v165q0 48 14 83.5t37.5 55t50.5 28.5t57 9t56.5 -9t50.5 -28t38.5 -55t14.5 -84v-118h-225v-30q0 -60 17 -84t49 -24q62 0 65 88h94q-1 -48 -15 -83t-38 -54t-50.5 -27.5t-56.5 -8.5t-57 9t-50.5 28.5t-37.5 55t-14 83.5zM257 285v37q-1 102 -66 102
q-31 0 -48 -23t-18 -79v-37h132z" />
    <glyph glyph-name="f" unicode="f" horiz-adv-x="300" 
d="M232 709h38v-85h-14q-41 0 -55.5 -21.5t-15.5 -86.5v-16h85v-85h-85v-415h-93v415h-62v85h62v33q0 99 36.5 137t103.5 39z" />
    <glyph glyph-name="g" unicode="g" horiz-adv-x="388" 
d="M32 176v157q0 93 38 134.5t93 41.5q75 0 110 -59l12 50h67v-498q0 -47 -14.5 -82.5t-38 -54.5t-50 -28t-56.5 -9q-56 0 -99.5 30t-55.5 96h95q14 -41 59 -41q31 0 48.5 22t17.5 76v37q-31 -48 -95 -48q-55 0 -93 41.5t-38 134.5zM258 218v68q0 78 -16.5 108t-49.5 30
t-49.5 -30t-16.5 -108v-68q0 -78 16.5 -108t49.5 -30q32 0 49 30.5t17 107.5z" />
    <glyph glyph-name="h" unicode="h" horiz-adv-x="393" 
d="M133 700v-240q31 49 95 49q55 0 93 -41.5t38 -134.5v-333h-94v286q0 78 -16.5 108t-49.5 30q-31 0 -48.5 -25t-17.5 -88v-311h-94v700h94z" />
    <glyph glyph-name="i" unicode="i" horiz-adv-x="180" 
d="M39 573v95h103v-95h-103zM44 0v500h94v-500h-94z" />
    <glyph glyph-name="j" unicode="j" horiz-adv-x="257" 
d="M118 667h102v-94h-102v94zM122 500h94v-497q0 -52 -10.5 -87.5t-30.5 -54t-44 -26.5t-56 -8h-38v84h13q43 1 57.5 24.5t14.5 93.5v471z" />
    <glyph glyph-name="k" unicode="k" horiz-adv-x="376" 
d="M348 0h-97l-120 207v-207h-94v700h94v-393l112 193h98l-127 -243z" />
    <glyph glyph-name="l" unicode="l" horiz-adv-x="167" 
d="M39 0v700h94v-700h-94z" />
    <glyph glyph-name="m" unicode="m" horiz-adv-x="615" 
d="M104 500l13 -51q35 60 108 60q80 0 110 -73q34 73 115 73q55 0 93.5 -41.5t38.5 -134.5v-333h-94v286q0 78 -17 108t-49 30q-60 0 -66 -83v-341h-93v286q0 78 -17 108t-49 30q-31 0 -48.5 -23.5t-17.5 -81.5v-319h-94v500h67z" />
    <glyph glyph-name="n" unicode="n" horiz-adv-x="391" 
d="M104 500l13 -51q35 60 109 60q55 0 93 -41.5t38 -134.5v-333h-94v286q0 78 -16.5 108t-49.5 30q-31 0 -48.5 -25t-17.5 -88v-311h-94v500h67z" />
    <glyph glyph-name="o" unicode="o" horiz-adv-x="383" 
d="M32 168v165q0 48 14 83.5t37.5 55t50.5 28.5t57 9t57 -9t51 -28t38 -55t14 -84v-165q0 -48 -14 -84t-38 -55t-51 -28t-57 -9t-57 9t-50.5 28.5t-37.5 55t-14 83.5zM258 215v71q0 77 -17.5 107.5t-49.5 30.5q-33 0 -49 -30t-16 -108v-71q0 -78 16 -108t50 -30
q33 0 49.5 30t16.5 108z" />
    <glyph glyph-name="p" unicode="p" horiz-adv-x="388" 
d="M103 500l12 -52q35 60 111 60q55 0 93 -41.5t38 -134.5v-165q0 -92 -38 -133.5t-93 -41.5q-64 0 -95 46v-201h-94v663h66zM263 214v72q0 77 -16.5 107.5t-50 30.5t-49.5 -30.5t-16 -107.5v-72q0 -77 17 -107.5t49 -30.5t49 30.5t17 107.5z" />
    <glyph glyph-name="q" unicode="q" horiz-adv-x="388" 
d="M285 500h67v-663h-94v201q-31 -46 -95 -46q-55 0 -93 41.5t-38 133.5v165q0 93 38 134.5t93 41.5q75 0 110 -60zM126 286v-72q0 -77 16.5 -107.5t49.5 -30.5q32 0 49 30.5t17 107.5v72q0 77 -16 107.5t-49.5 30.5t-50 -30.5t-16.5 -107.5z" />
    <glyph glyph-name="r" unicode="r" horiz-adv-x="274" 
d="M104 500l16 -64q21 35 54.5 54t71.5 19v-84q-114 0 -115 -140v-285h-94v500h67z" />
    <glyph glyph-name="s" unicode="s" horiz-adv-x="369" 
d="M119 155v-12q1 -34 20 -50t46 -16q65 0 65 63q0 39 -21 57.5t-65 28.5q-55 10 -92.5 44t-37.5 95q0 72 42.5 108t108.5 36q64 0 108 -38.5t45 -109.5v-9h-93v8q-2 33 -18.5 48.5t-40.5 15.5q-59 0 -59 -54q1 -47 67 -64q83 -18 116.5 -59t33.5 -102q0 -77 -44 -115
t-115 -38q-64 0 -111.5 39t-48.5 110v14h94z" />
    <glyph glyph-name="t" unicode="t" horiz-adv-x="300" 
d="M185 416v-219q0 -75 14.5 -98t57.5 -23h13v-85h-38q-32 0 -55.5 7.5t-44 26.5t-30.5 55.5t-10 90.5v245h-62v84h62v153h93v-153h85v-84h-85z" />
    <glyph glyph-name="u" unicode="u" horiz-adv-x="387" 
d="M260 500h94v-500h-67l-13 51q-35 -60 -109 -60q-55 0 -93 41.5t-38 134.5v333h94v-286q0 -78 16.5 -108t49.5 -30q31 0 48.5 25t17.5 88v311z" />
    <glyph glyph-name="v" unicode="v" horiz-adv-x="436" 
d="M314 500h94l-136 -499h-108l-136 499h94l96 -355z" />
    <glyph glyph-name="w" unicode="w" horiz-adv-x="637" 
d="M515 500h94l-105 -500h-114l-71 317l-72 -317h-113l-106 500h94l76 -374l81 374h80l81 -374z" />
    <glyph glyph-name="x" unicode="x" horiz-adv-x="409" 
d="M378 500l-101 -245l104 -255h-97l-79 177l-80 -177h-97l104 254l-100 246h97l76 -194l76 194h97z" />
    <glyph glyph-name="y" unicode="y" horiz-adv-x="376" 
d="M254 500h94v-503q-1 -46 -15.5 -80.5t-38 -53t-50 -27t-55.5 -8.5q-56 0 -99.5 30t-55.5 96h95q14 -41 59 -41q31 0 48.5 22t17.5 75v38q-31 -48 -95 -48q-55 0 -93 41.5t-38 134.5v324h94v-277q0 -78 16.5 -108t49.5 -30q32 0 49 30t17 108v277z" />
    <glyph glyph-name="z" unicode="z" horiz-adv-x="358" 
d="M131 85h199v-85h-302v70l197 345h-185v85h286v-70z" />
    <glyph glyph-name="braceleft" unicode="{" horiz-adv-x="393" 
d="M289 750h54v-108h-34q-21 0 -36 -16t-15 -40v-137q0 -54 -21.5 -91.5t-67.5 -47.5q46 -10 67.5 -43t21.5 -82v-161q0 -24 15 -40t36 -16h34v-107h-54q-65 0 -104.5 38.5t-40.5 107.5v145q-2 59 -23 80.5t-66 23.5h-5v108h5q46 2 67 23t22 79v138q2 68 41 107t104 39z" />
    <glyph glyph-name="bar" unicode="|" horiz-adv-x="214" 
d="M50 700h114v-760h-114v760z" />
    <glyph glyph-name="braceright" unicode="}" horiz-adv-x="393" 
d="M50 750h54q65 0 104 -39t41 -107v-140q1 -56 22 -77t67 -23h5v-108h-5q-46 -2 -66.5 -24t-22.5 -81v-144q-1 -69 -40.5 -107.5t-104.5 -38.5h-54v108h34q21 0 36 15.5t15 40.5v160q0 49 21.5 82.5t67.5 42.5q-46 10 -67.5 47.5t-21.5 91.5v137q0 24 -15 40t-36 16h-34
v108z" />
    <glyph glyph-name="asciitilde" unicode="~" horiz-adv-x="548" 
d="M133 206h-83q0 75 31 124.5t92 49.5q17 0 34.5 -5t29 -10.5t36.5 -18.5q2 -2 10.5 -7t11 -6.5t9.5 -5.5t10.5 -5.5t10 -4.5t11 -4.5t10.5 -2.5t11.5 -1.5t11.5 -0.5q22 2 34.5 19.5t12.5 44.5h82q0 -73 -29.5 -120.5t-87.5 -47.5q-17 0 -34.5 5t-25.5 8.5t-32 17.5
t-30 17q-42 25 -72 23q-26 -1 -40 -20t-14 -49z" />
    <glyph glyph-name="exclamdown" unicode="&#xa1;" horiz-adv-x="203" 
d="M50 537h103v-102h-103v102zM65 351h73l12 -274v-240h-98v241z" />
    <glyph glyph-name="cent" unicode="&#xa2;" horiz-adv-x="380" 
d="M144 601h95v-101q48 -11 78.5 -50.5t31.5 -111.5v-22h-92q-1 108 -66 108q-33 0 -49 -30t-16 -108v-71q0 -78 16 -108t50 -30q31 0 48 24t18 84h91v-22q-1 -72 -31.5 -111.5t-78.5 -50.5v-98h-95v97q-49 12 -80.5 52.5t-31.5 115.5v165q0 75 31.5 115.5t80.5 52.5v100z
" />
    <glyph glyph-name="sterling" unicode="&#xa3;" horiz-adv-x="520" 
d="M489 467h-113v5q-6 129 -90 129q-91 0 -91 -141v-66h136v-108h-136v-178h268v-108h-432v108h50v178h-50v108h50v76q0 65 18 113.5t48 75t64.5 38.5t74.5 12q38 0 72 -12t64 -37.5t48 -72.5t19 -111v-9z" />
    <glyph glyph-name="currency" unicode="&#xa4;" horiz-adv-x="600" 
 />
    <glyph glyph-name="yen" unicode="&#xa5;" horiz-adv-x="548" 
d="M403 700h116l-117 -240h100v-108h-140l-19 -34l-2 -16h161v-108h-171v-194h-115v194h-169v108h160l-2 16l-19 34h-139v108h98l-116 240h116l129 -288z" />
    <glyph glyph-name="brokenbar" unicode="&#xa6;" horiz-adv-x="214" 
d="M50 700h115v-320h-115v320zM50 260h115v-320h-115v320z" />
    <glyph glyph-name="section" unicode="&#xa7;" horiz-adv-x="411" 
d="M132 93v-11q1 -39 22.5 -58t50.5 -19q34 0 53.5 17t19.5 52q0 45 -24 65.5t-74 31.5q-60 10 -101 47.5t-41 105.5q0 71 45 111q-45 41 -45 105q0 81 47 121t120 40q71 0 120 -43.5t50 -122.5v-9h-104v7q-1 37 -20 55t-45 18q-28 0 -46 -14.5t-18 -44.5q1 -31 20.5 -47.5
t54.5 -25.5q166 -33 166 -178q0 -67 -35 -109q35 -43 35 -107q0 -84 -49 -126.5t-129 -42.5q-44 0 -83 17t-66.5 57t-28.5 94v14h105zM177 389q-41 -13 -41 -59q0 -11 2 -19.5t8.5 -15.5t10 -11t14.5 -9t13.5 -6.5t16.5 -6l14 -4.5q30 -10 47 -22q25 19 25 59q0 34 -20 52
t-56 30q-32 11 -34 12z" />
    <glyph glyph-name="dieresis" unicode="&#xa8;" horiz-adv-x="343" 
d="M54 606v94h95v-94h-95zM197 606v94h95v-94h-95z" />
    <glyph glyph-name="copyright" unicode="&#xa9;" horiz-adv-x="617" 
d="M309 700q111 0 189 -79.5t78 -189.5q0 -111 -78 -190.5t-189 -79.5q-112 0 -190 79.5t-78 190.5q0 110 78 189.5t190 79.5zM308.5 638q-88.5 0 -145.5 -60.5t-57 -146.5q0 -87 57 -147.5t145.5 -60.5t145.5 60.5t57 147.5q0 86 -57 146.5t-145.5 60.5zM204 403v59
q0 68 30 99t74 31q42 0 71 -25.5t34 -82.5v-10h-53q-4 38 -17 53t-35 15q-25 0 -37.5 -23t-12.5 -84v-6q0 -60 12.5 -83.5t38.5 -23.5q22 0 34.5 15.5t16.5 53.5h53v-10q-5 -57 -34 -82.5t-71 -25.5q-44 0 -74 30.5t-30 99.5z" />
    <glyph glyph-name="ordfeminine" unicode="&#xaa;" horiz-adv-x="388" 
d="M285 500h67v-500h-67l-11 51q-34 -59 -108 -59q-26 0 -48.5 9t-42.5 28.5t-31.5 55t-11.5 83.5v165q0 48 11.5 83.5t31.5 55t42.5 28.5t48.5 9q73 0 107 -57zM126 286v-71q0 -78 16.5 -108t50 -30t49.5 30t16 108v71q0 78 -17 108t-49 30q-33 0 -49.5 -30t-16.5 -108z
" />
    <glyph glyph-name="guillemotleft" unicode="&#xab;" horiz-adv-x="414" 
d="M218 321l146 129v-111l-85 -73l85 -72v-112l-146 129v110zM50 321l146 129v-111l-85 -73l85 -72v-112l-146 129v110z" />
    <glyph glyph-name="logicalnot" unicode="&#xac;" horiz-adv-x="556" 
d="M506 166h-114v108h-342v108h456v-216z" />
    <glyph glyph-name="registered" unicode="&#xae;" horiz-adv-x="617" 
d="M308.5 694q111.5 0 189.5 -79.5t78 -190.5t-78 -190t-189.5 -79t-189.5 79t-78 190t78 190.5t189.5 79.5zM308.5 632q-88.5 0 -145.5 -60.5t-57 -147t57 -147t145.5 -60.5t146 60.5t57.5 147t-57.5 147t-146 60.5zM218 580h92q46 0 73 -24t27 -62v-12q-1 -25 -15 -44.5
t-38 -28.5l62 -138h-57l-56 122h-33v-122h-55v309zM273 448h35q47 0 47 41q0 20 -12.5 30.5t-34.5 10.5h-35v-82z" />
    <glyph glyph-name="macron" unicode="&#xaf;" horiz-adv-x="378" 
d="M50 700h278v-84h-278v84z" />
    <glyph glyph-name="degree" unicode="&#xb0;" horiz-adv-x="367" 
d="M183 755q56 0 95 -39t39 -94q0 -56 -39 -95t-95 -39q-55 0 -94 39t-39 95q0 55 39 94t94 39zM183 678q-23 0 -39.5 -16.5t-16.5 -40t16.5 -40t39.5 -16.5q24 0 40.5 16.5t16.5 40t-16.5 40t-40.5 16.5z" />
    <glyph glyph-name="plusminus" unicode="&#xb1;" horiz-adv-x="556" 
d="M221 526h114v-96h171v-108h-171v-96h-114v96h-171v108h171v96zM506 26h-456v109h456v-109z" />
    <glyph glyph-name="acute" unicode="&#xb4;" horiz-adv-x="278" 
d="M113 712h109l-91 -150h-75z" />
    <glyph glyph-name="paragraph" unicode="&#xb6;" horiz-adv-x="645" 
d="M178 700h436v-108h-38v-755h-114v755h-77v-755h-113v471h-94q-63 0 -105.5 42.5t-42.5 105.5v96q0 59 43 103.5t105 44.5z" />
    <glyph glyph-name="periodcentered" unicode="&#xb7;" horiz-adv-x="203" 
d="M50 298v101h103v-101h-103z" />
    <glyph glyph-name="cedilla" unicode="&#xb8;" horiz-adv-x="242" 
d="M115 0h77v-38q-1 -73 -27.5 -103.5t-95.5 -32.5h-19v69h18q27 2 37 18t10 51v36z" />
    <glyph glyph-name="ordmasculine" unicode="&#xba;" horiz-adv-x="383" 
d="M32 168v165q0 48 14 83.5t37.5 55t50.5 28.5t57 9t57 -9t51 -28t38 -55t14 -84v-165q0 -48 -14 -84t-38 -55t-51 -28t-57 -9t-57 9t-50.5 28.5t-37.5 55t-14 83.5zM258 215v71q0 77 -17.5 107.5t-49.5 30.5q-33 0 -49 -30t-16 -108v-71q0 -78 16 -108t50 -30
q33 0 49.5 30t16.5 108z" />
    <glyph glyph-name="guillemotright" unicode="&#xbb;" horiz-adv-x="414" 
d="M50 339v111l146 -129v-110l-146 -129v112l85 72zM218 339v111l146 -129v-110l-146 -129v111l85 73z" />
    <glyph glyph-name="onequarter" unicode="&#xbc;" horiz-adv-x="635" 
d="M39 700h103v-338h-71v273h-32v65zM383 700h86l-297 -700h-85zM433 338h72l-78 -214h74v131h71v-131h25v-65h-25v-59h-71v59h-148v72z" />
    <glyph glyph-name="onehalf" unicode="&#xbd;" horiz-adv-x="634" 
d="M39 700h103v-338h-72v272h-31v66zM383 700h86l-297 -700h-85zM481 340h9q43 -1 74 -26t32 -78v-3q0 -31 -18 -56t-39.5 -38.5t-43.5 -33.5t-28 -40h125v-65h-219v33q0 35 15.5 61.5t38 42t44.5 29t37.5 30t15.5 36.5q0 21 -11 32t-26 11h-2q-36 0 -44 -45h-71l1 4
q3 54 35.5 79.5t74.5 26.5z" />
    <glyph glyph-name="threequarters" unicode="&#xbe;" horiz-adv-x="712" 
d="M142 705h10q42 0 72.5 -22.5t30.5 -71.5v-5q0 -24 -12 -43t-28 -24q18 -8 29.5 -28t12.5 -47v-5q-1 -49 -31 -72.5t-75 -24.5h-9q-42 0 -73 25t-35 76v2h67q3 -18 15 -27t27 -10h5q15 0 26 9t12 24v3q0 19 -12.5 30.5t-33.5 11.5h-31v66h31q18 0 31 8t13 24v3
q0 15 -10.5 24t-25.5 9h-5q-34 0 -41 -35h-67v2q4 48 35 73t72 25zM464 700h86l-297 -700h-86zM509 338h72l-78 -214h74v131h72v-131h24v-65h-24v-59h-72v59h-147v72z" />
    <glyph glyph-name="questiondown" unicode="&#xbf;" horiz-adv-x="508" 
d="M327 440h-103v101h103v-101zM259 -163h-11q-36 0 -69.5 11.5t-63 34.5t-47.5 65t-18 98v2q0 39 10 68.5t26 47t35 31.5t38 26t35 26t25.5 35.5t9.5 49.5h94q0 -35 -7 -63t-18 -45.5t-25.5 -32.5t-29.5 -24.5t-29 -21.5t-25.5 -23.5t-18 -30.5t-6.5 -43q0 -49 24.5 -76
t59.5 -27h5q34 1 58.5 28t31.5 79h115l-1 -5q-4 -56 -23 -97.5t-47.5 -65t-60.5 -35t-67 -12.5z" />
    <glyph glyph-name="Agrave" unicode="&#xc0;" horiz-adv-x="518" 
d="M176 914h110l56 -151h-74zM188 700h141l154 -700h-111l-40 174h-146l-41 -174h-111zM319 286l-60 286l-61 -286h121z" />
    <glyph glyph-name="Aacute" unicode="&#xc1;" horiz-adv-x="518" 
d="M242 912h109l-91 -150h-75zM188 700h141l154 -700h-111l-40 174h-146l-41 -174h-111zM319 286l-60 286l-61 -286h121z" />
    <glyph glyph-name="Acircumflex" unicode="&#xc2;" horiz-adv-x="518" 
d="M208 904h102l87 -148h-71l-67 72l-66 -72h-71zM188 700h141l154 -700h-111l-40 174h-146l-41 -174h-111zM319 286l-60 286l-61 -286h121z" />
    <glyph glyph-name="Atilde" unicode="&#xc3;" horiz-adv-x="518" 
d="M337 903h70q0 -141 -84 -141q-18 0 -33 7.5t-39 27.5q-22 20 -43 19q-26 -2 -26 -54h-69q0 141 83 141q19 0 33.5 -7.5t38.5 -26.5q25 -23 46 -18q13 2 18 14.5t5 37.5zM188 700h141l154 -700h-111l-40 174h-146l-41 -174h-111zM319 286l-60 286l-61 -286h121z" />
    <glyph glyph-name="Adieresis" unicode="&#xc4;" horiz-adv-x="518" 
d="M141 900h95v-94h-95v94zM284 900h95v-94h-95v94zM188 700h141l154 -700h-111l-40 174h-146l-41 -174h-111zM319 286l-60 286l-61 -286h121z" />
    <glyph glyph-name="Aring" unicode="&#xc5;" horiz-adv-x="518" 
d="M259 941q44 0 75.5 -31t31.5 -75t-31.5 -75.5t-75.5 -31.5t-75 31t-31 76q0 44 31 75t75 31zM259 874q-16 0 -27.5 -11.5t-11.5 -27.5q0 -17 11.5 -28.5t27.5 -11.5q17 0 28.5 11.5t11.5 28.5q0 16 -11.5 27.5t-28.5 11.5zM188 700h141l154 -700h-111l-40 174h-146
l-41 -174h-111zM319 286l-60 286l-61 -286h121z" />
    <glyph glyph-name="AE" unicode="&#xc6;" horiz-adv-x="603" 
d="M196 700h370v-108h-192v-182h182v-108h-182v-194h192v-108h-303v174h-69l-40 -174h-111zM262 286v270l-55 -270h55z" />
    <glyph glyph-name="Ccedilla" unicode="&#xc7;" horiz-adv-x="473" 
d="M45 234v233q0 66 17.5 115t47.5 75.5t65 39t75 12.5q38 0 71.5 -11.5t63 -37t47 -72.5t18.5 -111v-20h-110l-1 17q-6 127 -89 127q-91 0 -91 -141v-218q0 -142 91 -142q82 0 89 126l1 19h110v-20q-2 -100 -41 -154t-101 -71v-34q-1 -74 -26 -105.5t-92 -34.5h-24v69l23 1
q23 3 32.5 18t9.5 47v33l-15 2q-35 5 -64.5 19.5t-54 42t-38.5 72.5t-14 104z" />
    <glyph glyph-name="Egrave" unicode="&#xc8;" horiz-adv-x="372" 
d="M103 914h110l56 -151h-74zM46 700h303v-108h-192v-182h182v-108h-182v-194h192v-108h-303v700z" />
    <glyph glyph-name="Eacute" unicode="&#xc9;" horiz-adv-x="372" 
d="M160 912h109l-91 -150h-75zM46 700h303v-108h-192v-182h182v-108h-182v-194h192v-108h-303v700z" />
    <glyph glyph-name="Ecircumflex" unicode="&#xca;" horiz-adv-x="372" 
d="M136 904h101l87 -148h-71l-67 72l-66 -72h-71zM46 700h303v-108h-192v-182h182v-108h-182v-194h192v-108h-303v700z" />
    <glyph glyph-name="Edieresis" unicode="&#xcb;" horiz-adv-x="372" 
d="M68 900h95v-94h-95v94zM211 900h95v-94h-95v94zM46 700h303v-108h-192v-182h182v-108h-182v-194h192v-108h-303v700z" />
    <glyph glyph-name="Igrave" unicode="&#xcc;" horiz-adv-x="206" 
d="M20 914h109l57 -151h-75zM46 0v700h115v-700h-115z" />
    <glyph glyph-name="Iacute" unicode="&#xcd;" horiz-adv-x="206" 
d="M77 912h109l-91 -150h-75zM46 0v700h115v-700h-115z" />
    <glyph glyph-name="Icircumflex" unicode="&#xce;" horiz-adv-x="206" 
d="M52 904h102l87 -148h-72l-66 72l-66 -72h-72zM46 0v700h115v-700h-115z" />
    <glyph glyph-name="Idieresis" unicode="&#xcf;" horiz-adv-x="206" 
d="M-16 806v94h95v-94h-95zM127 806v94h95v-94h-95zM46 0v700h115v-700h-115z" />
    <glyph glyph-name="Eth" unicode="&#xd0;" horiz-adv-x="480" 
d="M46 700h189q39 0 73 -11.5t64.5 -37t48 -75t17.5 -118.5v-216q0 -69 -17.5 -118.5t-48 -75t-64.5 -37t-73 -11.5h-189v285h-44v108h44v307zM327 250v201q0 73 -25.5 107t-66.5 34h-78v-199h93v-108h-93v-177h78q41 0 66.5 34t25.5 108z" />
    <glyph glyph-name="Ntilde" unicode="&#xd1;" horiz-adv-x="502" 
d="M329 903h70q0 -141 -84 -141q-18 0 -33 7.5t-39 27.5q-22 20 -43 19q-25 -2 -26 -54h-69q0 141 83 141q19 0 33.5 -7.5t38.5 -26.5q25 -23 47 -18q12 2 17 14.5t5 37.5zM352 700h107v-700h-109l-199 446v-446h-108v700h110l199 -446v446z" />
    <glyph glyph-name="Ograve" unicode="&#xd2;" 
d="M163 914h109l57 -151h-74zM40 234v233q0 66 18 115t48 75.5t64.5 39t74.5 12.5t74.5 -12t65 -38.5t48.5 -75.5t18 -116v-233q0 -67 -18 -116t-48.5 -75.5t-65 -38.5t-74.5 -12t-74.5 12.5t-64.5 39t-48 75.5t-18 115zM337 242v218q0 73 -25 107t-67 34q-91 0 -91 -141
v-218q0 -142 91 -142q42 0 67 34t25 108z" />
    <glyph glyph-name="Oacute" unicode="&#xd3;" 
d="M220 912h109l-91 -150h-75zM40 234v233q0 66 18 115t48 75.5t64.5 39t74.5 12.5t74.5 -12t65 -38.5t48.5 -75.5t18 -116v-233q0 -67 -18 -116t-48.5 -75.5t-65 -38.5t-74.5 -12t-74.5 12.5t-64.5 39t-48 75.5t-18 115zM337 242v218q0 73 -25 107t-67 34q-91 0 -91 -141
v-218q0 -142 91 -142q42 0 67 34t25 108z" />
    <glyph glyph-name="Ocircumflex" unicode="&#xd4;" 
d="M195 904h102l87 -148h-71l-67 72l-66 -72h-71zM40 234v233q0 66 18 115t48 75.5t64.5 39t74.5 12.5t74.5 -12t65 -38.5t48.5 -75.5t18 -116v-233q0 -67 -18 -116t-48.5 -75.5t-65 -38.5t-74.5 -12t-74.5 12.5t-64.5 39t-48 75.5t-18 115zM337 242v218q0 73 -25 107
t-67 34q-91 0 -91 -141v-218q0 -142 91 -142q42 0 67 34t25 108z" />
    <glyph glyph-name="Otilde" unicode="&#xd5;" 
d="M325 903h69q0 -141 -83 -141q-18 0 -33 7.5t-39 27.5q-22 20 -43 19q-26 -2 -26 -54h-69q0 141 83 141q19 0 33.5 -7.5t38.5 -26.5q25 -23 46 -18q13 2 18 14.5t5 37.5zM40 234v233q0 66 18 115t48 75.5t64.5 39t74.5 12.5t74.5 -12t65 -38.5t48.5 -75.5t18 -116v-233
q0 -67 -18 -116t-48.5 -75.5t-65 -38.5t-74.5 -12t-74.5 12.5t-64.5 39t-48 75.5t-18 115zM337 242v218q0 73 -25 107t-67 34q-91 0 -91 -141v-218q0 -142 91 -142q42 0 67 34t25 108z" />
    <glyph glyph-name="Odieresis" unicode="&#xd6;" 
d="M128 806v94h94v-94h-94zM271 806v94h94v-94h-94zM40 234v233q0 66 18 115t48 75.5t64.5 39t74.5 12.5t74.5 -12t65 -38.5t48.5 -75.5t18 -116v-233q0 -67 -18 -116t-48.5 -75.5t-65 -38.5t-74.5 -12t-74.5 12.5t-64.5 39t-48 75.5t-18 115zM337 242v218q0 73 -25 107
t-67 34q-91 0 -91 -141v-218q0 -142 91 -142q42 0 67 34t25 108z" />
    <glyph glyph-name="multiply" unicode="&#xd7;" horiz-adv-x="498" 
d="M252 359l120 120l77 -76l-121 -121l121 -120l-81 -81l-121 120l-120 -120l-77 76l121 121l-121 120l81 81z" />
    <glyph glyph-name="Oslash" unicode="&#xd8;" 
d="M428 750l-37 -99q60 -63 60 -184v-233q0 -67 -18 -116t-49 -75.5t-65.5 -38.5t-73.5 -12q-50 0 -90 18l-22 -60h-70l36 99q-59 63 -59 185v233q0 66 17.5 115t47.5 75.5t65 39t75 12.5q50 0 91 -19l22 60h70zM154 460v-218q0 -21 2 -39l141 381q-21 17 -52 17
q-91 0 -91 -141zM337 242v218q0 21 -2 39l-141 -383q21 -16 51 -16q42 0 67 34t25 108z" />
    <glyph glyph-name="Ugrave" unicode="&#xd9;" 
d="M163 914h109l57 -151h-74zM157 236v464h-111v-472q0 -66 17 -114t46.5 -73.5t63 -37t74.5 -11.5q39 0 73 11.5t64 37t47 73.5t17 114v472h-111v-464q0 -136 -90 -136t-90 136z" />
    <glyph glyph-name="Uacute" unicode="&#xda;" 
d="M220 912h109l-91 -150h-75zM157 236v464h-111v-472q0 -66 17 -114t46.5 -73.5t63 -37t74.5 -11.5q39 0 73 11.5t64 37t47 73.5t17 114v472h-111v-464q0 -136 -90 -136t-90 136z" />
    <glyph glyph-name="Ucircumflex" unicode="&#xdb;" 
d="M195 904h102l87 -148h-72l-66 72l-66 -72h-71zM157 236v464h-111v-472q0 -66 17 -114t46.5 -73.5t63 -37t74.5 -11.5q39 0 73 11.5t64 37t47 73.5t17 114v472h-111v-464q0 -136 -90 -136t-90 136z" />
    <glyph glyph-name="Udieresis" unicode="&#xdc;" 
d="M127 806v94h95v-94h-95zM270 806v94h95v-94h-95zM157 236v464h-111v-472q0 -66 17 -114t46.5 -73.5t63 -37t74.5 -11.5q39 0 73 11.5t64 37t47 73.5t17 114v472h-111v-464q0 -136 -90 -136t-90 136z" />
    <glyph glyph-name="Yacute" unicode="&#xdd;" horiz-adv-x="518" 
d="M233 912h109l-91 -150h-75zM368 700h116l-169 -423v-277h-114v276l-167 424h116l108 -297z" />
    <glyph glyph-name="Thorn" unicode="&#xde;" horiz-adv-x="454" 
d="M46 704h111v-98h49q40 -1 75 -11.5t65.5 -31.5t48 -58.5t17.5 -87.5v-39q0 -49 -17.5 -86t-48 -58t-65.5 -32t-75 -13h-49v-189h-111v704zM304 394v8q0 52 -27.5 74.5t-68.5 22.5h-51v-203h51q41 0 68.5 23t27.5 75z" />
    <glyph glyph-name="germandbls" unicode="&#xdf;" horiz-adv-x="544" 
d="M262 705h21q46 0 85.5 -11t72 -33.5t51.5 -61t20 -89.5v-15q0 -48 -22.5 -84.5t-55.5 -50.5q38 -13 62 -52t25 -93v-12q-1 -54 -19 -94.5t-49.5 -63.5t-70 -34t-85.5 -11h-100v108h100q53 0 81 24t29 67v12q0 43 -28 68.5t-83 25.5h-44v109h39q50 0 78 21.5t28 62.5v10
q0 43 -30 66t-84 23h-20q-50 0 -81 -23.5t-33 -69.5v-504h-114v496q0 56 18.5 97.5t51 65t71.5 34.5t86 12z" />
    <glyph glyph-name="agrave" unicode="&#xe0;" horiz-adv-x="388" 
d="M111 714h109l57 -151h-74zM32 168v165q0 48 11.5 83.5t31.5 55t42.5 28.5t48.5 9q73 0 107 -57l12 48h67v-500h-67l-11 51q-34 -59 -108 -59q-26 0 -48.5 9t-42.5 28.5t-31.5 55t-11.5 83.5zM258 215v71q0 78 -17 108t-49 30q-33 0 -49.5 -30t-16.5 -108v-71
q0 -78 16.5 -108t50 -30t49.5 30t16 108z" />
    <glyph glyph-name="aacute" unicode="&#xe1;" horiz-adv-x="388" 
d="M168 712h109l-91 -150h-75zM285 500h67v-500h-67l-11 51q-34 -59 -108 -59q-26 0 -48.5 9t-42.5 28.5t-31.5 55t-11.5 83.5v165q0 48 11.5 83.5t31.5 55t42.5 28.5t48.5 9q73 0 107 -57zM126 286v-71q0 -78 16.5 -108t50 -30t49.5 30t15 108v71q0 78 -16.5 108t-48.5 30
q-33 0 -49.5 -30t-16.5 -108z" />
    <glyph glyph-name="acircumflex" unicode="&#xe2;" horiz-adv-x="388" 
d="M143 704h102l87 -148h-71l-67 72l-66 -72h-71zM285 500h67v-500h-67l-11 51q-34 -59 -108 -59q-26 0 -48.5 9t-42.5 28.5t-31.5 55t-11.5 83.5v165q0 48 11.5 84t31.5 55t42.5 28t48.5 9q73 0 107 -57zM126 286v-71q0 -78 16.5 -108t50 -30t49.5 30t16 108v71
q0 78 -17 108t-49 30q-33 0 -49.5 -30t-16.5 -108z" />
    <glyph glyph-name="atilde" unicode="&#xe3;" horiz-adv-x="388" 
d="M272 704h70q0 -141 -83 -141q-18 0 -33.5 7t-38.5 27t-43 19q-26 -1 -26 -53h-70q0 141 84 141q19 0 33.5 -8t37.5 -27q25 -23 47 -17q13 1 17.5 13.5t4.5 38.5zM285 500h67v-500h-67l-11 51q-34 -59 -108 -59q-26 0 -48.5 9t-42.5 28.5t-31.5 55t-11.5 83.5v165
q0 48 11.5 84t31.5 55t42.5 28t48.5 9q73 0 108 -57zM126 286v-71q0 -78 16.5 -108t50 -30t49.5 30t16 108v71q0 78 -17 108t-49 30q-33 0 -49.5 -30t-16.5 -108z" />
    <glyph glyph-name="adieresis" unicode="&#xe4;" horiz-adv-x="388" 
d="M76 606v94h94v-94h-94zM219 606v94h94v-94h-94zM285 500h67v-500h-67l-11 51q-34 -59 -108 -59q-26 0 -48.5 9t-42.5 28.5t-31.5 55t-11.5 83.5v165q0 48 11.5 83.5t31.5 55t42.5 28.5t48.5 9q73 0 107 -57zM126 286v-71q0 -78 16.5 -108t50 -30t49.5 30t16 108v71
q0 78 -17 108t-49 30q-33 0 -49.5 -30t-16.5 -108z" />
    <glyph glyph-name="aring" unicode="&#xe5;" horiz-adv-x="388" 
d="M194 741q44 0 75.5 -31t31.5 -75t-31.5 -75.5t-75.5 -31.5t-75 31t-31 76q0 44 31 75t75 31zM194 674q-16 0 -27.5 -11.5t-11.5 -27.5q0 -17 11.5 -28.5t27.5 -11.5q17 0 28.5 11.5t11.5 28.5q0 16 -11.5 27.5t-28.5 11.5zM285 500h67v-500h-67l-11 51q-34 -59 -108 -59
q-26 0 -48.5 9t-42.5 28.5t-31.5 55t-11.5 83.5v165q0 48 11.5 83.5t31.5 55t42.5 28.5t48.5 9q73 0 107 -57zM126 286v-71q0 -78 16.5 -108t50 -30t49.5 30t16 108v71q0 78 -17 108t-49 30q-33 0 -49.5 -30t-16.5 -108z" />
    <glyph glyph-name="ae" unicode="&#xe6;" horiz-adv-x="643" 
d="M32 168v165q0 48 11.5 84t31.5 55t42.5 28t48.5 9q73 0 107 -57l12 48h67v-34q35 43 100 43q30 0 56.5 -9t50.5 -28t38.5 -55t14.5 -84v-118h-225v-30q0 -60 17 -84t49 -24q62 0 65 88h94q-1 -48 -15 -83t-38 -54t-50.5 -27.5t-56.5 -8.5q-65 0 -100 43v-35h-67l-11 51
q-34 -59 -108 -59q-26 0 -48.5 9t-42.5 28.5t-31.5 55t-11.5 83.5zM257 215v71q0 78 -16.5 108t-48.5 30q-33 0 -50 -30t-17 -108v-71q1 -78 17.5 -108t50 -30t49.5 30t15 108zM518 285v37q-1 101 -66 102q-31 0 -48 -22.5t-18 -79.5v-37h132z" />
    <glyph glyph-name="ccedilla" unicode="&#xe7;" horiz-adv-x="379" 
d="M32 168v165q0 48 14 83.5t37.5 55t50.5 28.5t57 9t56 -8.5t49.5 -27t37.5 -53t15 -81.5v-23h-92q-1 108 -66 108q-33 0 -49 -30t-16 -108v-71q0 -78 16 -108t50 -30q31 0 48 24t18 84h91v-22q-2 -120 -88 -157v-40q0 -75 -26.5 -107t-96.5 -33h-19v69h18q27 2 37 17.5
t10 50.5v33q-11 -1 -27 1q-54 9 -89.5 50t-35.5 121z" />
    <glyph glyph-name="egrave" unicode="&#xe8;" horiz-adv-x="381" 
d="M108 714h109l57 -151h-75zM32 168v165q0 48 14 83.5t37.5 55t50.5 28.5t57 9t56.5 -9t50.5 -28t38.5 -55t14.5 -84v-118h-225v-30q0 -60 17 -84t49 -24q62 0 65 88h94q-1 -48 -15 -83t-38 -54t-50.5 -27.5t-56.5 -8.5t-57 9t-50.5 28.5t-37.5 55t-14 83.5zM257 285v37
q-1 102 -66 102q-31 0 -48 -23t-18 -79v-37h132z" />
    <glyph glyph-name="eacute" unicode="&#xe9;" horiz-adv-x="381" 
d="M164 712h110l-92 -150h-74zM32 168v165q0 48 14 83.5t37.5 55t50.5 28.5t57 9t56.5 -9t50.5 -28t38.5 -55t14.5 -84v-118h-225v-30q0 -60 17 -84t49 -24q62 0 65 88h94q-1 -48 -15 -83t-38 -54t-50.5 -27.5t-56.5 -8.5t-57 9t-50.5 28.5t-37.5 55t-14 83.5zM257 285v37
q-1 102 -66 102q-31 0 -48 -23t-18 -79v-37h132z" />
    <glyph glyph-name="ecircumflex" unicode="&#xea;" horiz-adv-x="381" 
d="M140 704h101l87 -148h-71l-66 72l-67 -72h-71zM32 168v165q0 48 14 83.5t37.5 55t50.5 28.5t57 9t56.5 -9t50.5 -28t38.5 -55t14.5 -84v-118h-225v-30q0 -60 17 -84t49 -24q62 0 65 88h94q-1 -48 -15 -83t-38 -54t-50.5 -27.5t-56.5 -8.5t-57 9t-50.5 28.5t-37.5 55
t-14 83.5zM257 285v37q-1 102 -66 102q-31 0 -48 -23t-18 -79v-37h132z" />
    <glyph glyph-name="edieresis" unicode="&#xeb;" horiz-adv-x="381" 
d="M72 606v94h95v-94h-95zM215 606v94h95v-94h-95zM32 168v165q0 48 14 83.5t37.5 55t50.5 28.5t57 9t56.5 -9t50.5 -28t38.5 -55t14.5 -84v-118h-225v-30q0 -60 17 -84t49 -24q62 0 65 88h94q-1 -48 -15 -83t-38 -54t-50.5 -27.5t-56.5 -8.5t-57 9t-50.5 28.5t-37.5 55
t-14 83.5zM257 285v37q-1 102 -66 102q-31 0 -48 -23t-18 -79v-37h132z" />
    <glyph glyph-name="igrave" unicode="&#xec;" horiz-adv-x="253" 
d="M48 714h109l57 -151h-75zM105 0v500h94v-500h-94z" />
    <glyph glyph-name="iacute" unicode="&#xed;" horiz-adv-x="248" 
d="M93 712h109l-91 -150h-75zM55 0v500h93v-500h-93z" />
    <glyph glyph-name="icircumflex" unicode="&#xee;" horiz-adv-x="282" 
d="M90 704h102l87 -148h-71l-67 72l-66 -72h-71zM96 0v500h94v-500h-94z" />
    <glyph glyph-name="idieresis" unicode="&#xef;" horiz-adv-x="304" 
d="M33 606v94h95v-94h-95zM176 606v94h95v-94h-95zM109 0v500h94v-500h-94z" />
    <glyph glyph-name="eth" unicode="&#xf0;" horiz-adv-x="463" 
d="M414 628l-72 -43q9 -21 9 -50v-367q0 -47 -14.5 -82.5t-38 -55t-50 -29t-56.5 -9.5t-57 9t-51 28t-38 55t-14 84v165q0 48 14 84t38 55t51 28t57 9q43 0 66 -37v52q-1 55 -18 77.5t-48 22.5q-49 0 -61 -66h-93l1 10q4 39 19 67t37 43.5t46 23t51 7.5q72 0 115 -46l63 37z
M258 215v71q0 76 -17 107t-49 31t-49 -30.5t-17 -107.5v-71q-1 -78 15.5 -108t49.5 -30q34 0 50 30t17 108z" />
    <glyph glyph-name="ntilde" unicode="&#xf1;" horiz-adv-x="391" 
d="M273 704h70q0 -141 -84 -141q-18 0 -33 7t-39 27q-22 20 -43 19q-26 -1 -26 -53h-69q0 141 83 141q19 0 33.5 -8t38.5 -27q25 -23 47 -17q12 1 17 13.5t5 38.5zM104 500l13 -51q35 60 109 60q55 0 93 -41.5t38 -134.5v-333h-94v286q0 78 -16.5 108t-49.5 30
q-31 0 -48.5 -25t-17.5 -88v-311h-94v500h67z" />
    <glyph glyph-name="ograve" unicode="&#xf2;" horiz-adv-x="383" 
d="M109 714h109l57 -151h-75zM32 168v165q0 48 14 83.5t37.5 55t50.5 28.5t57 9t57 -9t51 -28t38 -55t14 -84v-165q0 -48 -14 -84t-38 -55t-51 -28t-57 -9t-57 9t-50.5 28.5t-37.5 55t-14 83.5zM258 215v71q0 77 -17.5 107.5t-49.5 30.5q-33 0 -49 -30t-16 -108v-71
q0 -78 16 -108t50 -30q33 0 49.5 30t16.5 108z" />
    <glyph glyph-name="oacute" unicode="&#xf3;" horiz-adv-x="383" 
d="M166 712h109l-91 -150h-75zM32 168v165q0 48 14 83.5t37.5 55t50.5 28.5t57 9t57 -9t51 -28t38 -55t14 -84v-165q0 -48 -14 -84t-38 -55t-51 -28t-57 -9t-57 9t-50.5 28.5t-37.5 55t-14 83.5zM258 215v71q0 77 -17.5 107.5t-49.5 30.5q-33 0 -49 -30t-16 -108v-71
q0 -78 16 -108t50 -30q33 0 49.5 30t16.5 108z" />
    <glyph glyph-name="ocircumflex" unicode="&#xf4;" horiz-adv-x="383" 
d="M141 704h102l87 -148h-72l-66 72l-66 -72h-72zM32 168v165q0 48 14 83.5t37.5 55t50.5 28.5t57 9t57 -9t51 -28t38 -55t14 -84v-165q0 -48 -14 -84t-38 -55t-51 -28t-57 -9t-57 9t-50.5 28.5t-37.5 55t-14 83.5zM258 215v71q0 77 -17.5 107.5t-49.5 30.5q-33 0 -49 -30
t-16 -108v-71q0 -78 16 -108t50 -30q33 0 49.5 30t16.5 108z" />
    <glyph glyph-name="otilde" unicode="&#xf5;" horiz-adv-x="383" 
d="M270 704h69q0 -141 -83 -141q-18 0 -33 7t-39 27q-22 20 -43 19q-26 -1 -26 -53h-70q0 141 84 141q19 0 33.5 -8t38.5 -27q25 -23 46 -17q13 1 18 13.5t5 38.5zM32 168v165q0 48 14 83.5t37.5 55t50.5 28.5t57 9t57 -9t51 -28t38 -55t14 -84v-165q0 -48 -14 -84t-38 -55
t-51 -28t-57 -9t-57 9t-50.5 28.5t-37.5 55t-14 83.5zM258 215v71q0 78 -17.5 108t-49.5 30q-33 0 -49 -30t-16 -108v-71q0 -78 16 -108t50 -30q33 0 49.5 30.5t16.5 107.5z" />
    <glyph glyph-name="odieresis" unicode="&#xf6;" horiz-adv-x="383" 
d="M73 606v94h95v-94h-95zM216 606v94h95v-94h-95zM32 168v165q0 48 14 83.5t37.5 55t50.5 28.5t57 9t57 -9t51 -28t38 -55t14 -84v-165q0 -48 -14 -84t-38 -55t-51 -28t-57 -9t-57 9t-50.5 28.5t-37.5 55t-14 83.5zM258 215v71q0 77 -17.5 107.5t-49.5 30.5q-33 0 -49 -30
t-16 -108v-71q0 -78 16 -108t50 -30q33 0 49.5 30t16.5 108z" />
    <glyph glyph-name="divide" unicode="&#xf7;" horiz-adv-x="556" 
d="M224 392v101h103v-101h-103zM50 317h456v-108h-456v108zM224 32v101h104v-101h-104z" />
    <glyph glyph-name="oslash" unicode="&#xf8;" horiz-adv-x="414" 
d="M350 550l-29 -80q50 -46 50 -137v-165q0 -48 -14 -84t-38 -55t-51 -28t-57 -9q-33 0 -62 11l-20 -53h-54l29 79q-52 46 -52 139v165q0 48 14 83.5t37.5 55t50.5 28.5t57 9q35 0 65 -11l19 52h55zM145 286v-71q0 -37 4 -63l96 261q-14 11 -34 11q-33 0 -49.5 -30
t-16.5 -108zM274 343l-95 -257q13 -9 32 -9q34 0 50.5 30.5t16.5 107.5v71q0 33 -4 57z" />
    <glyph glyph-name="ugrave" unicode="&#xf9;" horiz-adv-x="387" 
d="M111 714h109l57 -151h-74zM260 500h94v-500h-67l-13 51q-35 -60 -109 -60q-55 0 -93 41.5t-38 134.5v333h94v-286q0 -78 16.5 -108t49.5 -30q31 0 48.5 25t17.5 88v311z" />
    <glyph glyph-name="uacute" unicode="&#xfa;" horiz-adv-x="387" 
d="M168 712h109l-91 -150h-75zM260 500h94v-500h-67l-13 51q-35 -60 -109 -60q-55 0 -93 41.5t-38 134.5v333h94v-286q0 -78 16.5 -108t49.5 -30q31 0 48.5 25t17.5 88v311z" />
    <glyph glyph-name="ucircumflex" unicode="&#xfb;" horiz-adv-x="387" 
d="M143 704h102l87 -148h-72l-66 72l-66 -72h-71zM260 500h94v-500h-67l-13 51q-35 -60 -109 -60q-55 0 -93 41.5t-38 134.5v333h94v-286q0 -78 16.5 -108t49.5 -30q31 0 48.5 25t17.5 88v311z" />
    <glyph glyph-name="udieresis" unicode="&#xfc;" horiz-adv-x="387" 
d="M75 606v94h95v-94h-95zM218 606v94h95v-94h-95zM260 500h94v-500h-67l-13 51q-35 -60 -109 -60q-55 0 -93 41.5t-38 134.5v333h94v-286q0 -78 16.5 -108t49.5 -30q31 0 48.5 25t17.5 88v311z" />
    <glyph glyph-name="yacute" unicode="&#xfd;" horiz-adv-x="376" 
d="M162 712h109l-91 -150h-75zM254 500l94 1v-504q-1 -46 -15.5 -80.5t-38 -53t-50 -27t-55.5 -8.5q-56 0 -99.5 30t-55.5 96h95q14 -41 59 -41q31 0 48.5 22t17.5 75v38q-31 -48 -95 -48q-55 0 -93 41.5t-38 134.5v324h94v-277q0 -78 16.5 -108t49.5 -30q32 0 49 30t17 108
v277z" />
    <glyph glyph-name="thorn" unicode="&#xfe;" horiz-adv-x="388" 
d="M131 700v-239q31 47 95 47q55 0 93 -41.5t38 -134.5v-165q0 -92 -38 -133.5t-93 -41.5q-64 0 -95 46v-201h-94v863h94zM263 214v72q0 77 -16.5 107.5t-50 30.5t-49.5 -30.5t-16 -107.5v-72q0 -77 17 -107.5t49 -30.5t49 30.5t17 107.5z" />
    <glyph glyph-name="ydieresis" unicode="&#xff;" horiz-adv-x="376" 
d="M69 606v94h95v-94h-95zM212 606v94h95v-94h-95zM254 500l94 1v-504q-1 -46 -15.5 -80.5t-38 -53t-50 -27t-55.5 -8.5q-56 0 -99.5 30t-55.5 96h95q14 -41 59 -41q31 0 48.5 22t17.5 75v38q-31 -48 -95 -48q-55 0 -93 41.5t-38 134.5v324h94v-277q0 -78 16.5 -108
t49.5 -30q32 0 49 30t17 108v277z" />
    <glyph glyph-name="Amacron" unicode="&#x100;" horiz-adv-x="518" 
d="M121 900h278v-84h-278v84zM188 700h141l154 -700h-111l-40 174h-146l-41 -174h-111zM319 286l-60 286l-61 -286h121z" />
    <glyph glyph-name="amacron" unicode="&#x101;" horiz-adv-x="388" 
d="M56 700h278v-84h-278v84zM285 500h67v-500h-67l-11 51q-34 -59 -108 -59q-26 0 -48.5 9t-42.5 28.5t-31.5 55t-11.5 83.5v165q0 48 11.5 83.5t31.5 55t42.5 28.5t48.5 9q73 0 107 -57zM126 286v-71q0 -78 16.5 -108t50 -30t49.5 30t16 108v71q0 78 -17 108t-49 30
q-33 0 -49.5 -30t-16.5 -108z" />
    <glyph glyph-name="Abreve" unicode="&#x102;" horiz-adv-x="518" 
d="M312 900h80q-4 -51 -42.5 -86t-90.5 -35t-90 35t-42 86h80q4 -18 19 -29.5t33 -11.5q19 0 33.5 11.5t19.5 29.5zM188 700h141l154 -700h-111l-40 174h-146l-41 -174h-111zM319 286l-60 286l-61 -286h121z" />
    <glyph glyph-name="abreve" unicode="&#x103;" horiz-adv-x="388" 
d="M246 700h81q-4 -51 -42.5 -86t-90.5 -35t-90 35t-42 86h80q4 -18 19 -29.5t33 -11.5q19 0 33.5 11.5t18.5 29.5zM32 168v165q0 48 11.5 83.5t31.5 55t42.5 28.5t48.5 9q73 0 107 -57l12 48h67v-500h-67l-11 51q-34 -59 -108 -59q-26 0 -48.5 9t-42.5 28.5t-31.5 55
t-11.5 83.5zM257 215v71q0 78 -16.5 108t-48.5 30q-33 0 -49.5 -30t-16.5 -108v-71q0 -78 16.5 -108t50 -30t49.5 30t15 108z" />
    <glyph glyph-name="Aogonek" unicode="&#x104;" horiz-adv-x="518" 
d="M188 700h141l154 -700q-15 -15 -22 -23.5t-15 -23t-7 -28.5q2 -27 38 -29l14 -1v-68h-29q-101 6 -101 80q0 9 2 18t6 17.5t7 14.5t9.5 13.5t9.5 11t10 10.5l8 8h-41l-40 174h-146l-41 -174h-111zM319 286l-60 286l-61 -286h121z" />
    <glyph glyph-name="aogonek" unicode="&#x105;" horiz-adv-x="388" 
d="M32 168v165q0 48 11.5 83.5t31.5 55t42.5 28.5t48.5 9q73 0 107 -57l12 48h66v-500q-14 -14 -22 -24t-15 -24.5t-5 -27.5q3 -28 41 -29h10v-69h-10q-115 1 -119 73q-1 22 9.5 44t20 32t24.5 25l-11 51q-34 -59 -108 -59q-26 0 -48.5 9t-42.5 28.5t-31.5 55t-11.5 83.5z
M258 215v71q0 78 -17 108t-49 30q-33 0 -49.5 -30t-16.5 -108v-71q0 -78 16.5 -108t50 -30t49.5 30t16 108z" />
    <glyph glyph-name="Cacute" unicode="&#x106;" horiz-adv-x="473" 
d="M211 912h109l-92 -150h-74zM45 234v233q0 66 17.5 115t47.5 75.5t65 39t75 12.5q38 0 71.5 -11.5t63 -37t47 -72.5t18.5 -111v-20h-111v17q-6 127 -89 127q-91 0 -91 -141v-218q0 -142 91 -142q82 0 89 126v19h111v-20q-1 -64 -18.5 -111t-47 -73t-63 -37.5t-71.5 -11.5
q-40 0 -75 12.5t-65 39t-47.5 75.5t-17.5 115z" />
    <glyph glyph-name="cacute" unicode="&#x107;" horiz-adv-x="379" 
d="M164 712h109l-91 -150h-75zM32 168v165q0 48 14 83.5t37.5 55t50.5 28.5t57 9t56 -8.5t49.5 -27t37.5 -53.5t15 -81v-23h-92q-1 108 -66 108q-33 0 -49 -30t-16 -108v-71q0 -78 16 -108t50 -30q31 0 48 24t18 84h91v-22q-1 -47 -15 -81.5t-37.5 -53.5t-49.5 -27.5
t-56 -8.5t-57 9t-50.5 28.5t-37.5 55t-14 83.5z" />
    <glyph glyph-name="Cdotaccent" unicode="&#x10a;" horiz-adv-x="473" 
d="M189 900h95v-93h-95v93zM45 234v233q0 66 17.5 115t47.5 75.5t65 39t75 12.5q38 0 71.5 -11.5t63 -37t47 -72.5t18.5 -111v-20h-111v17q-6 127 -89 127q-91 0 -91 -141v-218q0 -142 91 -142q82 0 89 126v19h111v-20q-1 -64 -18.5 -111t-47 -73t-63 -37.5t-71.5 -11.5
q-40 0 -75 12.5t-65 39t-47.5 75.5t-17.5 115z" />
    <glyph glyph-name="cdotaccent" unicode="&#x10b;" horiz-adv-x="379" 
d="M143 700h95v-93h-95v93zM32 168v165q0 48 14 83.5t37.5 55t50.5 28.5t57 9t56 -8.5t49.5 -27t37.5 -53.5t15 -81v-23h-92q-1 108 -66 108q-33 0 -49 -30t-16 -108v-71q0 -78 16 -108t50 -30q31 0 48 24t18 84h91v-22q-1 -47 -15 -81.5t-37.5 -53.5t-49.5 -27.5t-56 -8.5
t-57 9t-50.5 28.5t-37.5 55t-14 83.5z" />
    <glyph glyph-name="Ccaron" unicode="&#x10c;" horiz-adv-x="473" 
d="M303 904h71l-86 -148h-102l-87 148h71l67 -72zM45 234v233q0 66 17.5 115t47.5 75.5t65 39t75 12.5q38 0 71.5 -11.5t63 -37t47 -72.5t18.5 -111v-20h-111v17q-6 127 -89 127q-91 0 -91 -141v-218q0 -142 91 -142q82 0 89 126v19h111v-20q-1 -64 -18.5 -111t-47 -73
t-63 -37.5t-71.5 -11.5q-40 0 -75 12.5t-65 39t-47.5 75.5t-17.5 115z" />
    <glyph glyph-name="ccaron" unicode="&#x10d;" horiz-adv-x="379" 
d="M256 704h71l-86 -148h-102l-87 148h72l66 -72zM32 168v165q0 48 14 83.5t37.5 55t50.5 28.5t57 9t56 -8.5t49.5 -27t37.5 -53t15 -81.5v-23h-92q-1 108 -66 108q-33 0 -49 -30t-16 -108v-71q0 -78 16 -108t50 -30q31 0 48 24t18 84h91v-22q-1 -47 -15 -81.5t-37.5 -53.5
t-49.5 -27.5t-56 -8.5t-57 9t-50.5 28.5t-37.5 55t-14 83.5z" />
    <glyph glyph-name="Dcaron" unicode="&#x10e;" horiz-adv-x="480" 
d="M291 756h-101l-87 148h71l67 -72l66 72h71zM46 700h189q39 0 73 -11.5t64.5 -37t48 -75t17.5 -118.5v-216q0 -69 -17.5 -118.5t-48 -75t-64.5 -37t-73 -11.5h-189v700zM327 250v201q0 73 -25.5 107t-66.5 34h-78v-484h78q41 0 66.5 34t25.5 108z" />
    <glyph glyph-name="dcaron" unicode="&#x10f;" horiz-adv-x="531" 
d="M258 462v238h94v-700h-67l-12 52q-35 -60 -110 -60q-55 0 -93 41.5t-38 134.5v165q0 93 38 134.5t93 41.5q64 0 95 -47zM392 700h104v-102l-39 -102h-39l18 102h-44v102zM126 286v-71q0 -78 16.5 -108t50 -30t49.5 30t16 108v71q0 78 -17 108t-49 30q-33 0 -49.5 -30
t-16.5 -108z" />
    <glyph glyph-name="Dcroat" unicode="&#x110;" horiz-adv-x="480" 
d="M52 700h189q39 0 73 -11.5t64.5 -37t48 -75t17.5 -118.5v-216q0 -69 -17.5 -118.5t-48 -75t-64.5 -37t-73 -11.5h-189v301h-47v85h47v314zM333 250v201q0 73 -25.5 107t-66.5 34h-78v-206h75v-85h-75v-193h78q41 0 66.5 34t25.5 108z" />
    <glyph glyph-name="dcroat" unicode="&#x111;" horiz-adv-x="414" 
d="M418 650v-84h-66v-566h-67l-12 52q-35 -60 -110 -60q-55 0 -93 41.5t-38 134.5v165q0 93 38 134.5t93 41.5q64 0 95 -47v104h-75v84h75v50h94v-50h66zM126 286v-71q0 -78 16.5 -108t50 -30t49.5 30t16 108v71q0 78 -17 108t-49 30q-33 0 -49.5 -30t-16.5 -108z" />
    <glyph glyph-name="Emacron" unicode="&#x112;" horiz-adv-x="372" 
d="M48 900h278v-84h-278v84zM46 700h303v-108h-192v-182h182v-108h-182v-194h192v-108h-303v700z" />
    <glyph glyph-name="emacron" unicode="&#x113;" horiz-adv-x="381" 
d="M52 700h278v-84h-278v84zM32 168v165q0 48 14 83.5t37.5 55t50.5 28.5t57 9t56.5 -9t50.5 -28t38.5 -55t14.5 -84v-118h-225v-30q0 -60 17 -84t49 -24q62 0 65 88h94q-1 -48 -15 -83t-38 -54t-50.5 -27.5t-56.5 -8.5t-57 9t-50.5 28.5t-37.5 55t-14 83.5zM257 285v37
q-1 102 -66 102q-31 0 -48 -23t-18 -79v-37h132z" />
    <glyph glyph-name="Edotaccent" unicode="&#x116;" horiz-adv-x="372" 
d="M139 900h95v-93h-95v93zM46 700h303v-108h-192v-182h182v-108h-182v-194h192v-108h-303v700z" />
    <glyph glyph-name="edotaccent" unicode="&#x117;" horiz-adv-x="381" 
d="M143 607v93h95v-93h-95zM32 168v165q0 48 14 83.5t37.5 55t50.5 28.5t57 9t56.5 -9t50.5 -28t38.5 -55t14.5 -84v-118h-225v-30q0 -60 17 -84t49 -24q62 0 65 88h94q-1 -48 -15 -83t-38 -54t-50.5 -27.5t-56.5 -8.5t-57 9t-50.5 28.5t-37.5 55t-14 83.5zM257 285v37
q-1 102 -66 102q-31 0 -48 -23t-18 -79v-37h132z" />
    <glyph glyph-name="Eogonek" unicode="&#x118;" horiz-adv-x="372" 
d="M46 700h303v-108h-192v-182h182v-108h-182v-194h192v-108h-36q-14 -15 -21.5 -23.5t-14.5 -22.5t-6 -27q1 -29 39 -30h12v-69h-13q-109 1 -116 70q-2 22 8 44t18 32.5t23 25.5h-196v700z" />
    <glyph glyph-name="eogonek" unicode="&#x119;" horiz-adv-x="381" 
d="M32 168v165q0 48 14 83.5t37.5 55t50.5 28.5t57 9t56.5 -9t50.5 -28t38.5 -55t14.5 -84v-118h-225v-30q0 -60 17 -84t49 -24q62 0 65 88h94q-1 -107 -71 -149l-6 -3q-13 -12 -20 -19.5t-14 -20.5t-6 -25q1 -29 39 -31h13v-69h-14q-109 2 -116 71q-2 34 34 74
q-10 -1 -21 1q-59 7 -98 48.5t-39 125.5zM257 285v37q-1 102 -66 102q-31 0 -48 -23t-18 -79v-37h132z" />
    <glyph glyph-name="Ecaron" unicode="&#x11a;" horiz-adv-x="372" 
d="M253 904h71l-87 -148h-101l-87 148h71l66 -72zM46 700h303v-108h-192v-182h182v-108h-182v-194h192v-108h-303v700z" />
    <glyph glyph-name="ecaron" unicode="&#x11b;" horiz-adv-x="381" 
d="M257 704h71l-87 -148h-101l-87 148h71l67 -72zM32 168v165q0 48 14 83.5t37.5 55t50.5 28.5t57 9t56.5 -9t50.5 -28t38.5 -55t14.5 -84v-118h-225v-30q0 -60 17 -84t49 -24q62 0 65 88h94q-1 -48 -15 -83t-38 -54t-50.5 -27.5t-56.5 -8.5t-57 9t-50.5 28.5t-37.5 55
t-14 83.5zM257 285v37q-1 102 -66 102q-31 0 -48 -23t-18 -79v-37h132z" />
    <glyph glyph-name="Gbreve" unicode="&#x11e;" horiz-adv-x="491" 
d="M298 900h80q-4 -51 -42 -86t-90 -35t-90 35t-43 86h81q4 -18 18.5 -29.5t33.5 -11.5t33.5 11.5t18.5 29.5zM45 234v233q0 67 17 115.5t46.5 75t64 39t74.5 12.5q39 0 72.5 -12t63 -38t46.5 -74t18 -114v-10h-108v7q-2 69 -27 101t-65 32q-91 0 -91 -141v-218
q0 -142 91 -142q41 0 66.5 32.5t25.5 105.5v45h-89v108h197v-157q0 -67 -17 -116t-46.5 -75.5t-63.5 -38.5t-73 -12q-40 0 -74.5 12.5t-64 39t-46.5 75t-17 115.5z" />
    <glyph glyph-name="gbreve" unicode="&#x11f;" horiz-adv-x="388" 
d="M246 700h81q-4 -51 -42.5 -86t-90.5 -35t-90 35t-42 86h80q4 -18 19 -29.5t33 -11.5q19 0 33.5 11.5t18.5 29.5zM32 176v157q0 93 38 134.5t93 41.5q75 0 110 -59l12 50h67v-498q0 -47 -14.5 -82.5t-38 -54.5t-50 -28t-56.5 -9q-56 0 -100 30t-55 96h95q14 -41 59 -41
q31 0 48.5 22t17.5 75v38q-31 -48 -95 -48q-55 0 -93 41.5t-38 134.5zM258 218v68q0 78 -16.5 108t-49.5 30t-49.5 -30t-16.5 -108v-68q0 -78 16.5 -108t49.5 -30q32 0 49 30.5t17 107.5z" />
    <glyph glyph-name="Gdotaccent" unicode="&#x120;" horiz-adv-x="491" 
d="M199 807v93h94v-93h-94zM45 234v233q0 67 17 115.5t46.5 75t64 39t74.5 12.5q39 0 72.5 -12t63 -38t46.5 -74t18 -114v-10h-108v7q-2 69 -27 101t-65 32q-91 0 -91 -141v-218q0 -142 91 -142q41 0 66.5 32.5t25.5 105.5v45h-89v108h198v-157q0 -67 -17.5 -116t-47 -75.5
t-63.5 -38.5t-73 -12q-40 0 -74.5 12.5t-64 39t-46.5 75t-17 115.5z" />
    <glyph glyph-name="gdotaccent" unicode="&#x121;" horiz-adv-x="388" 
d="M147 700h95v-93h-95v93zM32 176v157q0 93 38 134.5t93 41.5q75 0 110 -59l12 50h67v-498q0 -47 -14.5 -82.5t-38 -54.5t-50 -28t-56.5 -9q-56 0 -99.5 30t-55.5 96h95q14 -41 59 -41q31 0 48 21.5t18 73.5v40q-31 -48 -95 -48q-55 0 -93 41.5t-38 134.5zM258 218v68
q0 78 -16.5 108t-49.5 30t-49.5 -30t-16.5 -108v-68q0 -78 16.5 -108t49.5 -30q32 0 49 30.5t17 107.5z" />
    <glyph glyph-name="Gcommaaccent" unicode="&#x122;" horiz-adv-x="491" 
d="M45 234v233q0 67 17 115.5t46.5 75t64 39t74.5 12.5q39 0 72.5 -12t63 -38t46.5 -74t18 -114v-10h-108v7q-2 69 -27 101t-65 32q-91 0 -91 -141v-218q0 -142 91 -142q41 0 66.5 32.5t25.5 105.5v45h-89v108h197v-157q0 -67 -17 -116t-46.5 -75.5t-63.5 -38.5t-73 -12
q-40 0 -74.5 12.5t-64 39t-46.5 75t-17 115.5zM194 -58h104v-102l-39 -102h-39l18 102h-44v102z" />
    <glyph glyph-name="gcommaaccent" unicode="&#x123;" horiz-adv-x="387" 
d="M180 791h35l-16 -94h40v-93h-94v93zM32 176v157q0 93 38 134.5t93 41.5q75 0 110 -59l12 50h67v-498q0 -47 -14.5 -82.5t-38 -54.5t-50 -28t-56.5 -9q-56 0 -99.5 30t-55.5 96h95q14 -41 59 -41q66 0 66 96v39q-31 -48 -95 -48q-55 0 -93 41.5t-38 134.5zM258 218v68
q0 78 -16.5 108t-49.5 30t-49.5 -30t-16.5 -108v-68q0 -78 16.5 -108t49.5 -30q32 0 49 30.5t17 107.5z" />
    <glyph glyph-name="Hbar" unicode="&#x126;" horiz-adv-x="588" 
d="M562 597v-99h-76v-498h-111v302h-164v-302h-111v498h-76v99h76v103h111v-103h164v103h111v-103h76zM375 410v88h-164v-88h164z" />
    <glyph glyph-name="hbar" unicode="&#x127;" horiz-adv-x="434" 
d="M174 560v-100q32 49 95 49q55 0 93 -41.5t38 -134.5v-333h-93v286q0 78 -17 108t-50 30q-31 0 -48.5 -25t-17.5 -88v-311h-93v559h-86v85h86v56h93v-56h86v-84h-86z" />
    <glyph glyph-name="Imacron" unicode="&#x12a;" horiz-adv-x="206" 
d="M-36 900h278v-84h-278v84zM46 0v700h115v-700h-115z" />
    <glyph glyph-name="imacron" unicode="&#x12b;" horiz-adv-x="270" 
d="M-4 700h278v-84h-278v84zM90 0v500h94v-500h-94z" />
    <glyph glyph-name="Iogonek" unicode="&#x12e;" horiz-adv-x="206" 
d="M46 700h115v-700q-15 -14 -23 -23t-15.5 -23.5t-6.5 -27.5q2 -29 40 -31h12v-69h-13q-113 2 -116 74q-2 20 7 41t17.5 31t22.5 24l4 4h-44v700z" />
    <glyph glyph-name="iogonek" unicode="&#x12f;" horiz-adv-x="209" 
d="M54 607v93h94v-93h-94zM148 500v-500l-22.5 -22.5t-14.5 -21.5t-8 -28q1 -31 41 -33h11v-69h-14q-113 2 -116 77q0 8 1.5 16.5t3.5 15t6.5 14.5t7.5 13t9 12t8.5 9.5l9 9l7.5 7.5h-23v500h93z" />
    <glyph glyph-name="Idotaccent" unicode="&#x130;" horiz-adv-x="206" 
d="M56 807v93h95v-93h-95zM46 0v700h115v-700h-115z" />
    <glyph glyph-name="dotlessi" unicode="&#x131;" horiz-adv-x="203" 
d="M55 0v500h93v-500h-93z" />
    <glyph glyph-name="IJ" unicode="&#x132;" horiz-adv-x="528" 
d="M46 700h115v-700h-115v700zM372 700h111v-466q0 -65 -16.5 -113.5t-45.5 -75t-61.5 -39.5t-69.5 -14h-49v108h28q46 1 74.5 34.5t28.5 107.5v458z" />
    <glyph glyph-name="ij" unicode="&#x133;" horiz-adv-x="437" 
d="M39 668h103v-95h-103v95zM297 667h103v-94h-103v94zM44 500h94v-500h-94v500zM302 500h94v-497q0 -98 -36.5 -136.5t-101.5 -39.5h-41v84h13q42 1 57 24.5t15 93.5v471z" />
    <glyph glyph-name="Kcommaaccent" unicode="&#x136;" horiz-adv-x="502" 
d="M261 356l208 -356h-130l-178 302v-302h-115v700h115v-286l162 286h127zM200 -160v102h103v-102l-38 -102h-39l18 102h-44z" />
    <glyph glyph-name="kcommaaccent" unicode="&#x137;" horiz-adv-x="376" 
d="M214 257l134 -257h-97l-120 207v-207h-94v700h94v-393l112 193h98zM137 -160v102h103v-102l-38 -102h-39l17 102h-43z" />
    <glyph glyph-name="Lacute" unicode="&#x139;" horiz-adv-x="375" 
d="M162 912h109l-92 -150h-74zM46 700h111v-592h184v-108h-295v700z" />
    <glyph glyph-name="lacute" unicode="&#x13a;" horiz-adv-x="211" 
d="M84 901h109l-91 -150h-75zM39 0v700h94v-700h-94z" />
    <glyph glyph-name="Lcommaaccent" unicode="&#x13b;" horiz-adv-x="375" 
d="M157 108h184v-108h-295v700h111v-592zM136 -160v102h104v-102l-39 -102h-39l18 102h-44z" />
    <glyph glyph-name="lcommaaccent" unicode="&#x13c;" horiz-adv-x="167" 
d="M133 700v-700h-94v700h94zM32 -58h104v-102l-39 -102h-39l18 102h-44v102z" />
    <glyph glyph-name="Lcaron" unicode="&#x13d;" horiz-adv-x="452" 
d="M157 108h184v-108h-295v700h111v-592zM307 496l17 102h-43v102h103v-102l-38 -102h-39z" />
    <glyph glyph-name="lcaron" unicode="&#x13e;" horiz-adv-x="292" 
d="M39 0v700h94v-700h-94zM178 700h103v-102l-38 -102h-39l18 102h-44v102z" />
    <glyph glyph-name="Ldot" unicode="&#x13f;" horiz-adv-x="438" 
d="M157 108h184v-108h-295v700h111v-592zM285 310v77h80v-77h-80z" />
    <glyph glyph-name="ldot" unicode="&#x140;" horiz-adv-x="318" 
d="M39 0v700h94v-700h-94zM192 298v101h103v-101h-103z" />
    <glyph glyph-name="Lslash" unicode="&#x141;" horiz-adv-x="447" 
d="M209 108h204v-108h-315v318l-85 -42v110l85 42v272h111v-243l86 43v-110l-86 -43v-239z" />
    <glyph glyph-name="lslash" unicode="&#x142;" horiz-adv-x="318" 
d="M301 500v-110l-95 -44v-346h-94v320l-93 -44v110l93 44v270h94v-245z" />
    <glyph glyph-name="Nacute" unicode="&#x143;" horiz-adv-x="502" 
d="M226 912h109l-92 -150h-74zM352 700h107v-700h-109l-199 446v-446h-108v700h110l199 -446v446z" />
    <glyph glyph-name="nacute" unicode="&#x144;" horiz-adv-x="391" 
d="M169 712h110l-92 -150h-74zM104 500l13 -51q35 60 109 60q55 0 93 -41.5t38 -134.5v-333h-94v286q0 78 -16.5 108t-49.5 30q-31 0 -48.5 -25t-17.5 -88v-311h-94v500h67z" />
    <glyph glyph-name="Ncommaaccent" unicode="&#x145;" horiz-adv-x="502" 
d="M352 700h107v-700h-109l-199 446v-446h-108v700h110l199 -446v446zM200 -160v102h104v-102l-39 -102h-39l18 102h-44z" />
    <glyph glyph-name="ncommaaccent" unicode="&#x146;" horiz-adv-x="391" 
d="M104 500l13 -51q35 60 109 60q55 0 93 -41.5t38 -134.5v-333h-94v286q0 78 -16.5 108t-49.5 30q-31 0 -48.5 -25t-17.5 -88v-311h-94v500h67zM144 -160v102h103v-102l-38 -102h-39l18 102h-44z" />
    <glyph glyph-name="Ncaron" unicode="&#x147;" horiz-adv-x="502" 
d="M318 904h71l-86 -148h-102l-87 148h71l67 -72zM352 700h107v-700h-109l-199 446v-446h-108v700h110l199 -446v446z" />
    <glyph glyph-name="ncaron" unicode="&#x148;" horiz-adv-x="391" 
d="M262 704h71l-86 -148h-102l-87 148h71l67 -72zM104 500l13 -51q35 60 109 60q55 0 93 -41.5t38 -134.5v-333h-94v286q0 78 -16.5 108t-49.5 30q-31 0 -48.5 -25t-17.5 -88v-311h-94v500h67z" />
    <glyph glyph-name="Eng" unicode="&#x14a;" horiz-adv-x="600" 
d="M418 700h111v-673q0 -58 -12 -97.5t-34 -61.5t-50 -31t-65 -9h-41v105h21q37 0 51.5 15t16.5 62l-192 457v-467h-111v700h109l196 -467v467z" />
    <glyph glyph-name="eng" unicode="&#x14b;" horiz-adv-x="398" 
d="M106 500l14 -51q35 60 109 60q55 0 93 -41.5t38 -134.5v-330q0 -51 -10.5 -86.5t-30.5 -54.5t-43.5 -27t-56.5 -8h-38v84h12q42 1 57.5 21t15.5 84v286q0 68 -17 95t-49 27q-31 0 -48.5 -25t-17.5 -88v-311h-94v500h66z" />
    <glyph glyph-name="Omacron" unicode="&#x14c;" 
d="M108 900h277v-84h-277v84zM40 234v233q0 66 18 115t48 75.5t64.5 39t74.5 12.5t74.5 -12t65 -38.5t48.5 -75.5t18 -116v-233q0 -67 -18 -116t-48.5 -75.5t-65 -38.5t-74.5 -12t-74.5 12.5t-64.5 39t-48 75.5t-18 115zM337 242v218q0 73 -25 107t-67 34q-91 0 -91 -141
v-218q0 -142 91 -142q42 0 67 34t25 108z" />
    <glyph glyph-name="omacron" unicode="&#x14d;" horiz-adv-x="383" 
d="M53 700h278v-84h-278v84zM32 168v165q0 48 14 83.5t37.5 55t50.5 28.5t57 9t57 -9t51 -28t38 -55t14 -84v-165q0 -48 -14 -84t-38 -55t-51 -28t-57 -9t-57 9t-50.5 28.5t-37.5 55t-14 83.5zM258 215v71q0 77 -17.5 107.5t-49.5 30.5q-33 0 -49 -30t-16 -108v-71
q0 -78 16 -108t50 -30q33 0 49.5 30t16.5 108z" />
    <glyph glyph-name="Ohungarumlaut" unicode="&#x150;" 
d="M155 912h101l-91 -150h-67zM293 912h102l-92 -150h-66zM40 234v233q0 66 18 115t48 75.5t64.5 39t74.5 12.5t74.5 -12t65 -38.5t48.5 -75.5t18 -116v-233q0 -67 -18 -116t-48.5 -75.5t-65 -38.5t-74.5 -12t-74.5 12.5t-64.5 39t-48 75.5t-18 115zM337 242v218
q0 73 -25 107t-67 34q-91 0 -91 -141v-218q0 -142 91 -142q42 0 67 34t25 108z" />
    <glyph glyph-name="ohungarumlaut" unicode="&#x151;" horiz-adv-x="413" 
d="M122 712h101l-91 -150h-67zM260 712h101l-91 -150h-67zM32 168v165q0 48 14 83.5t37.5 55t50.5 28.5t57 9t57 -9t51 -28t38 -55t14 -84v-165q0 -48 -14 -84t-38 -55t-51 -28t-57 -9t-57 9t-50.5 28.5t-37.5 55t-14 83.5zM258 215v71q0 77 -17.5 107.5t-49.5 30.5
q-33 0 -49 -30t-16 -108v-71q0 -78 16 -108t50 -30q33 0 49.5 30t16.5 108z" />
    <glyph glyph-name="OE" unicode="&#x152;" horiz-adv-x="714" 
d="M32 234v233q0 66 17.5 115t47.5 75.5t65 39t75 12.5q84 0 125 -60v51h303v-108h-192v-182h182v-108h-182v-194h192v-108h-303v52q-40 -60 -125 -60q-40 0 -75 12.5t-65 39t-47.5 75.5t-17.5 115zM329 242v218q0 73 -25.5 107t-66.5 34q-91 0 -91 -141v-218
q0 -142 91 -142q41 0 66.5 34t25.5 108z" />
    <glyph glyph-name="oe" unicode="&#x153;" horiz-adv-x="670" 
d="M57 168v165q0 48 12 83.5t31.5 55t42.5 28.5t48 9q87 0 120 -74q39 74 132 74q30 0 56.5 -9t50.5 -28t38 -55t14 -84v-118h-225v-32q0 -59 17 -82.5t50 -23.5q62 0 65 88h93q0 -48 -14.5 -83t-38 -54t-50.5 -27.5t-56 -8.5q-93 0 -132 74q-33 -74 -120 -74q-25 0 -47.5 9
t-42.5 28.5t-32 55t-12 83.5zM283 215v71q0 77 -17 107.5t-49 30.5q-33 0 -49.5 -30t-16.5 -108v-71q0 -78 16 -108t50 -30q33 0 49.5 30t16.5 108zM508 300v38q-2 86 -65 86q-64 0 -66 -86v-38h131z" />
    <glyph glyph-name="Racute" unicode="&#x154;" horiz-adv-x="475" 
d="M212 912h109l-91 -150h-75zM46 700h163q42 0 79 -9.5t70 -30t52.5 -59t19.5 -91.5v-38q0 -108 -96 -151l107 -321h-117l-95 266l-72 6v-272h-111v700zM321 487v8q0 53 -27 75.5t-68 22.5h-69v-203h69q40 0 67.5 22.5t27.5 74.5z" />
    <glyph glyph-name="racute" unicode="&#x155;" horiz-adv-x="274" 
d="M111 712h109l-91 -150h-75zM104 500l16 -64q21 35 54.5 54t71.5 19v-84q-114 0 -115 -140v-285h-94v500h67z" />
    <glyph glyph-name="Rcommaaccent" unicode="&#x156;" horiz-adv-x="475" 
d="M46 700h163q42 0 79 -9.5t70 -30t52.5 -59t19.5 -91.5v-38q0 -108 -96 -151l107 -321h-117l-95 266l-72 6v-272h-111v700zM321 487v8q0 53 -27 75.5t-68 22.5h-69v-203h69q40 0 67.5 22.5t27.5 74.5zM187 -58h103v-102l-38 -102h-39l17 102h-43v102z" />
    <glyph glyph-name="rcommaaccent" unicode="&#x157;" horiz-adv-x="274" 
d="M104 500l16 -64q21 35 54.5 54t71.5 19v-84q-114 0 -115 -140v-285h-94v500h67zM88 -160v102h103v-102l-38 -102h-39l18 102h-44z" />
    <glyph glyph-name="Rcaron" unicode="&#x158;" horiz-adv-x="475" 
d="M305 904h71l-87 -148h-102l-86 148h71l66 -72zM46 700h163q42 0 79 -9.5t70 -30t52.5 -59t19.5 -91.5v-38q0 -108 -96 -151l107 -321h-117l-95 266l-72 6v-272h-111v700zM321 487v8q0 53 -27 75.5t-68 22.5h-69v-203h69q40 0 67.5 22.5t27.5 74.5z" />
    <glyph glyph-name="rcaron" unicode="&#x159;" horiz-adv-x="274" 
d="M203 704h72l-87 -148h-102l-87 148h72l66 -72zM104 500l16 -64q21 35 54.5 54t71.5 19v-84q-114 0 -115 -140v-285h-94v500h67z" />
    <glyph glyph-name="Sacute" unicode="&#x15a;" horiz-adv-x="475" 
d="M211 912h110l-92 -150h-74zM32 217h107q0 -59 28 -88t69 -29q47 0 72 26t25 73q0 50 -27.5 72.5t-91.5 37.5q-24 5 -43 11.5t-43.5 21.5t-41 34t-28 51.5t-11.5 72.5q0 57 16.5 99t45 65t61.5 34t71 11t70.5 -11.5t61 -36.5t45.5 -70.5t17 -107.5h-107q0 58 -24.5 88
t-62 30t-60.5 -25t-23 -69q0 -20 7 -36t16 -25t25.5 -16t26.5 -9.5t28 -6.5q4 -1 6 -1q177 -38 177 -203q0 -60 -16.5 -103.5t-46.5 -68t-65.5 -35.5t-79.5 -11q-39 0 -73.5 11.5t-64.5 36.5t-48 70.5t-18 106.5z" />
    <glyph glyph-name="sacute" unicode="&#x15b;" horiz-adv-x="369" 
d="M158 712h110l-92 -150h-74zM119 155v-12q1 -34 20 -50t46 -16q65 0 65 63q0 39 -21 57.5t-65 28.5q-55 10 -92.5 44t-37.5 95q0 72 42.5 108t108.5 36q64 0 108 -38.5t45 -109.5v-9h-93v8q-2 33 -18.5 48.5t-40.5 15.5q-59 0 -59 -54q1 -47 67 -64q83 -18 116.5 -59
t33.5 -102q0 -77 -44 -115t-115 -38q-64 0 -111.5 39t-48.5 110v14h94z" />
    <glyph glyph-name="Scedilla" unicode="&#x15e;" horiz-adv-x="475" 
d="M32 217h107q0 -59 28 -88t69 -29q47 0 72 26t25 73q0 50 -27.5 72.5t-91.5 37.5q-24 5 -43 11.5t-43.5 21.5t-41 34t-28 51.5t-11.5 72.5q0 57 16.5 99t45 65t61.5 34t71 11t70.5 -11.5t61 -36.5t45.5 -71t17 -107h-107q0 58 -24.5 88t-62 30t-60.5 -25t-23 -69
q0 -20 7 -36t16 -25t25.5 -16t26.5 -9.5t28 -6.5q4 -1 6 -1q177 -38 177 -203q0 -171 -135 -208v-41q-2 -72 -28.5 -102.5t-94.5 -32.5h-19v69l19 1q25 1 35 16t11 49v33q-17 0 -26 1q-34 4 -63.5 17.5t-55 39t-40.5 68t-15 97.5z" />
    <glyph glyph-name="scedilla" unicode="&#x15f;" horiz-adv-x="369" 
d="M119 155v-12q1 -35 20 -50.5t46 -15.5q65 0 65 63q0 39 -21 57.5t-65 28.5q-55 10 -92.5 44t-37.5 95q0 72 42.5 108t108.5 36q63 0 107 -38.5t46 -107.5v-11h-93v9q-2 33 -19 48t-40 15q-59 0 -59 -54q1 -47 67 -64q83 -18 116.5 -59t33.5 -102q0 -108 -88 -141v-40
q-1 -74 -27.5 -105t-95.5 -33h-19v69h17q27 2 37.5 17t10.5 49v35q-12 -1 -28 1q-52 9 -88.5 45.5t-37.5 98.5v14h94z" />
    <glyph glyph-name="Scaron" unicode="&#x160;" horiz-adv-x="475" 
d="M304 904h71l-87 -148h-101l-87 148h71l67 -72zM32 217h107q0 -59 28 -88t69 -29q47 0 72 26t25 73q0 50 -27.5 72.5t-91.5 37.5q-24 5 -43 11.5t-43.5 21.5t-41 34t-28 51.5t-11.5 72.5q0 57 16.5 99t45 65t61.5 34t71 11t70.5 -11.5t61 -36.5t45.5 -70.5t17 -107.5h-107
q0 58 -24.5 88t-62 30t-60.5 -25t-23 -69q0 -20 7 -36t16 -24.5t25.5 -16t26.5 -10t27 -6.5q5 -1 7 -1q177 -38 177 -203q0 -60 -16.5 -103.5t-46.5 -68t-65.5 -35.5t-79.5 -11q-39 0 -73.5 11.5t-64.5 36.5t-48 70.5t-18 106.5z" />
    <glyph glyph-name="scaron" unicode="&#x161;" horiz-adv-x="369" 
d="M251 704h71l-86 -148h-102l-87 148h71l67 -72zM119 155v-12q1 -34 20 -50t46 -16q65 0 65 63q0 39 -21 57.5t-65 28.5q-55 10 -92.5 44t-37.5 95q0 72 42.5 108t108.5 36q64 0 108 -38.5t45 -109.5v-9h-93v8q-2 33 -18.5 48.5t-40.5 15.5q-59 0 -59 -54q1 -47 67 -64
q83 -18 116.5 -59t33.5 -102q0 -77 -44 -115t-115 -38q-64 0 -111.5 39t-48.5 110v14h94z" />
    <glyph glyph-name="Tcedilla" unicode="&#x162;" horiz-adv-x="432" 
d="M34 700h364v-108h-126v-622q0 -77 -26.5 -110t-97.5 -34h-18v69h16q28 1 38 17t11 53v35h-34v592h-127v108z" />
    <glyph glyph-name="tcedilla" unicode="&#x163;" horiz-adv-x="300" 
d="M92 653h93v-153h85v-84h-85v-219q0 -75 14.5 -98t57.5 -23h13v-85h-8q-17 0 -36 2v-32q-4 -62 -31 -89t-92 -29h-19v69h18q27 2 37 17.5t11 51.5v31q-59 36 -58 159v245h-62v84h62v153z" />
    <glyph glyph-name="Tcaron" unicode="&#x164;" horiz-adv-x="432" 
d="M282 904h72l-87 -148h-102l-86 148h71l66 -72zM398 700v-108h-126v-592h-111v592h-127v108h364z" />
    <glyph glyph-name="tcaron" unicode="&#x165;" horiz-adv-x="393" 
d="M246 709h95v-93l-35 -94h-36l16 94h-40v93zM92 653h93v-153h85v-84h-85v-219q0 -74 14.5 -97.5t56.5 -23.5h14v-85h-39q-32 0 -55.5 7.5t-43.5 26.5t-30 55.5t-10 90.5v245h-62v84h62v153z" />
    <glyph glyph-name="Tbar" unicode="&#x166;" horiz-adv-x="432" 
d="M34 700h364v-108h-126v-173h79v-84h-79v-335h-111v335h-77v84h77v173h-127v108z" />
    <glyph glyph-name="tbar" unicode="&#x167;" horiz-adv-x="300" 
d="M270 416h-85v-82h86v-84h-86v-69q1 -65 16 -85t55 -20h14v-85h-39q-32 0 -55.5 7.5t-43.5 26.5t-30.5 55.5t-10.5 90.5v79h-61v84h62v82h-62v84h62v153h93v-153h85v-84z" />
    <glyph glyph-name="Umacron" unicode="&#x16a;" 
d="M107 900h278v-84h-278v84zM157 236v464h-111v-472q0 -66 17 -114t46.5 -73.5t63 -37t74.5 -11.5q39 0 73 11.5t64 37t47 73.5t17 114v472h-111v-464q0 -136 -90 -136t-90 136z" />
    <glyph glyph-name="umacron" unicode="&#x16b;" horiz-adv-x="387" 
d="M55 700h278v-84h-278v84zM260 500h94v-500h-67l-13 51q-35 -60 -109 -60q-55 0 -93 41.5t-38 134.5v333h94v-286q0 -78 16.5 -108t49.5 -30q31 0 48.5 25t17.5 88v311z" />
    <glyph glyph-name="Uring" unicode="&#x16e;" 
d="M246 941q44 0 75.5 -31t31.5 -75t-31.5 -75.5t-75.5 -31.5t-75 31t-31 76q0 44 31 75t75 31zM246 874q-16 0 -27.5 -11.5t-11.5 -27.5q0 -17 11.5 -28.5t27.5 -11.5q17 0 28.5 11.5t11.5 28.5q0 16 -12 27.5t-28 11.5zM157 236v464h-111v-472q0 -66 17 -114t46.5 -73.5
t63 -37t74.5 -11.5q39 0 73 11.5t64 37t47 73.5t17 114v472h-111v-464q0 -136 -90 -136t-90 136z" />
    <glyph glyph-name="uring" unicode="&#x16f;" horiz-adv-x="387" 
d="M194 741q44 0 75.5 -31t31.5 -75t-31.5 -75.5t-75.5 -31.5t-75 31t-31 76q0 44 31 75t75 31zM194 674q-16 0 -27.5 -11.5t-11.5 -27.5q0 -17 11.5 -28.5t27.5 -11.5q17 0 28.5 11.5t11.5 28.5q0 16 -12 27.5t-28 11.5zM260 500h94v-500h-67l-13 51q-35 -60 -109 -60
q-55 0 -93 41.5t-38 134.5v333h94v-286q0 -78 16.5 -108t49.5 -30q31 0 48.5 25t17.5 88v311z" />
    <glyph glyph-name="Uhungarumlaut" unicode="&#x170;" 
d="M155 912h101l-91 -150h-67zM293 912h102l-92 -150h-67zM157 236v464h-111v-472q0 -66 17 -114t46.5 -73.5t63 -37t74.5 -11.5q39 0 73 11.5t64 37t47 73.5t17 114v472h-111v-464q0 -136 -90 -136t-90 136z" />
    <glyph glyph-name="uhungarumlaut" unicode="&#x171;" horiz-adv-x="387" 
d="M111 712h101l-91 -150h-67zM249 712h102l-92 -150h-67zM260 500h94v-500h-67l-13 51q-35 -60 -109 -60q-55 0 -93 41.5t-38 134.5v333h94v-286q0 -78 16.5 -108t49.5 -30q31 0 48.5 25t17.5 88v311z" />
    <glyph glyph-name="Uogonek" unicode="&#x172;" 
d="M337 700h111v-472q0 -137 -80 -192l-26 -37q-45 -41 -42 -73q1 -29 39 -31h12v-69h-13q-115 2 -117 77q-1 43 44 90l-18 -1q-41 0 -74.5 11.5t-63 37t-46.5 73.5t-17 114v472h111v-464q0 -136 90 -136t90 136v464z" />
    <glyph glyph-name="uogonek" unicode="&#x173;" horiz-adv-x="387" 
d="M260 500h94v-500q-15 -14 -22.5 -22t-15 -22.5t-7.5 -27.5q0 -31 39 -33h13v-69h-16q-108 3 -113 72q-2 22 9.5 44.5t20.5 32t25 25.5l-13 52q-35 -61 -109 -61q-55 0 -93 41.5t-38 134.5v333h94v-286q0 -78 16.5 -108t49.5 -30q31 0 48.5 25t17.5 88v311z" />
    <glyph glyph-name="Wcircumflex" unicode="&#x174;" horiz-adv-x="780" 
d="M340 904h102l86 -148h-71l-66 72l-67 -72h-71zM634 700h112l-137 -700h-130l-89 430l-89 -430h-130l-137 700h112l97 -515l95 515h104l95 -515z" />
    <glyph glyph-name="wcircumflex" unicode="&#x175;" horiz-adv-x="637" 
d="M268 704h101l87 -148h-71l-66 72l-67 -72h-71zM515 500h94l-105 -500h-114l-71 317l-72 -317h-113l-106 500h94l76 -374l81 374h80l81 -374z" />
    <glyph glyph-name="Ycircumflex" unicode="&#x176;" horiz-adv-x="518" 
d="M208 904h102l87 -148h-72l-66 72l-66 -72h-71zM368 700h116l-169 -423v-277h-114v276l-167 424h116l108 -297z" />
    <glyph glyph-name="ycircumflex" unicode="&#x177;" horiz-adv-x="376" 
d="M137 704h102l87 -148h-72l-66 72l-66 -72h-71zM254 501h94v-504q-1 -46 -15.5 -80.5t-38 -53t-50 -27t-55.5 -8.5q-56 0 -99.5 30t-55.5 96h95q14 -41 59 -41q31 0 48.5 22t17.5 75v38q-31 -48 -95 -48q-55 0 -93 41.5t-38 134.5v324h94v-277q0 -78 16.5 -108t49.5 -30
q32 0 49 30t17 108v278z" />
    <glyph glyph-name="Ydieresis" unicode="&#x178;" horiz-adv-x="518" 
d="M140 806v94h95v-94h-95zM283 806v94h95v-94h-95zM368 700h116l-169 -423v-277h-114v276l-167 424h116l108 -297z" />
    <glyph glyph-name="Zacute" unicode="&#x179;" horiz-adv-x="473" 
d="M210 912h110l-92 -150h-74zM39 700h397v-93l-284 -499h289v-108h-409v90l285 502h-278v108z" />
    <glyph glyph-name="zacute" unicode="&#x17a;" horiz-adv-x="358" 
d="M153 712h109l-92 -150h-74zM40 500h286v-70l-195 -345h199v-85h-302v70l197 345h-185v85z" />
    <glyph glyph-name="Zdotaccent" unicode="&#x17b;" horiz-adv-x="473" 
d="M189 900h95v-93h-95v93zM39 700h397v-93l-284 -499h289v-108h-409v90l285 502h-278v108z" />
    <glyph glyph-name="zdotaccent" unicode="&#x17c;" horiz-adv-x="358" 
d="M132 700h94v-93h-94v93zM40 500h286v-70l-195 -345h199v-85h-302v70l197 345h-185v85z" />
    <glyph glyph-name="Zcaron" unicode="&#x17d;" horiz-adv-x="473" 
d="M303 904h71l-86 -148h-102l-87 148h71l67 -72zM39 700h397v-93l-284 -499h289v-108h-409v90l285 502h-278v108z" />
    <glyph glyph-name="zcaron" unicode="&#x17e;" horiz-adv-x="358" 
d="M245 704h71l-86 -148h-102l-87 148h71l67 -72zM40 500h286v-70l-195 -345h199v-85h-302v70l197 345h-185v85z" />
    <glyph glyph-name="florin" unicode="&#x192;" horiz-adv-x="347" 
d="M297 704h25v-85h-14q-41 0 -57 -19t-27 -83l-4 -17h93v-85h-107l-71 -415h-94l70 415h-86v85h101l8 45q9 52 23 84.5t36 48t45 21t59 5.5z" />
    <glyph glyph-name="Acaron" unicode="&#x1cd;" horiz-adv-x="518" 
d="M326 904h71l-87 -148h-101l-87 148h71l66 -72zM188 700h141l154 -700h-111l-40 174h-146l-41 -174h-111zM319 286l-60 286l-61 -286h121z" />
    <glyph glyph-name="acaron" unicode="&#x1ce;" horiz-adv-x="388" 
d="M261 704h71l-87 -148h-102l-86 148h71l66 -72zM285 500h67v-500h-67l-11 51q-34 -59 -108 -59q-26 0 -48.5 9t-42.5 28.5t-31.5 55t-11.5 83.5v165q0 48 11.5 84t31.5 55t42.5 28t48.5 9q73 0 107 -57zM126 286v-71q0 -78 16.5 -108t50 -30t49.5 30t16 108v71
q0 78 -17 108t-49 30q-33 0 -49.5 -30t-16.5 -108z" />
    <glyph glyph-name="Icaron" unicode="&#x1cf;" horiz-adv-x="206" 
d="M169 904h72l-87 -148h-102l-87 148h72l66 -72zM46 0v700h115v-700h-115z" />
    <glyph glyph-name="icaron" unicode="&#x1d0;" horiz-adv-x="282" 
d="M208 704h71l-87 -148h-102l-86 148h71l66 -72zM95 0v500h94v-500h-94z" />
    <glyph glyph-name="Ocaron" unicode="&#x1d1;" 
d="M313 904h71l-87 -148h-102l-86 148h71l66 -72zM40 234v233q0 66 18 115t48 75.5t64.5 39t74.5 12.5t74.5 -12t65 -38.5t48.5 -75.5t18 -116v-233q0 -67 -18 -116t-48.5 -75.5t-65 -38.5t-74.5 -12t-74.5 12.5t-64.5 39t-48 75.5t-18 115zM337 242v218q0 73 -25 107
t-67 34q-91 0 -91 -141v-218q0 -142 91 -142q42 0 67 34t25 108z" />
    <glyph glyph-name="ocaron" unicode="&#x1d2;" horiz-adv-x="383" 
d="M258 704h72l-87 -148h-102l-87 148h72l66 -72zM32 168v165q0 48 14 83.5t37.5 55t50.5 28.5t57 9t57 -9t51 -28t38 -55t14 -84v-165q0 -48 -14 -84t-38 -55t-51 -28t-57 -9t-57 9t-50.5 28.5t-37.5 55t-14 83.5zM258 215v71q0 77 -17.5 107.5t-49.5 30.5q-33 0 -49 -30
t-16 -108v-71q0 -78 16 -108t50 -30q33 0 49.5 30t16.5 108z" />
    <glyph glyph-name="Ucaron" unicode="&#x1d3;" 
d="M312 904h72l-87 -148h-102l-86 148h71l66 -72zM157 236v464h-111v-472q0 -66 17 -114t46.5 -73.5t63 -37t74.5 -11.5q39 0 73 11.5t64 37t47 73.5t17 114v472h-111v-464q0 -136 -90 -136t-90 136z" />
    <glyph glyph-name="ucaron" unicode="&#x1d4;" horiz-adv-x="387" 
d="M261 704h71l-87 -148h-102l-86 148h71l66 -72zM260 500h94v-500h-67l-13 51q-35 -60 -109 -60q-55 0 -93 41.5t-38 134.5v333h94v-286q0 -78 16.5 -108t49.5 -30q31 0 48.5 25t17.5 88v311z" />
    <glyph glyph-name="Udieresismacron" unicode="&#x1d5;" 
d="M107 991h278v-85h-278v85zM127 742v93h95v-93h-95zM270 742v93h95v-93h-95zM157 236v464h-111v-472q0 -66 17 -114t46.5 -73.5t63 -37t74.5 -11.5q39 0 73 11.5t64 37t47 73.5t17 114v472h-111v-464q0 -136 -90 -136t-90 136z" />
    <glyph glyph-name="udieresismacron" unicode="&#x1d6;" horiz-adv-x="387" 
d="M55 790h278v-85h-278v85zM75 548v94h95v-94h-95zM218 548v94h95v-94h-95zM260 500h94v-500h-67l-13 51q-35 -60 -109 -60q-55 0 -93 41.5t-38 134.5v333h94v-286q0 -78 16.5 -108t49.5 -30q31 0 48.5 25t17.5 88v311z" />
    <glyph glyph-name="Udieresisacute" unicode="&#x1d7;" 
d="M223 1019h110l-92 -151h-74zM127 835h95v-93h-95v93zM270 835h95v-93h-95v93zM337 700h111v-472q0 -66 -17 -114t-47 -73.5t-64 -37t-73 -11.5q-41 0 -74.5 11.5t-63 37t-46.5 73.5t-17 114v472h111v-464q0 -136 90 -136t90 136v464z" />
    <glyph glyph-name="udieresisacute" unicode="&#x1d8;" horiz-adv-x="387" 
d="M168 817h109l-91 -151h-75zM75 548v94h95v-94h-95zM218 548v94h95v-94h-95zM260 500h94v-500h-67l-13 51q-35 -60 -109 -60q-55 0 -93 41.5t-38 134.5v333h94v-286q0 -78 16.5 -108t49.5 -30q31 0 48.5 25t17.5 88v311z" />
    <glyph glyph-name="Udieresiscaron" unicode="&#x1d9;" 
d="M312 1009h72l-87 -148h-102l-86 148h71l66 -72zM127 742v93h95v-93h-95zM270 742v93h95v-93h-95zM157 236v464h-111v-472q0 -66 17 -114t46.5 -73.5t63 -37t74.5 -11.5q39 0 73 11.5t64 37t47 73.5t17 114v472h-111v-464q0 -136 -90 -136t-90 136z" />
    <glyph glyph-name="udieresiscaron" unicode="&#x1da;" horiz-adv-x="387" 
d="M261 807h71l-87 -148h-102l-86 148h71l66 -72zM75 548v94h95v-94h-95zM218 548v94h95v-94h-95zM260 500h94v-500h-67l-13 51q-35 -60 -109 -60q-55 0 -93 41.5t-38 134.5v333h94v-286q0 -78 16.5 -108t49.5 -30q31 0 48.5 25t17.5 88v311z" />
    <glyph glyph-name="Udieresisgrave" unicode="&#x1db;" 
d="M163 1018h109l57 -151h-74zM127 742v93h95v-93h-95zM270 742v93h95v-93h-95zM157 236v464h-111v-472q0 -66 17 -114t46.5 -73.5t63 -37t74.5 -11.5q39 0 73 11.5t64 37t47 73.5t17 114v472h-111v-464q0 -136 -90 -136t-90 136z" />
    <glyph glyph-name="udieresisgrave" unicode="&#x1dc;" horiz-adv-x="387" 
d="M111 817h109l57 -151h-74zM75 548v94h95v-94h-95zM218 548v94h95v-94h-95zM260 500h94v-500h-67l-13 51q-35 -60 -109 -60q-55 0 -93 41.5t-38 134.5v333h94v-286q0 -78 16.5 -108t49.5 -30q31 0 48.5 25t17.5 88v311z" />
    <glyph glyph-name="Scommaaccent" unicode="&#x218;" horiz-adv-x="475" 
d="M435 483h-107q0 58 -24.5 88t-62 30t-60.5 -25t-23 -69q0 -20 7 -36t16 -24.5t25.5 -16t26.5 -10t28 -6.5q4 -1 6 -1q177 -38 177 -203q0 -60 -16.5 -103.5t-46.5 -68t-65.5 -35.5t-79.5 -11q-39 0 -73.5 11.5t-64.5 36.5t-48 70.5t-18 106.5h107q0 -59 28 -88t69 -29
q47 0 72 26t25 73q0 50 -27.5 72.5t-91.5 37.5q-24 5 -43 11.5t-43.5 21.5t-41 34t-28 51.5t-11.5 72.5q0 57 16.5 99t45 65t61.5 34t71 11t70.5 -11.5t61 -36.5t45.5 -70.5t17 -107.5zM186 -160v102h103v-102l-38 -102h-39l18 102h-44z" />
    <glyph glyph-name="scommaaccent" unicode="&#x219;" horiz-adv-x="369" 
d="M119 155v-12q1 -34 20 -50t46 -16q65 0 65 63q0 39 -21 57.5t-65 28.5q-55 10 -92.5 44t-37.5 95q0 72 42.5 108t108.5 36q64 0 108 -38.5t45 -109.5v-9h-93v8q-2 33 -18.5 48.5t-40.5 15.5q-59 0 -59 -54q1 -47 67 -64q83 -18 116.5 -59t33.5 -102q0 -77 -44 -115
t-115 -38q-64 0 -111.5 39t-48.5 110v14h94zM133 -58h103v-102l-38 -102h-39l18 102h-44v102z" />
    <glyph glyph-name="uni021A" unicode="&#x21a;" horiz-adv-x="432" 
d="M34 700h364v-108h-126v-592h-111v592h-127v108zM165 -58h103v-102l-38 -102h-39l17 102h-43v102z" />
    <glyph glyph-name="uni021B" unicode="&#x21b;" horiz-adv-x="300" 
d="M185 416v-219q0 -74 14.5 -97.5t57.5 -23.5h13v-85h-38q-32 0 -56 7.5t-44 26.5t-30 55.5t-10 90.5v245h-62v84h62v153h93v-153h85v-84h-85zM122 -58h104v-102l-39 -102h-39l18 102h-44v102z" />
    <glyph glyph-name="circumflex" unicode="&#x2c6;" horiz-adv-x="409" 
d="M154 704h102l86 -148h-71l-66 72l-66 -72h-72z" />
    <glyph glyph-name="caron" unicode="&#x2c7;" horiz-adv-x="409" 
d="M271 704h71l-86 -148h-102l-87 148h72l66 -72z" />
    <glyph glyph-name="breve" unicode="&#x2d8;" horiz-adv-x="381" 
d="M139 700h-81q5 -51 43 -86t90 -35t89.5 35t42.5 86h-80q-4 -18 -19 -29.5t-33 -11.5q-19 0 -33.5 11.5t-18.5 29.5z" />
    <glyph glyph-name="dotaccent" unicode="&#x2d9;" horiz-adv-x="203" 
d="M54 607v93h95v-93h-95z" />
    <glyph glyph-name="ring" unicode="&#x2da;" horiz-adv-x="341" 
d="M170 741q44 0 75.5 -31t31.5 -75t-31 -75.5t-76 -31.5q-44 0 -75 31t-31 76q0 44 31 75t75 31zM170 674q-16 0 -27.5 -11.5t-11.5 -27.5q0 -17 11.5 -28.5t27.5 -11.5q17 0 28.5 11.5t11.5 28.5q0 16 -11.5 27.5t-28.5 11.5z" />
    <glyph glyph-name="ogonek" unicode="&#x2db;" horiz-adv-x="230" 
d="M101 0h72q-16 -15 -23 -23.5t-15 -23t-6 -27.5q1 -29 39 -31h12v-69h-14q-108 2 -115 71q-1 9 0 18t3 15.5t6.5 15.5t7 13.5t9 12.5t8.5 10t9 10z" />
    <glyph glyph-name="tilde" unicode="&#x2dc;" horiz-adv-x="371" 
d="M263 703h70q0 -27 -4 -50t-12.5 -44.5t-26 -34t-41.5 -12.5q-18 0 -33 7.5t-39 27.5q-23 21 -44 19q-25 -2 -25 -54h-69q0 28 3.5 51t12.5 44.5t26 33.5t41 12q19 0 33.5 -7.5t38.5 -26.5q23 -22 45 -18q24 2 24 52z" />
    <glyph glyph-name="hungarumlaut" unicode="&#x2dd;" horiz-adv-x="432" 
d="M117 712h102l-92 -150h-66zM256 712h101l-91 -150h-67z" />
    <glyph glyph-name="commaaccentcomb" unicode="&#x326;" horiz-adv-x="0" 
d="M55 -63h94v-93l-35 -95h-35l16 95h-40v93z" />
    <glyph glyph-name="Delta" unicode="&#x394;" horiz-adv-x="469" 
d="M439 115v-115h-409v114l134 586h141zM134 109h202l-101 463z" />
    <glyph glyph-name="Omega" unicode="&#x3a9;" horiz-adv-x="503" 
d="M47 277v190q0 66 17.5 115t47.5 75.5t65 39t74 12.5q40 0 74.5 -12t65 -38.5t48.5 -75.5t18 -116v-190q0 -115 -62 -169h76v-108h-187v108q60 44 60 174v178q0 73 -25.5 107t-67.5 34q-90 0 -90 -141v-178q0 -131 59 -173v-109h-187v108h76q-62 55 -62 169z" />
    <glyph glyph-name="mu" unicode="&#x3bc;" horiz-adv-x="458" 
d="M263 500h94v-310q1 -61 21 -87.5t56 -26.5v-84h-11q-69 2 -100 57q-28 -58 -97 -58q-64 0 -95 49v-203h-94v663h94v-310q0 -63 17.5 -88.5t48.5 -25.5q33 0 49.5 30.5t16.5 107.5v286z" />
    <glyph glyph-name="pi" unicode="&#x3c0;" horiz-adv-x="513" 
d="M25 500h463v-86h-77v-224q1 -61 21 -87.5t56 -26.5v-84h-29q-28 0 -51.5 9.5t-44.5 28.5t-33 54t-12 82v248h-123v-414h-94v414h-76v86z" />
    <glyph glyph-name="afii10017" unicode="&#x410;" horiz-adv-x="518" 
d="M372 0l-40 174h-146l-41 -174h-111l154 700h141l154 -700h-111zM198 286h121l-60 286z" />
    <glyph glyph-name="afii10018" unicode="&#x411;" horiz-adv-x="461" 
d="M46 704h344v-108h-233v-185h66q108 -3 162 -55.5t54 -147.5v-12q-2 -196 -221 -199h-172v707zM229 298h-72v-188h72q47 1 73.5 23t27.5 65v8q0 45 -27 68.5t-74 23.5z" />
    <glyph glyph-name="afii10019" unicode="&#x412;" horiz-adv-x="461" 
d="M46 704h181q38 0 72.5 -9.5t63.5 -28.5t46.5 -52t17.5 -77v-36q0 -99 -87 -140q98 -41 98 -155v-31q0 -85 -56 -131.5t-154 -46.5h-182v707zM319 500v6q0 48 -27 69t-67 21h-68v-187h68q39 0 66.5 22t27.5 69zM325 202v7q0 49 -27 73.5t-73 24.5h-68v-203h68
q47 0 73.5 24.5t26.5 73.5z" />
    <glyph glyph-name="afii10020" unicode="&#x413;" horiz-adv-x="424" 
d="M390 700v-108h-233v-592h-111v700h344z" />
    <glyph glyph-name="afii10021" unicode="&#x414;" horiz-adv-x="589" 
d="M514 108h52v-228h-111v120h-321v-120h-111v228h30q82 17 82 138v454h379v-592zM202 108h201v484h-157v-353q0 -86 -44 -131z" />
    <glyph glyph-name="afii10022" unicode="&#x415;" horiz-adv-x="372" 
d="M349 592h-192v-182h182v-108h-182v-194h192v-108h-303v700h303v-108z" />
    <glyph glyph-name="afii10024" unicode="&#x416;" horiz-adv-x="781" 
d="M747 0h-120l-179 266v-266h-115v265l-179 -265h-120l213 355l-200 345h120l166 -252v252h115v-252l166 252h120l-200 -345z" />
    <glyph glyph-name="afii10025" unicode="&#x417;" horiz-adv-x="461" 
d="M226 709h19q34 -1 64.5 -11.5t59 -32t46.5 -61t19 -91.5v-17q0 -52 -23 -89t-57 -51q37 -14 60.5 -53t23.5 -93v-14q-1 -53 -17.5 -93t-44.5 -63.5t-61 -35t-71 -12.5h-18q-36 1 -69 12t-62.5 35t-48.5 67t-23 101v6h111q6 -56 32.5 -84.5t63.5 -28.5h8q37 1 61.5 28
t24.5 70v5q0 48 -27 74t-78 26h-58v105h58q46 0 73.5 24.5t27.5 70.5v5q0 43 -25.5 67.5t-56.5 25.5h-8q-35 0 -61.5 -27t-33.5 -81h-111l1 7q4 56 23 98t48.5 65t61.5 34t68 12z" />
    <glyph glyph-name="afii10026" unicode="&#x418;" horiz-adv-x="505" 
d="M351 700h109v-700h-111v467l-195 -467h-109v700h111v-467z" />
    <glyph glyph-name="afii10027" unicode="&#x419;" horiz-adv-x="505" 
d="M307 873h80q-4 -51 -42 -86t-90 -35t-90 35t-43 86h81q4 -18 18.5 -29.5t33.5 -11.5t33.5 11.5t18.5 29.5zM351 700h109v-700h-111v467l-195 -467h-109v700h111v-467z" />
    <glyph glyph-name="afii10028" unicode="&#x41a;" horiz-adv-x="493" 
d="M459 0h-119l-179 266v-266h-115v700h115v-252l166 252h119l-200 -345z" />
    <glyph glyph-name="afii10029" unicode="&#x41b;" horiz-adv-x="556" 
d="M130 700h380v-700h-111v592h-158v-358q0 -66 -16.5 -114.5t-45.5 -75t-62 -39t-71 -13.5h-23v108q47 0 77 33t30 109v458z" />
    <glyph glyph-name="afii10030" unicode="&#x41c;" horiz-adv-x="620" 
d="M438 700h136v-700h-111v439l-119 -439h-69l-119 439v-439h-111v700h136l128 -514z" />
    <glyph glyph-name="afii10031" unicode="&#x41d;" horiz-adv-x="477" 
d="M321 700h110v-700h-110v302h-164v-302h-111v700h111v-290h164v290z" />
    <glyph glyph-name="afii10032" unicode="&#x41e;" horiz-adv-x="496" 
d="M43 234v233q0 66 17.5 115t47.5 75.5t64.5 39t74.5 12.5t74.5 -12t65 -38.5t48.5 -75.5t18 -116v-233q0 -67 -18 -116t-48.5 -75.5t-65 -38.5t-74.5 -12t-74.5 12.5t-64.5 39t-47.5 75.5t-17.5 115zM340 242v218q0 73 -25.5 107t-67.5 34q-91 0 -91 -141v-218
q0 -142 91 -142q42 0 67.5 34t25.5 108z" />
    <glyph glyph-name="afii10033" unicode="&#x41f;" horiz-adv-x="477" 
d="M46 700h385v-700h-110v592h-164v-592h-111v700z" />
    <glyph glyph-name="afii10034" unicode="&#x420;" horiz-adv-x="467" 
d="M46 700h159q42 0 79 -9.5t70 -30.5t52 -59t19 -91v-42q0 -49 -17.5 -86.5t-48.5 -58.5t-66 -32t-76 -13h-60v-278h-111v700zM317 483v12q0 52 -27.5 75t-68.5 23h-64v-208h64q41 0 68.5 23t27.5 75z" />
    <glyph glyph-name="afii10035" unicode="&#x421;" horiz-adv-x="473" 
d="M45 234v233q0 66 17.5 115t47.5 75.5t65 39t75 12.5q38 0 71.5 -12t63 -37.5t47 -72.5t18.5 -112v-18h-111v16q-6 128 -89 128q-91 0 -91 -141v-218q0 -142 91 -142q84 0 89 130v15h111v-19q-1 -64 -18.5 -111.5t-47 -73t-63 -37.5t-71.5 -12q-40 0 -75 12.5t-65 39
t-47.5 75.5t-17.5 115z" />
    <glyph glyph-name="afii10036" unicode="&#x422;" horiz-adv-x="432" 
d="M398 700v-108h-126v-592h-111v592h-127v108h364z" />
    <glyph glyph-name="afii10037" unicode="&#x423;" horiz-adv-x="522" 
d="M371 700h116l-168 -426v-274h-115v273l-170 427h116l111 -299z" />
    <glyph glyph-name="afii10038" unicode="&#x424;" horiz-adv-x="706" 
d="M409 704v-75h46q100 -4 154.5 -55t54.5 -147v-11q0 -95 -54 -146.5t-155 -54.5h-46v-215h-111v215h-46q-102 4 -155.5 55t-53.5 146v10q0 97 54 148t155 55h46v75h111zM556 419v5q0 48 -27.5 69.5t-70.5 21.5h-49v-186h49q43 0 70.5 21t27.5 69zM298 329v186h-50
q-43 0 -70 -21.5t-27 -69.5v-5q0 -47 27.5 -68.5t69.5 -21.5h50z" />
    <glyph glyph-name="afii10039" unicode="&#x425;" horiz-adv-x="511" 
d="M471 700l-143 -342l149 -358h-116l-105 249l-106 -249h-116l147 357l-141 343h116l100 -242l100 242h115z" />
    <glyph glyph-name="afii10040" unicode="&#x426;" horiz-adv-x="511" 
d="M431 109h57v-220h-111v111h-331v700h111v-592h164v592h110v-591z" />
    <glyph glyph-name="afii10041" unicode="&#x427;" horiz-adv-x="450" 
d="M302 700h111v-700h-111v281q-32 -50 -109 -50q-165 0 -165 176v293h111v-217q0 -77 20 -106t61 -29t61.5 25t20.5 93v234z" />
    <glyph glyph-name="afii10042" unicode="&#x428;" horiz-adv-x="752" 
d="M595 700h111v-700h-660v700h111v-592h164v592h110v-592h164v592z" />
    <glyph glyph-name="afii10043" unicode="&#x429;" horiz-adv-x="786" 
d="M706 109h57v-220h-112v111h-605v700h111v-592h164v592h110v-592h164v592h111v-591z" />
    <glyph glyph-name="afii10044" unicode="&#x42a;" horiz-adv-x="532" 
d="M213 411h64q212 -6 213 -202v-9q0 -96 -56.5 -149.5t-171.5 -53.5h-160v598h-70v109h181v-293zM382 202v4q0 45 -27.5 68.5t-74.5 23.5h-67v-188h67q48 0 75 23.5t27 68.5z" />
    <glyph glyph-name="afii10045" unicode="&#x42b;" horiz-adv-x="663" 
d="M157 704v-293h64q212 -6 213 -202v-9q0 -96 -56.5 -149.5t-171.5 -53.5h-160v707h111zM503 700h114v-700h-114v700zM157 111h67q48 0 75 23t27 68v4q0 45 -27.5 68.5t-74.5 23.5h-67v-187z" />
    <glyph glyph-name="afii10046" unicode="&#x42c;" horiz-adv-x="477" 
d="M157 704v-293h64q212 -6 213 -202v-9q0 -96 -56.5 -149.5t-171.5 -53.5h-160v707h111zM157 111h67q48 0 75 23t27 68v4q0 45 -27.5 68.5t-74.5 23.5h-67v-187z" />
    <glyph glyph-name="afii10047" unicode="&#x42d;" horiz-adv-x="473" 
d="M23 468v6q1 65 18.5 112.5t47 73t63 37.5t72.5 12q40 0 74.5 -12.5t65 -39t48 -75.5t17.5 -115v-233q0 -66 -17.5 -115t-48 -75.5t-65 -39t-74.5 -12.5q-39 0 -72.5 12t-63 37.5t-47 73.5t-18.5 113v5h111q4 -133 90 -133q91 0 91 142v55h-162v109h162v54q0 141 -91 141
q-86 0 -90 -133h-111z" />
    <glyph glyph-name="afii10048" unicode="&#x42e;" horiz-adv-x="692" 
d="M239 406v61q0 66 17.5 115t48 75.5t65 39t74.5 12.5q39 0 73.5 -12t65.5 -38.5t49 -75.5t18 -116v-233q0 -67 -18 -116t-49 -75.5t-65.5 -38.5t-73.5 -12q-40 0 -74.5 12.5t-65 39t-48 75.5t-17.5 115v63h-82v-297h-111v700h111v-294h82zM536 242v218q0 73 -25.5 107
t-66.5 34q-91 0 -91 -141v-218q0 -142 91 -142q42 0 67 34t25 108z" />
    <glyph glyph-name="afii10049" unicode="&#x42f;" horiz-adv-x="476" 
d="M266 704h164v-704h-111v287h-72l-94 -287h-119l113 321q-101 42 -101 155v38q0 53 19 91.5t52 59t70 30t79 9.5zM319 394v203h-69q-41 0 -68.5 -22.5t-27.5 -75.5v-8q0 -52 27.5 -74.5t68.5 -22.5h69z" />
    <glyph glyph-name="afii10065" unicode="&#x430;" horiz-adv-x="388" 
d="M285 500h67v-500h-67l-11 51q-34 -59 -108 -59q-26 0 -48.5 9t-42.5 28.5t-31.5 55t-11.5 83.5v165q0 48 11.5 83.5t31.5 55t42.5 28.5t48.5 9q73 0 107 -57zM126 286v-71q0 -78 16.5 -108t50 -30t49.5 30t16 108v71q0 78 -17 108t-49 30q-33 0 -49.5 -30t-16.5 -108z
" />
    <glyph glyph-name="afii10066" unicode="&#x431;" horiz-adv-x="388" 
d="M36 168v367q1 47 15 82.5t37.5 54.5t50.5 28t57 9q58 0 101.5 -33.5t50.5 -106.5l2 -11h-93q-13 66 -61 66q-31 0 -48.5 -22.5t-17.5 -79.5v-57q28 41 82 42q27 0 51 -9t45.5 -28t34.5 -54t13 -83v-165q0 -48 -14.5 -84t-38.5 -55t-50.5 -28t-56.5 -9t-57 9.5t-50.5 29
t-37.5 55t-15 82.5zM262 215v71q0 77 -17 107.5t-49 30.5q-33 0 -49.5 -31t-16.5 -107v-71q1 -78 17 -108t49 -30t50 30t16 108z" />
    <glyph glyph-name="afii10067" unicode="&#x432;" horiz-adv-x="377" 
d="M37 504h130q92 0 132.5 -41t40.5 -107q0 -67 -47 -96q59 -34 59 -113q0 -150 -179 -150h-136v507zM131 297h34q45 1 63.5 14t18.5 44q0 32 -17.5 46t-64.5 15h-34v-119zM131 82h34q53 0 73.5 14.5t20.5 50.5q0 35 -20.5 49.5t-73.5 15.5h-34v-130z" />
    <glyph glyph-name="afii10068" unicode="&#x433;" horiz-adv-x="338" 
d="M311 500v-85h-180v-415h-94v500h274z" />
    <glyph glyph-name="afii10069" unicode="&#x434;" horiz-adv-x="484" 
d="M106 500h310v-415h42v-189h-93v104h-246v-104h-94v189h26q29 6 42 32t13 78v305zM322 85v330h-122v-244q0 -55 -27 -86h149z" />
    <glyph glyph-name="afii10070" unicode="&#x435;" horiz-adv-x="381" 
d="M32 168v165q0 48 14 83.5t37.5 55t50.5 28.5t57 9t56.5 -9t50.5 -28t38.5 -55t14.5 -84v-118h-225v-30q0 -60 17 -84t49 -24q62 0 65 88h94q-1 -48 -15 -83t-38 -54t-50.5 -27.5t-56.5 -8.5t-57 9t-50.5 28.5t-37.5 55t-14 83.5zM257 285v38q-1 101 -66 101
q-31 0 -48 -22.5t-18 -78.5v-38h132z" />
    <glyph glyph-name="afii10072" unicode="&#x436;" horiz-adv-x="597" 
d="M561 0h-97l-120 207v-207h-94v207l-120 -207h-97l134 257l-127 243h98l112 -193v193h94v-193l112 193h98l-127 -243z" />
    <glyph glyph-name="afii10073" unicode="&#x437;" horiz-adv-x="382" 
d="M184 509h15q74 -1 111 -39t37 -106q0 -39 -19 -68.5t-62 -39.5q91 -18 91 -127q1 -66 -45.5 -101t-112.5 -36h-15q-27 1 -52.5 9t-49 25t-38 48t-14.5 72h92q0 -37 20.5 -53t46.5 -16h4q35 0 54 17.5t18 52.5q1 64 -81 64h-45v85h42q41 0 60 14t19 45q0 33 -17 51.5
t-50 18.5h-3q-26 0 -46.5 -16.5t-20.5 -53.5h-93q0 41 14.5 72t38 48t49 25t52.5 9z" />
    <glyph glyph-name="afii10074" unicode="&#x438;" horiz-adv-x="398" 
d="M268 500h94v-500h-94v304l-137 -304h-94v500h94v-303z" />
    <glyph glyph-name="afii10075" unicode="&#x439;" horiz-adv-x="398" 
d="M251 700h80q-4 -51 -42 -86t-90 -35t-90.5 35t-42.5 86h80q5 -18 19.5 -29.5t33.5 -11.5t33 11.5t19 29.5zM268 500h94v-500h-94v304l-137 -304h-94v500h94v-304z" />
    <glyph glyph-name="afii10076" unicode="&#x43a;" horiz-adv-x="377" 
d="M349 0h-98l-119 207v-207h-94v500h94v-193l112 193h98l-127 -243z" />
    <glyph glyph-name="afii10077" unicode="&#x43b;" horiz-adv-x="448" 
d="M101 500h310v-500h-93v415h-123v-249q0 -47 -12 -82t-33 -54.5t-44.5 -28.5t-51.5 -9h-28v84q35 0 55 26.5t20 87.5v310z" />
    <glyph glyph-name="afii10078" unicode="&#x43c;" horiz-adv-x="460" 
d="M324 500h99v-500h-85v293l-86 -293h-44l-86 293v-293h-85v500h100l93 -344z" />
    <glyph glyph-name="afii10079" unicode="&#x43d;" horiz-adv-x="393" 
d="M262 500h94v-500h-94v215h-131v-215h-94v500h94v-200h131v200z" />
    <glyph glyph-name="afii10080" unicode="&#x43e;" horiz-adv-x="383" 
d="M32 168v165q0 48 14 83.5t37.5 55t50.5 28.5t57 9t57 -9t51 -28t38 -55t14 -84v-165q0 -48 -14 -84t-38 -55t-51 -28t-57 -9t-57 9t-50.5 28.5t-37.5 55t-14 83.5zM258 215v71q0 77 -17.5 107.5t-49.5 30.5q-33 0 -49 -30t-16 -108v-71q0 -78 16 -108t50 -30
q33 0 49.5 30t16.5 108z" />
    <glyph glyph-name="afii10081" unicode="&#x43f;" horiz-adv-x="393" 
d="M37 500h319v-500h-94v415h-131v-415h-94v500z" />
    <glyph glyph-name="afii10082" unicode="&#x440;" horiz-adv-x="388" 
d="M103 500l12 -52q35 60 111 60q55 0 93 -41.5t38 -134.5v-165q0 -92 -38 -133.5t-93 -41.5q-64 0 -95 46v-201h-94v663h66zM263 214v72q0 77 -16.5 107.5t-50 30.5t-49.5 -30.5t-16 -107.5v-72q0 -77 17 -107.5t49 -30.5t49 30.5t17 107.5z" />
    <glyph glyph-name="afii10083" unicode="&#x441;" horiz-adv-x="379" 
d="M32 168v165q0 48 14 83.5t37.5 55t50.5 28.5t57 9t56 -8.5t49.5 -27.5t37.5 -53.5t15 -82.5v-21h-92q-1 108 -66 108q-33 0 -49 -30t-16 -108v-71q0 -78 16 -108t50 -30q31 0 48 24t18 84h91v-21q-1 -47 -15 -82t-37.5 -54t-49.5 -27.5t-56 -8.5t-57 9t-50.5 28.5
t-37.5 55t-14 83.5z" />
    <glyph glyph-name="afii10084" unicode="&#x442;" horiz-adv-x="380" 
d="M28 500h324v-85h-115v-415h-94v415h-115v85z" />
    <glyph glyph-name="afii10085" unicode="&#x443;" horiz-adv-x="376" 
d="M254 500l94 1v-504q-1 -46 -15.5 -80.5t-38 -53t-50 -27t-55.5 -8.5q-56 0 -99.5 30t-55.5 96h95q14 -41 59 -41q31 0 48.5 22t17.5 75v38q-31 -48 -95 -48q-55 0 -93 41.5t-38 134.5v324h94v-277q0 -78 16.5 -108t49.5 -30q32 0 49 30t17 108v277z" />
    <glyph glyph-name="afii10086" unicode="&#x444;" horiz-adv-x="609" 
d="M258 700h93v-239q31 47 95 47q55 0 93 -41.5t38 -134.5v-165q0 -92 -38 -133.5t-93 -41.5q-63 0 -95 46v-201h-93v201q-32 -46 -95 -46q-55 0 -93 41.5t-38 133.5v165q0 93 38 134.5t93 41.5q64 0 95 -47v239zM258 214v72q0 77 -16.5 107.5t-49.5 30.5t-49.5 -30
t-16.5 -108v-72q0 -77 16.5 -107.5t49.5 -30.5q32 0 49 30.5t17 107.5zM484 214v72q-1 77 -17.5 107.5t-49.5 30.5t-49.5 -30.5t-15.5 -107.5v-72q0 -77 16.5 -107.5t49.5 -30.5q32 0 49 30.5t17 107.5z" />
    <glyph glyph-name="afii10087" unicode="&#x445;" horiz-adv-x="409" 
d="M378 500l-101 -245l104 -255h-97l-79 177l-80 -177h-97l104 254l-100 246h97l76 -194l76 194h97z" />
    <glyph glyph-name="afii10088" unicode="&#x446;" horiz-adv-x="425" 
d="M356 85h44v-180h-94v95h-269v500h94v-415h131v415h94v-415z" />
    <glyph glyph-name="afii10089" unicode="&#x447;" horiz-adv-x="391" 
d="M260 500h94v-500h-94v192q-31 -49 -95 -49q-55 0 -93 42t-38 134v181h94v-134q0 -78 16.5 -108t49.5 -30q31 0 48.5 25t17.5 88v159z" />
    <glyph glyph-name="afii10090" unicode="&#x448;" horiz-adv-x="617" 
d="M487 500h93v-500h-543v500h94v-415h131v415h94v-415h131v415z" />
    <glyph glyph-name="afii10091" unicode="&#x449;" horiz-adv-x="650" 
d="M581 85h44v-180h-94v95h-494v500h94v-415h131v415h94v-415h131v415h94v-415z" />
    <glyph glyph-name="afii10092" unicode="&#x44a;" horiz-adv-x="413" 
d="M171 301h39q178 0 178 -142v-22q-1 -140 -179 -140h-132v418h-52v85h146v-199zM295 144v3q0 37 -20.5 51.5t-73.5 14.5h-30v-131h30q52 0 72.5 14t21.5 48z" />
    <glyph glyph-name="afii10093" unicode="&#x44b;" horiz-adv-x="543" 
d="M37 500h94v-199h38q179 0 179 -142v-22q-1 -140 -179 -140h-132v503zM412 0v500h93v-500h-93zM255 144v3q0 37 -20.5 51.5t-73.5 14.5h-30v-131h30q52 0 72.5 14t21.5 48z" />
    <glyph glyph-name="afii10094" unicode="&#x44c;" horiz-adv-x="373" 
d="M37 500h94v-199h38q179 0 179 -142v-22q-1 -140 -179 -140h-132v503zM255 144v3q0 37 -20.5 51.5t-73.5 14.5h-30v-131h30q52 0 72.5 14t21.5 48z" />
    <glyph glyph-name="afii10095" unicode="&#x44d;" horiz-adv-x="379" 
d="M122 333h-92q0 48 14 84t37.5 55t50 28t56.5 9t57 -9t50.5 -28.5t38 -55t14.5 -83.5v-165q0 -48 -14.5 -83.5t-38 -55t-50.5 -28.5t-57 -9t-56.5 9t-50 28t-37.5 54.5t-14 84.5h92q2 -91 66 -91q31 0 48.5 22t17.5 76v34h-106v85h106v34q-1 53 -18.5 74.5t-47.5 21.5
q-63 0 -66 -91z" />
    <glyph glyph-name="afii10096" unicode="&#x44e;" horiz-adv-x="555" 
d="M204 296v37q0 48 14 83.5t38 55t50.5 28.5t56.5 9t57 -9t51 -28t38 -55t14 -84v-165q0 -48 -14 -84t-38 -55t-51 -28t-57 -9t-56.5 9t-50.5 28.5t-38 55t-14 83.5v44h-73v-212h-94v500h94v-204h73zM430 215v71q0 77 -17.5 107.5t-49.5 30.5q-33 0 -49 -30t-16 -108v-71
q0 -78 16 -108t50 -30q33 0 49.5 30t16.5 108z" />
    <glyph glyph-name="afii10097" unicode="&#x44f;" horiz-adv-x="374" 
d="M201 504h136v-504h-94v204l-55 -8l-69 -196h-94l76 228q-73 29 -74 112v23q0 141 174 141zM206 292h37v127h-36q-50 -1 -68 -16t-18 -50q0 -33 18 -47t67 -14z" />
    <glyph glyph-name="Wgrave" unicode="&#x1e80;" horiz-adv-x="780" 
d="M308 914h109l57 -151h-75zM634 700h112l-137 -700h-130l-89 430l-89 -430h-130l-137 700h112l97 -515l95 515h104l95 -515z" />
    <glyph glyph-name="wgrave" unicode="&#x1e81;" horiz-adv-x="637" 
d="M236 714h109l56 -151h-74zM515 500h94l-105 -500h-114l-71 317l-72 -317h-113l-106 500h94l76 -374l81 374h80l81 -374z" />
    <glyph glyph-name="Wacute" unicode="&#x1e82;" horiz-adv-x="780" 
d="M365 912h109l-92 -150h-74zM634 700h112l-137 -700h-130l-89 430l-89 -430h-130l-137 700h112l97 -515l95 515h104l95 -515z" />
    <glyph glyph-name="wacute" unicode="&#x1e83;" horiz-adv-x="637" 
d="M292 712h109l-91 -150h-74zM515 500h94l-105 -500h-114l-71 317l-72 -317h-113l-106 500h94l76 -374l81 374h80l81 -374z" />
    <glyph glyph-name="Wdieresis" unicode="&#x1e84;" horiz-adv-x="780" 
d="M272 900h95v-94h-95v94zM415 900h95v-94h-95v94zM634 700h112l-137 -700h-130l-89 430l-89 -430h-130l-137 700h112l97 -515l95 515h104l95 -515z" />
    <glyph glyph-name="wdieresis" unicode="&#x1e85;" horiz-adv-x="637" 
d="M200 700h95v-94h-95v94zM343 700h95v-94h-95v94zM515 500h94l-105 -500h-114l-71 317l-72 -317h-113l-106 500h94l76 -374l81 374h80l81 -374z" />
    <glyph glyph-name="Ygrave" unicode="&#x1ef2;" horiz-adv-x="518" 
d="M176 914h109l57 -151h-75zM368 700h116l-169 -423v-277h-114v276l-167 424h116l108 -297z" />
    <glyph glyph-name="ygrave" unicode="&#x1ef3;" horiz-adv-x="376" 
d="M105 714h109l57 -151h-75zM254 500l94 1v-504q-1 -46 -15.5 -80.5t-38 -53t-50 -27t-55.5 -8.5q-56 0 -99.5 30t-55.5 96h95q14 -41 59 -41q31 0 48.5 22t17.5 75v38q-31 -48 -95 -48q-55 0 -93 41.5t-38 134.5v324h94v-277q0 -78 16.5 -108t49.5 -30q32 0 49 30t17 108
v277z" />
    <glyph glyph-name="endash" unicode="&#x2013;" horiz-adv-x="472" 
d="M50 322h372v-108h-372v108z" />
    <glyph glyph-name="emdash" unicode="&#x2014;" horiz-adv-x="640" 
d="M50 322h540v-108h-540v108z" />
    <glyph glyph-name="quoteleft" unicode="&#x2018;" horiz-adv-x="203" 
d="M110 597h43v-101h-103v101l38 103h39z" />
    <glyph glyph-name="quoteright" unicode="&#x2019;" horiz-adv-x="203" 
d="M50 700h103v-102l-38 -102h-39l18 102h-44v102z" />
    <glyph glyph-name="quotesinglbase" unicode="&#x201a;" horiz-adv-x="203" 
d="M50 102h103v-102l-38 -103h-39l18 103h-44v102z" />
    <glyph glyph-name="quotedblleft" unicode="&#x201c;" horiz-adv-x="377" 
d="M127 700l-17 -103h43v-101h-103v101l38 103h39zM283 597h44v-101h-103v101l38 103h39z" />
    <glyph glyph-name="quotedblright" unicode="&#x201d;" horiz-adv-x="377" 
d="M50 598v102h103v-102l-38 -102h-39l18 102h-44zM224 700h103v-102l-38 -102h-39l17 102h-43v102z" />
    <glyph glyph-name="quotedblbase" unicode="&#x201e;" horiz-adv-x="203" 
d="M50 102h103v-102l-38 -103h-39l18 103h-44v102z" />
    <glyph glyph-name="dagger" unicode="&#x2020;" horiz-adv-x="408" 
d="M146 700h115v-200h97v-109h-97v-451h-114v451h-97v109h96v200z" />
    <glyph glyph-name="daggerdbl" unicode="&#x2021;" horiz-adv-x="408" 
d="M146 700h115v-200h97v-109h-97v-185h97v-108h-97v-158h-114v158h-97v108h97v185h-97v109h96v200z" />
    <glyph glyph-name="bullet" unicode="&#x2022;" horiz-adv-x="374" 
d="M186.5 452q64.5 0 110 -45t45.5 -110q0 -64 -45.5 -109.5t-110 -45.5t-109.5 45.5t-45 109.5q0 65 45 110t109.5 45z" />
    <glyph glyph-name="ellipsis" unicode="&#x2026;" horiz-adv-x="514" 
d="M50 0v102h103v-102h-103zM206 0v102h103v-102h-103zM361 0v102h103v-102h-103z" />
    <glyph glyph-name="perthousand" unicode="&#x2030;" horiz-adv-x="970" 
d="M50 451v143q0 31 12.5 55t31.5 35.5t37 17t35 5.5q18 0 37 -5.5t37.5 -18t30 -36t11.5 -53.5v-143q0 -30 -11.5 -53.5t-30 -35.5t-37 -18t-37.5 -7q-17 0 -35 5.5t-37 17.5t-31.5 35.5t-12.5 55.5zM482 700h78l-339 -700h-78zM212 449v147q0 23 -14.5 34t-31.5 11
q-16 0 -31 -11t-15 -34v-147q0 -24 15 -34.5t31 -10.5q18 0 32 11t14 34zM689 107v142q0 32 12 55.5t31 35.5t37.5 17.5t35.5 5.5q18 0 37 -6t37.5 -18.5t30 -35.5t11.5 -54v-142q0 -31 -11.5 -54t-30 -35.5t-37.5 -18.5t-37 -6q-17 0 -35.5 5.5t-37.5 17.5t-31 35.5
t-12 55.5zM420 107v142q0 32 12.5 55.5t31.5 35.5t37.5 17.5t35.5 5.5q18 0 37 -6t37 -18.5t30 -35.5t12 -54v-142q0 -31 -11.5 -54t-30 -35.5t-37.5 -18.5t-37 -6q-17 0 -35.5 5.5t-37.5 17.5t-31.5 35.5t-12.5 55.5zM851 104v148q0 22 -14.5 33.5t-31.5 11.5t-31.5 -11
t-14.5 -34v-148q0 -23 14.5 -34t31.5 -11t31.5 11.5t14.5 33.5zM583 104v148q0 22 -14.5 33.5t-31.5 11.5t-32 -11t-15 -34v-148q0 -23 15 -34t32 -11t31.5 11.5t14.5 33.5z" />
    <glyph glyph-name="guilsinglleft" unicode="&#x2039;" horiz-adv-x="246" 
d="M50 321l146 129v-111l-85 -73l85 -72v-112l-146 129v110z" />
    <glyph glyph-name="guilsinglright" unicode="&#x203a;" horiz-adv-x="246" 
d="M50 339v111l146 -129v-110l-146 -129v112l85 72z" />
    <glyph glyph-name="fraction" unicode="&#x2044;" horiz-adv-x="437" 
d="M27 0l297 700h86l-297 -700h-86z" />
    <glyph glyph-name="Euro" unicode="&#x20ac;" horiz-adv-x="513" 
d="M80 418v49q0 66 17.5 115t47.5 75.5t65 39t75 12.5q38 0 71.5 -11.5t63 -37.5t47 -73t18.5 -111v-19h-110l-1 16q-6 128 -89 128q-91 0 -91 -141v-42h227l-48 -48h-179v-40h139l-47 -47h-92v-41q0 -142 91 -142q84 0 90 129v16h110v-19q-1 -65 -18.5 -112t-47 -72.5
t-63 -37.5t-71.5 -12q-40 0 -75 12.5t-65 39t-47.5 75.5t-17.5 115v49h-50v47h50v40h-50v48h50z" />
    <glyph glyph-name="trademark" unicode="&#x2122;" horiz-adv-x="636" 
d="M15 625v75h229v-75h-73v-330h-82v330h-74zM516 700h105v-405h-82v249l-71 -178h-52l-71 178v-249h-83v405h105l74 -196z" />
    <glyph glyph-name="partialdiff" unicode="&#x2202;" horiz-adv-x="600" 
 />
    <glyph glyph-name="emptyset" unicode="&#x2205;" horiz-adv-x="614" 
d="M566 431l-44 -45q42 -61 42 -136q0 -107 -75.5 -182.5t-182.5 -75.5q-73 0 -135 43l-44 -44l-77 77l43 43q-45 62 -45 139q0 107 75.5 183t182.5 76q77 0 140 -45l43 44zM306 82q71 0 118.5 49t47.5 119t-47.5 119.5t-118.5 49.5t-118.5 -49.5t-47.5 -119.5t47.5 -119
t118.5 -49z" />
    <glyph glyph-name="product" unicode="&#x220f;" horiz-adv-x="600" 
 />
    <glyph glyph-name="summation" unicode="&#x2211;" horiz-adv-x="600" 
 />
    <glyph glyph-name="minus" unicode="&#x2212;" horiz-adv-x="556" 
d="M50 382h456v-108h-456v108z" />
    <glyph glyph-name="radical" unicode="&#x221a;" horiz-adv-x="600" 
 />
    <glyph glyph-name="infinity" unicode="&#x221e;" horiz-adv-x="600" 
 />
    <glyph glyph-name="integral" unicode="&#x222b;" horiz-adv-x="370" 
d="M242 722h78v-108h-34q-44 -1 -44 -70v-550q0 -67 -32.5 -100t-80.5 -33h-79v108h34q44 0 44 71v549q0 67 32.5 100t81.5 33z" />
    <glyph glyph-name="approxequal" unicode="&#x2248;" horiz-adv-x="548" 
d="M416 423h82q0 -73 -29.5 -120.5t-87.5 -47.5q-17 0 -34.5 5t-25.5 8.5t-32 17.5t-30 17q-43 26 -73 23q-25 -1 -39 -20.5t-14 -48.5h-83q0 75 31 124.5t92 49.5q25 0 44.5 -7.5t54.5 -25.5q3 -2 11 -7t10.5 -6.5t10.5 -6.5t10 -5.5t10.5 -4.5t10.5 -4t11 -3t11.5 -1.5
t11.5 0.5q23 1 35 18.5t12 44.5zM416 224h82q0 -73 -29.5 -120.5t-87.5 -47.5q-17 0 -34.5 5t-25.5 8.5t-32 17.5t-30 17q-42 25 -74 22q-25 -1 -38.5 -20t-13.5 -48h-83q0 75 31 124t92 49q17 0 34 -4.5t28.5 -10t36.5 -18.5q3 -1 10 -5.5t9.5 -6t9.5 -5.5t9.5 -5t9.5 -5
t9.5 -4t9.5 -3t9.5 -2.5t10 -1t10.5 0.5q23 1 35 18.5t12 44.5z" />
    <glyph glyph-name="notequal" unicode="&#x2260;" horiz-adv-x="522" 
d="M489 324h-156l-25 -67h181v-109h-221l-77 -212h-117l78 212h-119v109h159l24 67h-183v108h223l75 204h117l-75 -204h116v-108z" />
    <glyph glyph-name="lessequal" unicode="&#x2264;" horiz-adv-x="503" 
d="M50 362l403 198v-111l-212 -105l212 -106v-110l-403 198v36zM50 75h403v-109h-403v109z" />
    <glyph glyph-name="greaterequal" unicode="&#x2265;" horiz-adv-x="503" 
d="M50 449v111l403 -198v-36l-403 -198v110l212 106zM50 75h403v-109h-403v109z" />
    <glyph glyph-name="lozenge" unicode="&#x25ca;" horiz-adv-x="600" 
 />
    <glyph glyph-name="fi" unicode="&#xfb01;" horiz-adv-x="479" 
d="M232 709h38v-85h-13q-40 0 -55.5 -21t-16.5 -84v-19h85v-85h-85v-415h-93v415h-62v85h62v33q0 52 10 87t30.5 54t44 27t55.5 8zM339 668h103v-95h-103v95zM344 500h94v-500h-94v500z" />
    <glyph glyph-name="fl" unicode="&#xfb02;" horiz-adv-x="466" 
d="M232 709h38v-85h-14q-40 0 -55 -21.5t-16 -85.5v-17h85v-85h-85v-415h-93v415h-62v85h62v33q0 52 10 87t30.5 54t44 27t55.5 8zM339 700h94v-700h-94v700z" />
    <glyph glyph-name="K.ss01" horiz-adv-x="444" 
d="M284 700h116l-134 -313q52 -9 74 -19.5t38 -35.5q31 -53 31 -156v-176h-111v187q0 72 -27 101q-21 23 -70 23h-50v-311h-111v700h111v-290z" />
    <glyph glyph-name="R.ss01" horiz-adv-x="464" 
d="M46 0v704h155q109 0 166.5 -50.5t57.5 -149.5v-11q0 -104 -75 -153q28 -15 46 -40q33 -51 33 -140v-160h-111v173q0 63 -24 93q-23 29 -73 29h-65v-295h-110zM220 590h-63v-181h63q40 0 68 21t29 65v7q0 46 -27 67t-70 21z" />
    <glyph glyph-name="f.ss01" horiz-adv-x="246" 
d="M181 709h35v-85h-11q-43 0 -58.5 -21t-15.5 -88v-15h85v-85h-85v-415h-94v533q0 52 10.5 87.5t31 54.5t45 26.5t57.5 7.5z" />
    <glyph glyph-name="k.ss01" horiz-adv-x="375" 
d="M235 500h98l-103 -221q56 -10 80 -36q37 -44 37 -144v-99h-93v109q0 78 -31 103q-20 17 -65 17h-27v-229h-94v700h94v-423z" />
    <glyph glyph-name="t.ss01" horiz-adv-x="246" 
d="M131 416v-219q0 -72 15.5 -94.5t59.5 -23.5h10v-84h-34q-34 0 -58 7.5t-45 26t-31.5 54.5t-10.5 88v482h94v-153h85v-84h-85z" />
    <glyph glyph-name="afii10049.ss01" horiz-adv-x="464" 
d="M262 704h156v-704h-111v295h-64q-49 0 -73 -28q-24 -29 -24 -94v-173h-112v160q0 84 31 133q19 29 49 46q-75 49 -76 154v11q0 99 58 149.5t166 50.5zM307 409v181h-63q-43 0 -70 -21t-27 -67v-7q0 -44 28.5 -65t68.5 -21h63z" />
    <glyph glyph-name="afii10024.ss01" horiz-adv-x="696" 
d="M652 700l-134 -313q49 -8 69 -16.5t36 -27.5q39 -53 39 -167v-176h-112v187q0 80 -32 107q-21 17 -65 17h-49v-311h-111v311h-50q-48 0 -69 -22q-28 -28 -28 -102v-187h-112v176q0 109 35 163q16 21 37 30t72 18l-135 313h117l133 -290v290h111v-290l132 290h116z" />
    <glyph glyph-name="afii10097.ss01" horiz-adv-x="372" 
d="M336 504v-504h-94v204h-26q-55 0 -75 -24q-21 -27 -21 -93v-87h-94v77q0 81 24 124q12 24 32 40q-55 28 -55 99v23q0 141 173 141h136zM243 419h-37q-50 -1 -68 -16t-18 -50q0 -32 16 -46t61 -15h46v127z" />
    <glyph glyph-name="afii10076.ss01" horiz-adv-x="375" 
d="M235 500h98l-103 -221q33 -6 51.5 -14.5t32.5 -25.5q33 -45 33 -140v-99h-93v109q0 75 -29 101q-20 19 -67 19h-27v-229h-94v500h94v-223z" />
    <glyph glyph-name="afii10072.ss01" horiz-adv-x="583" 
d="M540 500l-103 -221q35 -7 53.5 -15t31.5 -26q33 -46 33 -140v-98h-94v109q0 72 -27 99q-20 21 -69 21h-27v-229h-94v229h-26q-48 0 -69 -19q-28 -27 -28 -101v-109h-93v98q0 98 36 143q13 16 30.5 23.5t50.5 14.5l-103 221h98l104 -223v223h94v-223l104 223h98z" />
    <glyph glyph-name="two.dnom" horiz-adv-x="246" 
d="M121 340h9q44 -1 74.5 -26t31.5 -78v-3q0 -31 -17.5 -56t-39.5 -38.5t-43.5 -33.5t-28.5 -40h125v-65h-219v33q0 29 11.5 53t28 38t36.5 27.5t36.5 24t28 25t11.5 31.5q0 21 -11.5 32t-25.5 11h-3q-36 0 -43 -45h-72l1 4q4 54 36 79.5t74 26.5z" />
    <glyph glyph-name="four.dnom" horiz-adv-x="263" 
d="M89 338h72l-78 -214h74v131h72v-131h24v-65h-24v-59h-71v59h-148v72z" />
    <glyph glyph-name="one.numr" horiz-adv-x="146" 
d="M21 700h104v-338h-72v273h-32v65z" />
    <glyph glyph-name="three.numr" horiz-adv-x="266" 
d="M129 705h10q42 0 72.5 -22.5t30.5 -71.5v-5q0 -24 -12 -43t-28 -24q18 -8 29.5 -28t12.5 -47v-5q-1 -49 -31 -72.5t-75 -24.5h-9q-41 0 -72.5 25t-35.5 76v2h67q3 -18 15 -27t27 -10h5q15 0 26 9t12 24v3q0 19 -12.5 30.5t-33.5 11.5h-31v66h31q18 0 31 8t13 24v3
q0 15 -10.5 24t-25.5 9h-5q-34 0 -41 -35h-67v2q4 48 35 73t72 25z" />
    </font>
</defs>
</svg>
