<?xml version="1.0" standalone="no"?>
<!DOCTYPE svg PUBLIC "-//W3C//DTD SVG 1.1//EN" "http://www.w3.org/Graphics/SVG/1.1/DTD/svg11.dtd" >
<svg xmlns="http://www.w3.org/2000/svg" xmlns:xlink="http://www.w3.org/1999/xlink" version="1.1">
<metadata>
Created by FontForge 20161116 at Fri Jan 11 12:35:41 2013
 By Jimmy Wärting
Copyright (c) 2012 by Mariya Pigoulevskaya. All rights reserved.
</metadata>
<defs>
<font id="Neusa-ExtraBold" horiz-adv-x="382" >
  <font-face 
    font-family="Neusa ExtraBold"
    font-weight="800"
    font-stretch="normal"
    units-per-em="1000"
    panose-1="0 0 9 0 0 0 0 0 0 0"
    ascent="750"
    descent="-250"
    x-height="500"
    cap-height="700"
    bbox="-39 -312 975 1079"
    underline-thickness="50"
    underline-position="-100"
    unicode-range="U+0020-FB02"
  />
<missing-glyph horiz-adv-x="250" 
 />
    <glyph glyph-name=".notdef" horiz-adv-x="250" 
 />
    <glyph glyph-name=".null" horiz-adv-x="0" 
 />
    <glyph glyph-name="nonmarkingreturn" horiz-adv-x="333" 
 />
    <glyph glyph-name="space" unicode=" " horiz-adv-x="300" 
 />
    <glyph glyph-name="exclam" unicode="!" horiz-adv-x="241" 
d="M52 700h137v-240l-18 -249h-101l-18 248v241zM50 0v139h141v-139h-141z" />
    <glyph glyph-name="quotedbl" unicode="&#x22;" horiz-adv-x="371" 
d="M24 700h141l-22 -294h-97zM207 700h140l-22 -294h-97z" />
    <glyph glyph-name="numbersign" unicode="#" horiz-adv-x="676" 
d="M615 366h-75l-14 -52h75l-43 -152h-78l-46 -162h-164l46 162h-61l-47 -162h-164l46 162h-74l46 152h74l13 52h-74l46 152h74l52 182h165l-52 -182h61l52 182h165l-52 -182h75zM362 314l13 52h-61l-13 -52h61z" />
    <glyph glyph-name="dollar" unicode="$" horiz-adv-x="451" 
d="M423 475h-151q0 82 -44 82q-43 0 -43 -69q0 -16 5 -27t17.5 -17t23 -9t31.5 -6q48 -7 82.5 -27.5t53.5 -49.5t27.5 -60t8.5 -65q0 -175 -126 -220v-57h-162v56q-57 19 -92.5 72t-36.5 145h152q0 -79 54 -79t54 66q0 36 -19 49.5t-76 23.5q-26 4 -50 15t-49 32t-40 59
t-15 89q0 88 32 140t86 73v59h162v-57q115 -46 115 -218z" />
    <glyph glyph-name="percent" unicode="%" horiz-adv-x="739" 
d="M50 430v154q0 35 13.5 60.5t34 38.5t40.5 19t38 6q20 0 40 -6.5t40 -20t33 -38.5t13 -59v-154q0 -33 -13 -58t-33 -38.5t-40 -20t-40 -6.5q-18 0 -38 6t-40.5 18.5t-34 38.5t-13.5 60zM462 700h106l-292 -700h-105zM207 426v162q0 15 -10 22.5t-21 7.5t-21 -7t-10 -23
v-162q0 -15 10 -22.5t21 -7.5q12 1 21.5 8t9.5 22zM437 116v154q0 35 13.5 60.5t34 38.5t40.5 19t38 6q20 0 40.5 -6.5t40.5 -20t32.5 -39t12.5 -58.5v-154q0 -33 -12.5 -58t-32.5 -38.5t-40.5 -20t-40.5 -6.5q-18 0 -38 6t-40.5 19t-34 38.5t-13.5 59.5zM594 112v162
q0 15 -9.5 22.5t-21.5 7.5q-11 0 -21 -7t-10 -23v-162q0 -15 10 -22.5t21 -7.5q12 0 21.5 7.5t9.5 22.5z" />
    <glyph glyph-name="ampersand" unicode="&#x26;" horiz-adv-x="541" 
d="M518 427v-149h-33v-52q0 -69 -17.5 -116t-50.5 -72t-71 -35.5t-88 -10.5h-7q-227 1 -229 221v6q0 47 17.5 84t42.5 49q-24 13 -41 49.5t-18 82.5v6q3 219 224 218h38v-151h-38q-63 0 -63 -64v-5q0 -27 16 -44t48 -17h80v111h157v-111h33zM328 230v48h-80q-64 0 -65 -62
v-6q0 -26 17.5 -46t54.5 -20h5q39 1 53.5 21t14.5 65z" />
    <glyph glyph-name="quotesingle" unicode="'" horiz-adv-x="240" 
d="M50 700h140l-21 -294h-97z" />
    <glyph glyph-name="parenleft" unicode="(" horiz-adv-x="333" 
d="M231 750h52v-152h-21q-21 0 -36 -16t-15 -40v-473q0 -24 15 -40t36 -16h21v-152h-52q-82 0 -131.5 48t-49.5 134v525q0 86 49.5 134t131.5 48z" />
    <glyph glyph-name="parenright" unicode=")" horiz-adv-x="333" 
d="M50 750h51q83 0 132.5 -48t49.5 -134v-525q0 -86 -49.5 -134t-132.5 -48h-51v152h21q21 0 36 16t15 40v473q0 24 -15 40t-36 16h-21v152z" />
    <glyph glyph-name="asterisk" unicode="*" horiz-adv-x="507" 
d="M186 717h140l-8 -122l114 45l43 -134l-118 -30l78 -94l-114 -82l-65 103l-65 -103l-114 82l79 94l-119 30l43 134l114 -45z" />
    <glyph glyph-name="plus" unicode="+" horiz-adv-x="576" 
d="M207 498h162v-158h158v-153h-157v-157h-162v157h-158v153h157v158z" />
    <glyph glyph-name="comma" unicode="," horiz-adv-x="241" 
d="M50 139h141v-139l-50 -143h-55l24 143h-60v139z" />
    <glyph glyph-name="hyphen" unicode="-" horiz-adv-x="348" 
d="M50 344h248v-152h-248v152z" />
    <glyph glyph-name="period" unicode="." horiz-adv-x="241" 
d="M50 0v139h141v-139h-141z" />
    <glyph glyph-name="slash" unicode="/" horiz-adv-x="424" 
d="M16 0l227 700h165l-228 -700h-164z" />
    <glyph glyph-name="zero" unicode="0" horiz-adv-x="462" 
d="M24 234v192q0 67 18 116t48.5 75.5t65 38.5t74.5 12t74.5 -12t65.5 -38.5t49.5 -75.5t18.5 -116v-192q0 -67 -18.5 -116t-49.5 -75.5t-65.5 -38.5t-74.5 -12t-74.5 12.5t-65 39t-48.5 75.5t-18 115zM277 241v180q0 95 -47 95q-24 0 -34.5 -23.5t-10.5 -71.5v-180
q0 -49 10.5 -73t34.5 -24q47 0 47 97z" />
    <glyph glyph-name="one" unicode="1" horiz-adv-x="261" 
d="M15 660h221v-660h-162v508h-59v152z" />
    <glyph glyph-name="two" unicode="2" horiz-adv-x="443" 
d="M220 668h7q37 -1 71 -12.5t64 -36t48 -68t18 -100.5v-3q0 -49 -18 -88t-46.5 -65t-57.5 -46.5t-58.5 -45.5t-43.5 -51h218v-152h-406v75q0 45 11 83t28.5 64t40 49.5t46 39.5t46 33t40 31t28.5 32.5t11 38.5q0 30 -11.5 50t-32.5 20h-4q-37 -2 -43 -84h-161l1 5
q1 63 19.5 109.5t48.5 72t64 37.5t72 12z" />
    <glyph glyph-name="three" unicode="3" horiz-adv-x="441" 
d="M218 669h5q37 0 70.5 -10t63.5 -32t48 -62.5t19 -96.5v-6q0 -45 -17.5 -81t-41.5 -49q25 -12 42.5 -48.5t17.5 -82.5v-5q0 -55 -17.5 -96t-47 -63.5t-63.5 -33.5t-74 -11h-5q-38 0 -72 11.5t-64 36t-48 67.5t-19 101v5h157q4 -69 47 -69h4q20 1 30.5 14.5t10.5 32.5v4
q0 28 -15.5 45.5t-48.5 17.5h-54v149h54q32 0 47.5 16.5t15.5 44.5v3q0 17 -12 31.5t-30 14.5h-4q-40 -2 -45 -67h-157l1 5q1 57 19 100t47.5 67t63.5 35.5t72 11.5z" />
    <glyph glyph-name="four" unicode="4" horiz-adv-x="484" 
d="M469 251v-152h-35v-99h-161v99h-249v185l93 385h158l-91 -418h89v249h161v-249h35z" />
    <glyph glyph-name="five" unicode="5" horiz-adv-x="441" 
d="M37 669h351v-153h-190v-106l39 3q35 1 58 -4q36 -6 63 -26t41 -49t20.5 -59.5t6.5 -65.5v-18q-1 -52 -19 -92t-47 -62t-62.5 -33t-71.5 -12h-8q-37 0 -71 11.5t-64 35.5t-48 67.5t-19 100.5v6h157q3 -70 47 -70h4q41 2 41 67v15q0 33 -16.5 43t-63.5 10h-148v391z" />
    <glyph glyph-name="six" unicode="6" horiz-adv-x="449" 
d="M16 228v200q0 66 18 115t48.5 75.5t65.5 39t75 12.5q38 0 71.5 -11.5t64 -35.5t49.5 -68.5t20 -105.5h-160q-1 34 -12.5 51t-32.5 17q-52 0 -52 -94v-48q29 28 78 30h11q41 1 72 -11t50 -32.5t31 -48.5t16.5 -56t4.5 -59q0 -41 -9.5 -75.5t-31 -65t-62 -48t-97.5 -17.5
h-17q-44 1 -78 12t-63 36t-44.5 72.5t-15.5 115.5zM221 144h8q22 0 33 12.5t11 41.5q0 55 -44 55h-8q-44 0 -44 -55q0 -29 11 -41.5t33 -12.5z" />
    <glyph glyph-name="seven" unicode="7" horiz-adv-x="437" 
d="M19 669h402v-123l-211 -546h-162l200 516h-229v153z" />
    <glyph glyph-name="eight" unicode="8" horiz-adv-x="451" 
d="M217 669h16q64 0 111 -29.5t68 -73.5t21 -96v-5q0 -85 -58 -134q61 -41 61 -128v-5q0 -88 -51.5 -146t-150.5 -58h-16q-99 0 -150.5 58t-51.5 146v5q1 86 60 127q-59 49 -59 135v5q0 52 21 96t68 73.5t111 29.5zM272 466v3q0 28 -13 38t-31 9h-7q-18 1 -30.5 -9
t-13.5 -38v-3q0 -30 12.5 -39.5t33.5 -9.5h3q21 0 33.5 9.5t12.5 39.5zM275 201v5q0 35 -12.5 47.5t-35.5 12.5h-3q-22 0 -34.5 -12.5t-12.5 -47.5v-5q0 -33 12.5 -44t32.5 -11h7q21 0 33 11t13 44z" />
    <glyph glyph-name="nine" unicode="9" horiz-adv-x="448" 
d="M434 434v-200q0 -66 -18 -115t-49 -75.5t-66 -39t-75 -12.5q-37 0 -71 11t-64.5 35t-49 69t-20.5 105h161q1 -33 12.5 -50.5t31.5 -17.5q53 0 53 95v48q-29 -29 -78 -30h-12q-40 -1 -71.5 11t-50.5 32.5t-31 48.5t-16.5 56t-4.5 59q0 41 9.5 75.5t31 65t62 48t97.5 17.5
h17q44 -1 78 -12t63 -36t45 -72.5t16 -115.5zM229 518h-9q-22 0 -33 -12.5t-11 -41.5q0 -55 44 -55h9q43 0 43 55q0 29 -11 41.5t-32 12.5z" />
    <glyph glyph-name="colon" unicode=":" horiz-adv-x="241" 
d="M50 341v139h141v-139h-141zM50 0v139h141v-139h-141z" />
    <glyph glyph-name="semicolon" unicode=";" horiz-adv-x="241" 
d="M50 480h141v-139h-141v139zM50 0v139h141v-139l-50 -143h-55l24 143h-60z" />
    <glyph glyph-name="less" unicode="&#x3c;" horiz-adv-x="559" 
d="M50 300l460 211v-153l-182 -79l182 -77v-154l-460 210v42z" />
    <glyph glyph-name="equal" unicode="=" horiz-adv-x="577" 
d="M50 429h477v-152h-477v152zM50 238h477v-152h-477v152z" />
    <glyph glyph-name="greater" unicode="&#x3e;" horiz-adv-x="559" 
d="M50 358v153l459 -211v-42l-459 -210v154l182 77z" />
    <glyph glyph-name="question" unicode="?" horiz-adv-x="513" 
d="M251 702h7q38 0 72.5 -11.5t65 -36t49 -68t18.5 -102.5v-1q-1 -40 -10 -69.5t-23.5 -47t-32 -31t-35 -24t-32 -23t-23.5 -32.5t-9 -47h-130q0 49 10 85t24.5 54t32 33.5t32.5 25.5t25 29t10 44q0 30 -11.5 50t-32.5 20h-3q-39 -2 -44 -84h-161v5q2 62 19.5 108t47 72
t63 38t71.5 13zM163 139h141v-139h-141v139z" />
    <glyph glyph-name="at" unicode="@" horiz-adv-x="865" 
d="M553 -176h-141q-362 0 -362 439q-1 119 25.5 204t78 135t120 73t159.5 22q92 0 160.5 -18.5t110.5 -49t67 -77.5t34.5 -98.5t9.5 -119.5v-172q0 -74 -43.5 -120.5t-128.5 -46.5q-95 -1 -143 50q-34 -51 -103 -51q-24 0 -45.5 9t-41 28.5t-30.5 55t-11 83.5v165
q0 48 11 84t30.5 55t41 28t45.5 9q64 0 98 -43l18 34h90v-340q0 -24 8.5 -36.5t29.5 -12.5q23 0 33 12.5t10 40.5v179q-1 47 -6 79t-20 63t-41.5 50t-72 30t-108.5 12q-53 0 -90.5 -7t-71 -27t-53.5 -55t-31 -91.5t-11 -135.5q0 -167 58.5 -244t175.5 -77h140v-118zM400 269
v-33q1 -75 7.5 -99t28.5 -24t29 25t6 98v33q0 73 -7.5 98.5t-28.5 25.5t-28 -25t-7 -99z" />
    <glyph glyph-name="A" unicode="A" horiz-adv-x="500" 
d="M322 0l-23 136h-97l-24 -136h-156l127 700h201l128 -700h-156zM218 292h63l-31 232z" />
    <glyph glyph-name="B" unicode="B" horiz-adv-x="446" 
d="M29 700h189q38 0 72.5 -9t64 -28t46.5 -52t17 -76v-45q0 -86 -68 -129q82 -45 82 -146v-38q0 -85 -56 -131t-154 -46h-193v700zM266 484v7q0 28 -14.5 42t-36.5 14h-30v-119h30q22 0 36.5 14t14.5 42zM272 215v7q0 31 -14.5 46.5t-39.5 15.5h-33v-132h33q24 0 39 15.5
t15 47.5z" />
    <glyph glyph-name="C" unicode="C" horiz-adv-x="450" 
d="M27 234v233q0 66 18 115t48.5 75.5t65 39t74.5 12.5q39 0 73 -12t64 -38t47.5 -74.5t18.5 -114.5v-23h-157v19q-3 91 -46 91q-24 0 -34.5 -23.5t-10.5 -72.5v-220q0 -49 10.5 -73t34.5 -24q43 0 46 91v20h157v-24q-1 -66 -18.5 -114.5t-47.5 -74.5t-64 -38t-73 -12
q-40 0 -74.5 12.5t-65 39t-48.5 75.5t-18 115z" />
    <glyph glyph-name="D" unicode="D" horiz-adv-x="456" 
d="M29 700h197q40 0 73.5 -11t64 -36.5t48 -75t17.5 -119.5v-216q0 -70 -17.5 -119.5t-48 -75t-64 -36.5t-73.5 -11h-197v700zM273 249v203q0 96 -47 96h-41v-396h41q47 0 47 97z" />
    <glyph glyph-name="E" unicode="E" horiz-adv-x="346" 
d="M332 548h-147v-120h137v-152h-137v-124h147v-152h-303v700h303v-152z" />
    <glyph glyph-name="F" unicode="F" horiz-adv-x="337" 
d="M322 548h-137v-131h127v-152h-127v-265h-156v700h293v-152z" />
    <glyph glyph-name="G" unicode="G" horiz-adv-x="455" 
d="M27 234v233q0 67 17 115.5t47 75t64 39t74 12.5q39 0 72.5 -12t63 -38.5t46.5 -75t17 -115.5v-10h-153v6q-1 93 -46 93q-24 0 -34.5 -23.5t-10.5 -72.5v-220q0 -49 10.5 -73t34.5 -24q46 0 46 91v20h-48v152h202v-173q0 -67 -17 -116t-46.5 -75.5t-63.5 -38.5t-73 -12
q-86 0 -144 57t-58 185z" />
    <glyph glyph-name="H" unicode="H" horiz-adv-x="456" 
d="M271 700h156v-700h-156v276h-86v-276h-156v700h156v-272h86v272z" />
    <glyph glyph-name="I" unicode="I" horiz-adv-x="219" 
d="M29 0v700h162v-700h-162z" />
    <glyph glyph-name="J" unicode="J" horiz-adv-x="317" 
d="M132 700h157v-466q0 -66 -17.5 -115t-47 -75.5t-63 -39t-72.5 -12.5h-67v152h38q72 1 72 97v459z" />
    <glyph glyph-name="K" unicode="K" horiz-adv-x="498" 
d="M477 0h-181l-105 278v-278h-162v700h162v-265l95 266h176l-129 -348z" />
    <glyph glyph-name="L" unicode="L" horiz-adv-x="344" 
d="M185 152h137v-152h-293v700h156v-548z" />
    <glyph glyph-name="M" unicode="M" horiz-adv-x="618" 
d="M395 700h195v-700h-152v340l-83 -340h-94l-83 340v-340h-151v700h194l87 -364z" />
    <glyph glyph-name="N" unicode="N" horiz-adv-x="496" 
d="M318 700h152v-700h-154l-138 339v-339h-151v700h154l137 -339v339z" />
    <glyph glyph-name="O" unicode="O" horiz-adv-x="465" 
d="M26 234v233q0 66 17.5 115t48 75.5t65.5 39t75 12.5q39 0 74 -12t66 -38.5t49 -75.5t18 -116v-233q0 -67 -18 -116t-49 -75.5t-66 -38.5t-74 -12q-40 0 -75 12.5t-65.5 39t-48 75.5t-17.5 115zM278 241v220q0 96 -46 96q-24 0 -34.5 -23.5t-10.5 -72.5v-220
q0 -49 10.5 -73t34.5 -24q46 0 46 97z" />
    <glyph glyph-name="P" unicode="P" horiz-adv-x="448" 
d="M29 700h163q35 0 66 -5.5t62 -20t53 -36.5t35.5 -57t13.5 -79v-49q0 -51 -17.5 -89t-48 -60.5t-66 -34t-76.5 -14.5h-29v-255h-156v700zM270 473v8q0 35 -15.5 51.5t-37.5 16.5h-32v-143h32q22 0 37.5 16.5t15.5 50.5z" />
    <glyph glyph-name="Q" unicode="Q" horiz-adv-x="493" 
d="M466 145v-152h-216q-10 -1 -21 -1q-40 0 -74 12.5t-64 39t-47 75t-17 115.5v233q0 67 17 115.5t47 75t64 39t74 12.5q39 0 73.5 -12t64.5 -38.5t47.5 -75.5t17.5 -116v-233q0 -49 -10 -89h44zM184 461v-220q0 -49 10.5 -73t34.5 -24q3 0 6 1v0q40 6 40 96v220
q0 96 -46 96q-24 0 -34.5 -23.5t-10.5 -72.5z" />
    <glyph glyph-name="R" unicode="R" horiz-adv-x="461" 
d="M29 700h164q35 0 66.5 -5.5t62 -20t52.5 -36.5t36 -57t14 -79v-48q0 -98 -71 -147l87 -307h-166l-59 256h-30v-256h-156v700zM271 475v6q0 35 -15 51.5t-38 16.5h-33v-141h33q22 0 37.5 16t15.5 51z" />
    <glyph glyph-name="S" unicode="S" horiz-adv-x="451" 
d="M17 223h152q0 -79 54 -79t54 66q0 36 -19 49.5t-76 23.5q-26 4 -50 14.5t-49 31.5t-40 59.5t-15 89.5q0 63 17 110t46.5 72t63.5 37t73 12q38 0 71 -11.5t62 -37t45.5 -72.5t16.5 -113h-151q0 82 -44 82q-43 0 -43 -69q0 -16 5 -27t17.5 -17t23 -9t31.5 -6
q48 -7 82.5 -27.5t53.5 -49.5t27.5 -60t8.5 -66q0 -65 -17 -111.5t-47.5 -72.5t-66.5 -38t-79 -12q-42 0 -76.5 11.5t-64.5 37t-47.5 72.5t-18.5 110z" />
    <glyph glyph-name="T" unicode="T" horiz-adv-x="412" 
d="M391 700v-152h-107v-548h-156v548h-106v152h369z" />
    <glyph glyph-name="U" unicode="U" horiz-adv-x="459" 
d="M185 232v468h-156v-475q0 -66 17 -113.5t46.5 -72.5t63.5 -36t74 -11t73.5 11t64 35.5t48 72.5t17.5 114v475h-157v-468q0 -47 -11 -67.5t-35 -20.5t-34.5 20.5t-10.5 67.5z" />
    <glyph glyph-name="V" unicode="V" horiz-adv-x="502" 
d="M322 700h158l-127 -700h-205l-126 700h158l71 -451z" />
    <glyph glyph-name="W" unicode="W" horiz-adv-x="757" 
d="M577 700h158l-120 -700h-186l-51 314l-51 -314h-186l-119 700h158l65 -442l61 442h145l61 -442z" />
    <glyph glyph-name="X" unicode="X" horiz-adv-x="514" 
d="M485 700l-124 -339l131 -361h-162l-72 209l-74 -209h-162l129 360l-120 340h162l64 -199l65 199h163z" />
    <glyph glyph-name="Y" unicode="Y" horiz-adv-x="523" 
d="M339 700h163l-159 -435v-265h-163v265l-158 435h162l77 -255z" />
    <glyph glyph-name="Z" unicode="Z" horiz-adv-x="437" 
d="M187 152h232v-152h-402v126l231 422h-223v152h391v-129z" />
    <glyph glyph-name="bracketleft" unicode="[" horiz-adv-x="326" 
d="M276 598h-65v-585h65v-153h-226v890h226v-152z" />
    <glyph glyph-name="backslash" unicode="\" horiz-adv-x="424" 
d="M16 700h165l227 -700h-164z" />
    <glyph glyph-name="bracketright" unicode="]" horiz-adv-x="326" 
d="M50 750h226v-890h-226v153h65v585h-65v152z" />
    <glyph glyph-name="asciicircum" unicode="^" horiz-adv-x="444" 
d="M50 482l172 216l172 -216h-111l-61 71l-61 -71h-111z" />
    <glyph glyph-name="underscore" unicode="_" horiz-adv-x="514" 
d="M50 -1h414v-153h-414v153z" />
    <glyph glyph-name="grave" unicode="`" horiz-adv-x="316" 
d="M59 720h143l55 -171h-101z" />
    <glyph glyph-name="a" unicode="a" 
d="M267 500h90v-500h-90l-17 37q-34 -45 -99 -45q-24 0 -45.5 9t-40.5 28.5t-30.5 55t-11.5 83.5v165q0 48 11.5 83.5t30.5 55t40.5 28.5t45.5 9q64 0 98 -43zM154 267v-33q1 -75 7.5 -99.5t28.5 -24.5t29 25t6 99v33q0 73 -7.5 98.5t-27.5 25.5q-22 0 -29 -25t-7 -99z" />
    <glyph glyph-name="b" unicode="b" 
d="M157 700v-218q30 27 79 27q52 0 88 -42t36 -134v-165q0 -92 -36 -134t-88 -42q-66 0 -102 46l-18 -38h-90v700h131zM229 234v33q0 74 -7 99t-29 25q-20 0 -27.5 -25.5t-7.5 -98.5v-33q-1 -74 6 -99t28 -25q23 0 29.5 24.5t7.5 99.5z" />
    <glyph glyph-name="c" unicode="c" horiz-adv-x="374" 
d="M23 168v165q0 48 14.5 83.5t40 55t53 28.5t58.5 9t58 -9t51.5 -28t39.5 -54t15 -83v-28h-128q-1 47 -9 65.5t-27 18.5q-21 0 -28 -25t-7 -99v-33q1 -75 7.5 -99.5t28.5 -24.5q19 0 27.5 18.5t8.5 65.5h127v-28q0 -47 -14.5 -82.5t-39.5 -54.5t-52 -28t-58 -9t-58.5 9
t-52.5 28.5t-40 55t-15 83.5z" />
    <glyph glyph-name="d" unicode="d" 
d="M226 700h131v-700h-90l-18 38q-36 -46 -103 -46q-51 0 -87 42t-36 134v165q0 92 36 134t87 42q50 0 80 -28v219zM154 267v-33q1 -75 7.5 -99.5t28.5 -24.5t29 25t6 99v33q0 73 -7.5 98.5t-27.5 25.5q-22 0 -29 -25t-7 -99z" />
    <glyph glyph-name="e" unicode="e" horiz-adv-x="378" 
d="M23 168v165q0 48 15 83.5t40 55t52.5 28.5t58.5 9t59 -9t53 -28t40 -55t15 -84v-128h-202v-15q0 -45 8 -62t28 -18q17 0 25.5 13t9.5 44h131q0 -48 -15 -83.5t-40.5 -54.5t-53 -28t-58.5 -9t-58.5 9t-52.5 28.5t-40 55t-15 83.5zM225 301l-1 20q0 38 -9 53.5t-26 16.5
q-18 -1 -26.5 -16t-8.5 -55v-19h71z" />
    <glyph glyph-name="f" unicode="f" horiz-adv-x="287" 
d="M214 709h51v-118h-15q-28 0 -38 -17t-11 -63v-11h64v-118h-64v-382h-131v382h-48v118h48v33q0 95 40 135.5t104 40.5z" />
    <glyph glyph-name="g" unicode="g" horiz-adv-x="383" 
d="M23 176v157q0 92 36 134t87 42q67 0 103 -46l18 38h90v-498q0 -47 -15 -83t-40 -55t-52.5 -28t-58.5 -9q-27 0 -52.5 7t-49.5 22.5t-40.5 43.5t-21.5 66h133q7 -20 30 -20q19 0 27 14t8 49l1 18q-30 -28 -80 -28q-51 0 -87 41.5t-36 134.5zM225 235v32q1 73 -6 98t-29 25
t-28.5 -24t-7.5 -99v-32q0 -74 7 -99t29 -25q20 0 27.5 25.5t7.5 98.5z" />
    <glyph glyph-name="h" unicode="h" horiz-adv-x="384" 
d="M158 700v-220q31 29 80 29q51 0 87 -42t36 -134v-333h-131v267q0 74 -7 99t-28 25q-20 0 -28.5 -19t-8.5 -68v-304h-131v700h131z" />
    <glyph glyph-name="i" unicode="i" horiz-adv-x="194" 
d="M27 561v128h142v-128h-142zM32 0v500h132v-500h-132z" />
    <glyph glyph-name="j" unicode="j" horiz-adv-x="251" 
d="M84 689h142v-128h-142v128zM89 500h132v-496q0 -96 -40 -136.5t-104 -40.5h-51v118h14q31 1 40.5 20.5t8.5 72.5v462z" />
    <glyph glyph-name="k" unicode="k" 
d="M363 0h-135l-70 188v-188h-132v700h132v-372l64 172h135l-81 -243z" />
    <glyph glyph-name="l" unicode="l" horiz-adv-x="181" 
d="M27 0v700h132v-700h-132z" />
    <glyph glyph-name="m" unicode="m" horiz-adv-x="585" 
d="M116 500l20 -37q36 46 99 46q64 0 96 -56q37 56 107 56q51 0 87.5 -42t36.5 -134v-333h-132v267q0 74 -7 99t-28 25q-17 0 -25.5 -13t-10.5 -45v-333h-131v267q0 74 -7 99t-29 25q-18 0 -26.5 -16.5t-8.5 -58.5v-316h-131v500h90z" />
    <glyph glyph-name="n" unicode="n" horiz-adv-x="383" 
d="M116 500l20 -38q36 47 100 47q52 0 88 -42t36 -134v-333h-131v267q0 74 -7 99t-29 25q-19 0 -27.5 -19t-8.5 -68v-304h-131v500h90z" />
    <glyph glyph-name="o" unicode="o" horiz-adv-x="379" 
d="M23 168v165q0 48 15 83.5t40 55t52.5 28.5t58.5 9t59 -9t53 -28t40 -55t15 -84v-165q0 -48 -15 -84t-40 -55t-53 -28t-59 -9t-58.5 9t-52.5 28.5t-40 55t-15 83.5zM225 234v33q0 73 -7.5 98.5t-28.5 25.5t-28 -25t-7 -99v-33q1 -75 7.5 -99.5t28.5 -24.5t29 25.5t6 98.5z
" />
    <glyph glyph-name="p" unicode="p" horiz-adv-x="383" 
d="M116 501l19 -38q35 46 102 46q51 0 87.5 -42t36.5 -134v-165q0 -93 -36.5 -134.5t-87.5 -41.5q-49 0 -80 27v-182h-131v664h90zM229 234v33q0 75 -7 99t-29 24t-28.5 -25t-6.5 -98v-33q0 -73 7.5 -98.5t28.5 -25.5t28 25t7 99z" />
    <glyph glyph-name="q" unicode="q" 
d="M267 501h90v-664h-131v182q-30 -27 -80 -27q-51 0 -87 41.5t-36 134.5v165q0 92 36 134t87 42q67 0 103 -46zM154 267v-33q0 -74 7 -99t29 -25q20 0 27.5 25.5t7.5 98.5v33q1 73 -6 98t-29 25t-28.5 -24t-7.5 -99z" />
    <glyph glyph-name="r" unicode="r" horiz-adv-x="283" 
d="M116 500l25 -51q48 60 123 60v-118q-54 0 -80 -27t-27 -94v-270h-131v500h90z" />
    <glyph glyph-name="s" unicode="s" horiz-adv-x="361" 
d="M147 160l-1 -14q1 -17 10.5 -26t24.5 -9q34 0 34 34q0 33 -16.5 46t-55.5 19q-53 6 -88.5 43t-35.5 98q0 79 44.5 118.5t115.5 39.5q69 0 115 -40.5t46 -110.5v-9h-131v7q0 17 -8.5 26t-20.5 9q-30 0 -30 -31q1 -34 38 -41q47 -8 79.5 -24.5t49 -40t23.5 -48t7 -54.5
q0 -80 -45.5 -120t-120.5 -40q-67 0 -116 40.5t-50 110.5v17h132z" />
    <glyph glyph-name="t" unicode="t" horiz-adv-x="287" 
d="M201 382v-179q0 -55 9.5 -74.5t40.5 -19.5h14v-118h-51q-145 0 -144 178v213h-48v118h48v153h131v-153h64v-118h-64z" />
    <glyph glyph-name="u" unicode="u" horiz-adv-x="381" 
d="M227 500h131v-500h-90l-20 38q-37 -47 -101 -47q-51 0 -87.5 42t-36.5 134v333h132v-267q0 -74 7 -99t28 -25q20 0 28 19t9 68v304z" />
    <glyph glyph-name="v" unicode="v" horiz-adv-x="427" 
d="M277 500h132l-119 -499h-152l-119 499h132l63 -297z" />
    <glyph glyph-name="w" unicode="w" horiz-adv-x="607" 
d="M457 500h132l-88 -500h-161l-36 242l-36 -242h-161l-88 500h132l47 -327l51 327h110l51 -327z" />
    <glyph glyph-name="x" unicode="x" horiz-adv-x="418" 
d="M394 500l-80 -243l86 -257h-135l-55 151l-56 -151h-135l86 256l-80 244h136l49 -176l49 176h135z" />
    <glyph glyph-name="y" unicode="y" horiz-adv-x="373" 
d="M223 501h131v-499q-1 -48 -15.5 -83t-39.5 -54t-53 -28t-58 -9q-28 0 -53.5 7t-49 22.5t-40.5 43.5t-22 66h133q7 -20 31 -20q18 0 26.5 14t8.5 48l1 19q-31 -28 -80 -28q-51 0 -87.5 42t-36.5 134v324h132v-258q0 -74 7 -99t28 -25t28.5 25.5t8.5 98.5v259z" />
    <glyph glyph-name="z" unicode="z" horiz-adv-x="343" 
d="M164 118h160v-118h-305v96l159 286h-147v118h288v-97z" />
    <glyph glyph-name="braceleft" unicode="{" horiz-adv-x="417" 
d="M316 750h52v-152h-21q-21 0 -36 -16t-15 -40v-79q0 -136 -94 -150q94 -15 94 -131v-113q0 -24 15 -40t36 -16h21v-152h-52q-82 0 -131 47.5t-51 134.5v90q-1 35 -5.5 55.5t-15.5 30.5t-23 13t-35 5h-5v152h5q23 1 35.5 3.5t23.5 12.5t15.5 30t5.5 54v79q2 87 50.5 134.5
t130.5 47.5z" />
    <glyph glyph-name="bar" unicode="|" horiz-adv-x="261" 
d="M50 700h162v-760h-162v760z" />
    <glyph glyph-name="braceright" unicode="}" horiz-adv-x="417" 
d="M50 750h51q82 0 131 -47.5t51 -134.5v-81q1 -33 5.5 -52.5t15.5 -29.5t23 -12.5t36 -3.5h5v-153h-5q-24 -1 -36 -4t-23 -13.5t-15.5 -31.5t-5.5 -57v-87q-2 -87 -50.5 -134.5t-131.5 -47.5h-51v152h21q21 0 36 16t15 40v113q0 117 93 131q-93 15 -93 150v79q0 24 -15 40
t-36 16h-21v152z" />
    <glyph glyph-name="asciitilde" unicode="~" horiz-adv-x="533" 
d="M164 210h-114q0 83 31.5 137t94.5 54q16 0 31 -3.5t26 -7.5t39 -16q46 -22 69 -18q28 5 29 43h113q0 -82 -30.5 -136t-93.5 -54q-10 0 -18.5 1t-20 5t-16.5 5.5t-23 10t-24 11.5q-37 16 -59 12q-34 -4 -34 -44z" />
    <glyph glyph-name="exclamdown" unicode="&#xa1;" horiz-adv-x="241" 
d="M50 537h141v-139h-141v139zM70 327h101l18 -250v-240h-137v241z" />
    <glyph glyph-name="cent" unicode="&#xa2;" horiz-adv-x="375" 
d="M124 601h132v-105q96 -35 97 -161v-28h-128q-1 47 -9 65.5t-27 18.5q-21 0 -28 -25t-7 -99v-33q1 -75 7.5 -99.5t28.5 -24.5q19 0 27.5 18.5t8.5 65.5h127v-28q-1 -126 -97 -161v-102h-132v101q-45 16 -73 56t-28 108v165q0 68 28 108t73 56v104z" />
    <glyph glyph-name="sterling" unicode="&#xa3;" horiz-adv-x="505" 
d="M482 462h-161v3q-3 92 -46 92q-24 0 -34.5 -23.5t-10.5 -72.5v-54h120v-152h-120v-102h225v-153h-431v153h45v102h-45v152h45v61q0 66 17.5 115t48 75.5t65.5 38.5t75 12q39 0 73.5 -12t65.5 -38t49 -74.5t19 -114.5v-8z" />
    <glyph glyph-name="currency" unicode="&#xa4;" horiz-adv-x="600" 
 />
    <glyph glyph-name="yen" unicode="&#xa5;" horiz-adv-x="540" 
d="M355 700h162l-86 -213h77v-153h-131l-9 -18l-4 -14h145v-152h-158v-150h-162v150h-157v152h144l-4 14l-9 18h-131v153h77l-86 213h163l84 -252z" />
    <glyph glyph-name="brokenbar" unicode="&#xa6;" horiz-adv-x="262" 
d="M50 700h162v-320h-162v320zM50 260h162v-320h-162v320z" />
    <glyph glyph-name="section" unicode="&#xa7;" horiz-adv-x="404" 
d="M163 100v-16q1 -19 12 -29.5t27 -10.5q18 0 28 9.5t10 28.5q0 37 -19 51.5t-63 20.5q-59 7 -98 48.5t-39 110.5q0 67 34 110q-34 42 -34 102q0 88 49.5 132t129.5 44q77 0 128.5 -45.5t51.5 -123.5v-10h-147v7q0 19 -10 29t-23 10q-14 0 -23 -8.5t-9 -25.5q0 -37 42 -46
q178 -29 178 -186q0 -64 -29 -106q29 -43 29 -106q0 -89 -51 -134t-135 -45q-75 0 -130.5 45.5t-55.5 124.5v19h147zM184 359q-26 -8 -26 -37q0 -7 1.5 -12.5t5.5 -9.5t6 -7t9 -6t8.5 -3.5l10.5 -3.5l9 -3q18 -6 29 -14q16 12 16 37q0 22 -12.5 33t-35.5 19q-20 7 -21 7z
" />
    <glyph glyph-name="dieresis" unicode="&#xa8;" horiz-adv-x="405" 
d="M56 573v127h129v-127h-129zM225 573v127h129v-127h-129z" />
    <glyph glyph-name="copyright" unicode="&#xa9;" horiz-adv-x="630" 
d="M316 700q111 0 189.5 -79t78.5 -190q0 -112 -78.5 -190.5t-189.5 -78.5q-112 0 -190.5 78.5t-78.5 190.5q0 111 78.5 190t190.5 79zM315.5 616q-79.5 0 -130 -54t-50.5 -131q0 -78 50.5 -131.5t130 -53.5t130 54t50.5 131t-50.5 131t-130 54zM219 395v78q0 55 28.5 80.5
t67.5 25.5q38 0 65 -23.5t29 -74.5v-14h-70q-1 27 -7 37t-17 10q-14 0 -19 -15.5t-5 -61.5v-7q0 -45 5 -61t20 -16q12 0 17.5 10.5t6.5 37.5h69v-14q-2 -51 -29 -74.5t-65 -23.5q-39 0 -67.5 25t-28.5 81z" />
    <glyph glyph-name="ordfeminine" unicode="&#xaa;" 
d="M267 500h90v-500h-90l-17 37q-34 -45 -99 -45q-24 0 -45.5 9t-40.5 28.5t-30.5 55t-11.5 83.5v165q0 48 11.5 83.5t30.5 55t40.5 28.5t45.5 9q64 0 98 -43zM154 267v-33q1 -75 7.5 -99.5t28.5 -24.5t29 25t6 99v33q0 73 -7.5 98.5t-27.5 25.5q-22 0 -29 -25t-7 -99z" />
    <glyph glyph-name="guillemotleft" unicode="&#xab;" horiz-adv-x="455" 
d="M50 337l161 146v-154l-77 -69l77 -70v-154l-161 147v154zM244 337l161 146v-154l-77 -69l77 -70v-154l-161 147v154z" />
    <glyph glyph-name="logicalnot" unicode="&#xac;" horiz-adv-x="577" 
d="M528 161h-162v99h-316v153h478v-252z" />
    <glyph glyph-name="registered" unicode="&#xae;" horiz-adv-x="630" 
d="M315.5 690q111.5 0 190 -78.5t78.5 -190t-78.5 -190.5t-190 -79t-190 79t-78.5 190.5t78.5 190t190 78.5zM315.5 607q-79.5 0 -130 -54.5t-50.5 -131.5t50.5 -131t130 -54t130 54t50.5 131t-50.5 131.5t-130 54.5zM227 565h88q48 0 72.5 -23t24.5 -58v-17q-1 -41 -34 -62
l39 -121h-75l-29 96h-15v-96h-71v281zM299 454h13q28 0 28 23t-28 23h-13v-46z" />
    <glyph glyph-name="macron" unicode="&#xaf;" horiz-adv-x="371" 
d="M50 700h271v-117h-271v117z" />
    <glyph glyph-name="degree" unicode="&#xb0;" 
d="M191.5 778q58.5 0 99.5 -41t41 -99.5t-41 -100t-99.5 -41.5t-100 41.5t-41.5 100t41.5 99.5t100 41zM191 673q-15 0 -25.5 -10.5t-10.5 -25.5t10.5 -25.5t25.5 -10.5t25.5 10.5t10.5 25.5t-10.5 25.5t-25.5 10.5z" />
    <glyph glyph-name="plusminus" unicode="&#xb1;" horiz-adv-x="577" 
d="M207 531h163v-70h157v-153h-157v-70h-162v70h-158v153h157v70zM527 40h-477v152h477v-152z" />
    <glyph glyph-name="acute" unicode="&#xb4;" horiz-adv-x="316" 
d="M114 719h143l-97 -172h-101z" />
    <glyph glyph-name="paragraph" unicode="&#xb6;" horiz-adv-x="704" 
d="M170 700h510v-152h-38v-711h-161v711h-56v-711h-161v471h-94q-63 0 -105.5 42.5t-42.5 105.5v96q0 59 43.5 103.5t104.5 44.5z" />
    <glyph glyph-name="periodcentered" unicode="&#xb7;" horiz-adv-x="241" 
d="M50 298v139h141v-139h-141z" />
    <glyph glyph-name="cedilla" unicode="&#xb8;" horiz-adv-x="257" 
d="M101 0h106v-23q-2 -84 -32 -118.5t-112 -36.5h-13v94h11q23 2 31 17t9 48v19z" />
    <glyph glyph-name="ordmasculine" unicode="&#xba;" horiz-adv-x="379" 
d="M23 168v165q0 48 15 83.5t40 55t52.5 28.5t58.5 9t59 -9t53 -28t40 -55t15 -84v-165q0 -48 -15 -84t-40 -55t-53 -28t-59 -9t-58.5 9t-52.5 28.5t-40 55t-15 83.5zM225 234v33q0 73 -7.5 98.5t-28.5 25.5t-28 -25t-7 -99v-33q1 -75 7.5 -99.5t28.5 -24.5t29 25.5t6 98.5z
" />
    <glyph glyph-name="guillemotright" unicode="&#xbb;" horiz-adv-x="455" 
d="M244 329v154l161 -147v-153l-161 -147v154l78 70zM50 329v154l161 -147v-153l-161 -147v154l78 70z" />
    <glyph glyph-name="onequarter" unicode="&#xbc;" horiz-adv-x="668" 
d="M33 700h128v-338h-97v249h-31v89zM371 700h118l-277 -700h-118zM427 338h97l-46 -201h43v116h97v-116h17v-88h-17v-49h-97v49h-142v99z" />
    <glyph glyph-name="onehalf" unicode="&#xbd;" horiz-adv-x="644" 
d="M33 700h128v-338h-97v249h-31v89zM370 700h120l-277 -700h-119zM493 339h6q49 0 80.5 -26t32.5 -80v-4q0 -26 -12 -49t-27 -35.5t-34 -29t-28 -27.5h98v-88h-229v40q0 35 14 62t34 42.5t40 27.5t34 25.5t14 29.5q0 24 -20 25h-2q-11 0 -15.5 -7.5t-6.5 -24.5h-97l1 3
q1 61 35.5 88.5t81.5 27.5z" />
    <glyph glyph-name="threequarters" unicode="&#xbe;" horiz-adv-x="750" 
d="M143 708h8q110 -2 111 -102v-4q0 -23 -9 -41.5t-21 -24.5q13 -6 21.5 -25t8.5 -43v-4q-1 -100 -113 -102h-6q-47 0 -78.5 26t-33.5 80v2h91q2 -17 20 -19h3q9 0 14.5 4.5t5.5 10.5l1 3q1 22 -31 23h-28v89h28q28 0 30 18v3q0 7 -5 12t-15 5h-3q-18 0 -20 -19h-90v2
q1 52 33 79t78 27zM454 700h119l-277 -700h-118zM509 338h97l-47 -201h44v116h97v-116h17v-88h-17v-49h-97v49h-142v98z" />
    <glyph glyph-name="questiondown" unicode="&#xbf;" horiz-adv-x="513" 
d="M350 400h-142v139h142v-139zM262 -163h-8q-38 0 -72.5 11.5t-65 36t-48.5 68t-18 101.5v2q0 40 9.5 69.5t24 47t32 31t35 24.5t32 23t23.5 32t9 47h129q0 -49 -10 -85t-24.5 -54t-32 -33.5t-32 -25.5t-24.5 -29t-10 -44q0 -30 11.5 -50t31.5 -20h4q38 3 43 84h162l-1 -5
q-1 -62 -19 -108t-47.5 -71.5t-63 -38t-70.5 -13.5z" />
    <glyph glyph-name="Agrave" unicode="&#xc0;" horiz-adv-x="500" 
d="M152 920h142l56 -171h-102zM149 700h201l128 -700h-156l-23 136h-97l-24 -136h-156zM281 292l-31 232l-32 -232h63z" />
    <glyph glyph-name="Aacute" unicode="&#xc1;" horiz-adv-x="500" 
d="M220 919h142l-97 -172h-101zM149 700h201l128 -700h-156l-23 136h-97l-24 -136h-156zM282 292l-32 232l-32 -232h64z" />
    <glyph glyph-name="Acircumflex" unicode="&#xc2;" horiz-adv-x="500" 
d="M181 906h139l73 -159h-93l-49 53l-50 -53h-93zM149 700h201l128 -700h-156l-23 136h-97l-24 -136h-156zM281 292l-31 232l-32 -232h63z" />
    <glyph glyph-name="Atilde" unicode="&#xc3;" horiz-adv-x="500" 
d="M314 905h95q0 -68 -23.5 -113t-75.5 -45q-29 0 -67 25q-17 13 -34 12q-21 -3 -22 -37h-94q0 68 23 113t75 45q18 0 31.5 -5.5t35.5 -19.5q22 -16 40 -9q16 5 16 34zM149 700h201l128 -700h-156l-23 136h-97l-24 -136h-156zM281 293l-31 231l-32 -231h63z" />
    <glyph glyph-name="Adieresis" unicode="&#xc4;" horiz-adv-x="500" 
d="M102 900h129v-127h-129v127zM270 900h129v-127h-129v127zM149 700h201l128 -700h-156l-23 136h-97l-24 -136h-156zM282 292l-32 232l-32 -232h64z" />
    <glyph glyph-name="Aring" unicode="&#xc5;" horiz-adv-x="500" 
d="M250.5 962q47.5 0 81.5 -34t34 -81q0 -48 -34 -82t-81.5 -34t-81.5 34t-34 82q0 47 34 81t81.5 34zM250.5 871q-10.5 0 -17.5 -7t-7 -17q0 -11 7 -18.5t17.5 -7.5t17.5 7.5t7 18.5q0 10 -7 17t-17.5 7zM149 700h201l128 -700h-156l-23 136h-97l-24 -136h-156zM281 293
l-31 231l-32 -231h63z" />
    <glyph glyph-name="AE" unicode="&#xc6;" horiz-adv-x="601" 
d="M162 700h403v-152h-147v-120h137v-152h-137v-124h147v-152h-303v136h-48l-23 -136h-157zM261 292v227l-31 -227h31z" />
    <glyph glyph-name="Ccedilla" unicode="&#xc7;" horiz-adv-x="450" 
d="M27 234v233q0 66 17.5 115t48.5 75.5t65.5 39t74.5 12.5q39 0 73 -12t64 -38t47.5 -74.5t18.5 -114.5v-23h-157v19q-3 91 -46 91q-24 0 -34.5 -23.5t-10.5 -72.5v-220q0 -49 10.5 -73t34.5 -24q43 0 46 91v20h157v-24q-1 -98 -37.5 -153t-95.5 -75v-19q0 -86 -29 -122.5
t-107 -39.5h-20v94l19 1q17 4 24 18t8 41v19l-16 3q-68 15 -111.5 72t-43.5 164z" />
    <glyph glyph-name="Egrave" unicode="&#xc8;" horiz-adv-x="346" 
d="M75 920h142l56 -171h-101zM29 700h303v-152h-147v-120h137v-152h-137v-124h147v-152h-303v700z" />
    <glyph glyph-name="Eacute" unicode="&#xc9;" horiz-adv-x="346" 
d="M130 919h143l-97 -172h-101zM29 700h303v-152h-147v-120h137v-152h-137v-124h147v-152h-303v700z" />
    <glyph glyph-name="Ecircumflex" unicode="&#xca;" horiz-adv-x="346" 
d="M104 906h139l73 -159h-93l-49 53l-50 -53h-93zM29 700h303v-152h-147v-120h137v-152h-137v-124h147v-152h-303v700z" />
    <glyph glyph-name="Edieresis" unicode="&#xcb;" horiz-adv-x="346" 
d="M25 900h129v-127h-129v127zM193 900h129v-127h-129v127zM29 700h303v-152h-147v-120h137v-152h-137v-124h147v-152h-303v700z" />
    <glyph glyph-name="Igrave" unicode="&#xcc;" horiz-adv-x="219" 
d="M11 920h142l56 -171h-101zM29 0v700h162v-700h-162z" />
    <glyph glyph-name="Iacute" unicode="&#xcd;" horiz-adv-x="219" 
d="M66 919h143l-97 -172h-101zM29 0v700h162v-700h-162z" />
    <glyph glyph-name="Icircumflex" unicode="&#xce;" horiz-adv-x="219" 
d="M40 906h139l73 -159h-93l-49 53l-50 -53h-93zM29 0v700h162v-700h-162z" />
    <glyph glyph-name="Idieresis" unicode="&#xcf;" horiz-adv-x="219" 
d="M-39 773v127h129v-127h-129zM130 773v127h129v-127h-129zM29 0v700h162v-700h-162z" />
    <glyph glyph-name="Eth" unicode="&#xd0;" horiz-adv-x="456" 
d="M29 700h197q40 0 73.5 -11t64 -36.5t48 -75t17.5 -119.5v-216q0 -70 -17.5 -119.5t-48 -75t-64 -36.5t-73.5 -11h-197v264h-42v152h42v284zM273 249v203q0 96 -47 96h-41v-132h50v-152h-50v-112h41q47 0 47 97z" />
    <glyph glyph-name="Ntilde" unicode="&#xd1;" horiz-adv-x="496" 
d="M312 905h94q0 -68 -23.5 -113t-74.5 -45q-30 0 -67 25q-17 13 -35 12q-21 -3 -22 -37h-94q0 68 23.5 113t74.5 45q18 0 31.5 -5.5t35.5 -19.5q22 -16 40 -9q16 5 17 34zM318 700h152v-700h-154l-138 339v-339h-151v700h154l137 -339v339z" />
    <glyph glyph-name="Ograve" unicode="&#xd2;" horiz-adv-x="465" 
d="M134 920h143l55 -171h-101zM26 234v233q0 66 17.5 115t48 75.5t65.5 39t75 12.5q39 0 74 -12t66 -38.5t49 -75.5t18 -116v-233q0 -67 -18 -116t-49 -75.5t-66 -38.5t-74 -12q-40 0 -75 12.5t-65.5 39t-48 75.5t-17.5 115zM278 241v220q0 96 -46 96q-24 0 -35 -23.5
t-11 -72.5v-220q0 -49 11 -73t35 -24q46 0 46 97z" />
    <glyph glyph-name="Oacute" unicode="&#xd3;" horiz-adv-x="465" 
d="M189 919h143l-97 -172h-101zM26 234v233q0 66 17.5 115t48 75.5t65.5 39t75 12.5q39 0 74 -12t66 -38.5t49 -75.5t18 -116v-233q0 -67 -18 -116t-49 -75.5t-66 -38.5t-74 -12q-40 0 -75 12.5t-65.5 39t-48 75.5t-17.5 115zM278 241v220q0 96 -46 96q-24 0 -35 -23.5
t-11 -72.5v-220q0 -49 11 -73t35 -24q46 0 46 97z" />
    <glyph glyph-name="Ocircumflex" unicode="&#xd4;" horiz-adv-x="465" 
d="M163 906h139l73 -159h-93l-49 53l-50 -53h-93zM26 234v233q0 66 17.5 115t48 75.5t65.5 39t75 12.5q39 0 74 -12t66 -38.5t49 -75.5t18 -116v-233q0 -67 -18 -116t-49 -75.5t-66 -38.5t-74 -12q-40 0 -75 12.5t-65.5 39t-48 75.5t-17.5 115zM278 241v220q0 96 -46 96
q-24 0 -34.5 -23.5t-10.5 -72.5v-220q0 -50 10.5 -73.5t34.5 -23.5q46 0 46 97z" />
    <glyph glyph-name="Otilde" unicode="&#xd5;" horiz-adv-x="465" 
d="M297 905h94q0 -43 -8.5 -76.5t-31 -57t-57.5 -23.5q-30 0 -67 24q-17 13 -35 11q-21 -2 -21 -35h-95q0 43 8.5 76.5t31.5 57t58 23.5q18 0 31.5 -5.5t35.5 -20.5q23 -15 40 -8q16 5 16 34zM26 234v233q0 66 17.5 115t48 75.5t65.5 39t75 12.5q39 0 74 -12t66 -38.5
t49 -75.5t18 -116v-233q0 -67 -18 -116t-49 -75.5t-66 -38.5t-74 -12q-40 0 -75 12.5t-65.5 39t-48 75.5t-17.5 115zM278 241v220q0 96 -46 96q-24 0 -35 -23.5t-11 -72.5v-220q0 -50 11 -73.5t35 -23.5q46 0 46 97z" />
    <glyph glyph-name="Odieresis" unicode="&#xd6;" horiz-adv-x="465" 
d="M84 773v127h129v-127h-129zM253 773v127h129v-127h-129zM26 234v233q0 66 17.5 115t48 75.5t65.5 39t75 12.5q39 0 74 -12t66 -38.5t49 -75.5t18 -116v-233q0 -67 -18 -116t-49 -75.5t-66 -38.5t-74 -12q-40 0 -75 12.5t-65.5 39t-48 75.5t-17.5 115zM278 241v220
q0 96 -46 96q-24 0 -34.5 -23.5t-10.5 -72.5v-220q0 -49 10.5 -73t34.5 -24q46 0 46 97z" />
    <glyph glyph-name="multiply" unicode="&#xd7;" horiz-adv-x="544" 
d="M276 375l111 111l108 -108l-111 -111l111 -111l-114 -114l-111 111l-112 -112l-108 108l111 112l-111 111l115 115z" />
    <glyph glyph-name="Oslash" unicode="&#xd8;" horiz-adv-x="465" 
d="M409 750l-32 -98q61 -63 61 -185v-233q0 -67 -18 -116t-49 -75.5t-66 -38.5t-74 -12q-35 0 -66 9l-16 -51h-95l32 98q-61 63 -61 186v233q0 66 17.5 115t48 75.5t65.5 39t75 12.5q35 0 67 -9l16 50h95zM187 461v-103l63 194q-8 5 -18 5q-24 0 -34.5 -23.5t-10.5 -72.5z
M278 347l-64 -198q7 -5 18 -5q46 0 46 97v106z" />
    <glyph glyph-name="Ugrave" unicode="&#xd9;" horiz-adv-x="459" 
d="M131 920h143l55 -171h-101zM185 232v468h-156v-475q0 -66 17 -113.5t46.5 -72.5t63.5 -36t74 -11t73.5 11t64 35.5t48 72.5t17.5 114v475h-157v-468q0 -47 -11 -67.5t-35 -20.5t-34.5 20.5t-10.5 67.5z" />
    <glyph glyph-name="Uacute" unicode="&#xda;" horiz-adv-x="459" 
d="M186 919h143l-97 -172h-101zM185 232v468h-156v-475q0 -66 17 -113.5t46.5 -72.5t63.5 -36t74 -11t73.5 11t64 35.5t48 72.5t17.5 114v475h-157v-468q0 -47 -11 -67.5t-35 -20.5t-34.5 20.5t-10.5 67.5z" />
    <glyph glyph-name="Ucircumflex" unicode="&#xdb;" horiz-adv-x="459" 
d="M161 906h139l73 -159h-93l-50 53l-49 -53h-93zM185 232v468h-156v-475q0 -66 17 -113.5t46.5 -72.5t63.5 -36t74 -11t73.5 11t64 35.5t48 72.5t17.5 114v475h-157v-468q0 -47 -11 -67.5t-35 -20.5t-34.5 20.5t-10.5 67.5z" />
    <glyph glyph-name="Udieresis" unicode="&#xdc;" horiz-adv-x="459" 
d="M81 773v127h129v-127h-129zM250 773v127h129v-127h-129zM185 232v468h-156v-475q0 -66 17 -113.5t46.5 -72.5t63.5 -36t74 -11t73.5 11t64 36t48 72.5t17.5 113.5v475h-157v-468q0 -47 -11 -67.5t-35 -20.5t-34.5 20.5t-10.5 67.5z" />
    <glyph glyph-name="Yacute" unicode="&#xdd;" horiz-adv-x="523" 
d="M218 919h143l-97 -172h-101zM339 700h163l-159 -435v-265h-163v265l-158 435h162l77 -255z" />
    <glyph glyph-name="Thorn" unicode="&#xde;" horiz-adv-x="444" 
d="M29 701h156v-82h23q41 -2 76.5 -13.5t66.5 -33.5t49 -60.5t18 -90.5v-47q0 -51 -18 -89.5t-49 -61t-66.5 -34t-76.5 -13.5h-23v-176h-156v701zM265 394v7q0 34 -15 50.5t-38 16.5h-27v-141h27q23 0 38 16t15 51z" />
    <glyph glyph-name="germandbls" unicode="&#xdf;" horiz-adv-x="562" 
d="M276 708h15q53 0 97.5 -12t79.5 -36.5t55 -65.5t22 -97v-13q0 -42 -17.5 -77.5t-40.5 -48.5q25 -12 43 -48.5t18 -83.5v-10q-1 -60 -20.5 -103.5t-53 -67.5t-72 -34.5t-84.5 -10.5h-99v153h99q66 0 69 56v9q0 27 -16.5 45t-53.5 18h-47v154h44q66 0 69 52v7q0 61 -92 61
h-13q-87 -2 -92 -66v-489h-161v477q0 226 251 231z" />
    <glyph glyph-name="agrave" unicode="&#xe0;" 
d="M92 720h143l55 -171h-101zM23 168v165q0 48 11.5 83.5t30.5 55t40.5 28.5t45.5 9q64 0 98 -43l18 34h90v-500h-90l-17 37q-34 -45 -99 -45q-24 0 -45.5 9t-40.5 28.5t-30.5 55t-11.5 83.5zM225 234v33q0 73 -7.5 98.5t-27.5 25.5q-22 0 -29 -25t-7 -99v-33
q1 -75 7.5 -99.5t28.5 -24.5t29 25t6 99z" />
    <glyph glyph-name="aacute" unicode="&#xe1;" 
d="M148 719h142l-96 -172h-102zM267 500h90v-500h-90l-17 37q-34 -45 -99 -45q-24 0 -45.5 9t-40.5 28.5t-30.5 55t-11.5 83.5v165q0 48 11.5 83.5t30.5 55t40.5 28.5t45.5 9q64 0 98 -43zM154 267v-33q1 -75 7.5 -99.5t28.5 -24.5t29 25t6 99v33q0 73 -7.5 98.5t-27.5 25.5
q-22 0 -29 -25t-7 -99z" />
    <glyph glyph-name="acircumflex" unicode="&#xe2;" 
d="M122 706h139l73 -159h-93l-49 53l-50 -53h-93zM267 500h90v-500h-90l-17 37q-34 -45 -99 -45q-24 0 -45.5 9t-40.5 28.5t-30.5 55t-11.5 83.5v165q0 48 11.5 83.5t30.5 55t40.5 28.5t45.5 9q64 0 98 -43zM154 267v-33q1 -75 7.5 -99.5t28.5 -24.5t29 25t6 99v33
q0 73 -7.5 98.5t-27.5 25.5q-22 0 -29 -25t-7 -99z" />
    <glyph glyph-name="atilde" unicode="&#xe3;" 
d="M256 706h94q0 -43 -8.5 -77t-31.5 -57.5t-58 -23.5q-30 0 -66 25q-18 13 -36 11q-21 -2 -21 -36h-94q0 44 8.5 77.5t31 57t58.5 23.5q18 0 31.5 -5.5t34.5 -20.5q23 -15 40 -8q17 5 17 34zM267 500h90v-500h-90l-17 37q-34 -45 -99 -45q-24 0 -45.5 9t-40.5 28.5
t-30.5 55t-11.5 83.5v165q0 48 11.5 83.5t30.5 55t40.5 28.5t45.5 9q64 0 98 -43zM154 267v-33q1 -75 7.5 -99.5t28.5 -24.5t29 25t6 99v33q0 73 -7.5 98.5t-27.5 25.5q-22 0 -29 -25t-7 -99z" />
    <glyph glyph-name="adieresis" unicode="&#xe4;" 
d="M43 573v127h129v-127h-129zM211 573v127h129v-127h-129zM267 500h90v-500h-90l-17 37q-34 -45 -99 -45q-24 0 -45.5 9t-40.5 28.5t-30.5 55t-11.5 83.5v165q0 48 11.5 83.5t30.5 55t40.5 28.5t45.5 9q64 0 98 -43zM154 267v-33q1 -75 7.5 -99.5t28.5 -24.5t29 25t6 99v33
q0 73 -7.5 98.5t-27.5 25.5q-22 0 -29 -25t-7 -99z" />
    <glyph glyph-name="aring" unicode="&#xe5;" 
d="M191.5 762q47.5 0 81.5 -34t34 -81q0 -48 -34 -82t-81.5 -34t-81.5 34t-34 82q0 47 34 81t81.5 34zM191.5 671q-10.5 0 -17.5 -7t-7 -17q0 -11 7 -18.5t17.5 -7.5t17.5 7.5t7 18.5q0 10 -7 17t-17.5 7zM267 500h90v-500h-90l-17 37q-34 -45 -99 -45q-24 0 -45.5 9
t-40.5 28.5t-30.5 55t-11.5 83.5v165q0 48 11.5 83.5t30.5 55t40.5 28.5t45.5 9q64 0 98 -43zM154 267v-33q1 -75 7.5 -99.5t28.5 -24.5t29 25t6 99v33q0 73 -7.5 98.5t-27.5 25.5q-22 0 -29 -25t-7 -99z" />
    <glyph glyph-name="ae" unicode="&#xe6;" horiz-adv-x="634" 
d="M23 168v165q0 48 11.5 83.5t30.5 55t40.5 28.5t45.5 9q64 0 98 -43l18 34h90v-17q36 26 88 26q30 0 58 -9t53.5 -28t40.5 -55t15 -84v-128h-202v-15q0 -45 8 -62t28 -18q17 0 25.5 13t9.5 44h131q0 -48 -15.5 -83.5t-40.5 -54.5t-53 -28t-58 -9q-52 0 -88 26v-18h-90
l-17 37q-34 -45 -99 -45q-24 0 -45.5 9t-40.5 28.5t-30.5 55t-11.5 83.5zM225 234v33q0 73 -7.5 98.5t-27.5 25.5q-22 0 -29 -25t-7 -99v-33q1 -75 7.5 -99.5t28.5 -24.5t29 25t6 99zM480 301v19q-1 39 -9.5 54.5t-25.5 15.5q-18 0 -26.5 -15t-9.5 -55v-19h71z" />
    <glyph glyph-name="ccedilla" unicode="&#xe7;" horiz-adv-x="374" 
d="M23 168v165q0 48 14.5 83.5t40 55t53 28.5t58.5 9t58 -9t51.5 -28t39.5 -54t15 -83v-28h-128q-1 47 -9 65.5t-27 18.5q-21 0 -28 -25t-7 -99v-33q1 -75 7.5 -99.5t28.5 -24.5q19 0 27.5 18.5t8.5 65.5h127v-28q-1 -119 -87 -158v-25q-1 -87 -31.5 -123.5t-113.5 -37.5
h-12v94h11q23 1 31.5 15.5t8.5 47.5v17q-7 0 -22 4q-51 13 -83 54t-32 114z" />
    <glyph glyph-name="egrave" unicode="&#xe8;" horiz-adv-x="378" 
d="M90 720h143l55 -171h-101zM23 168v165q0 48 15 83.5t40 55t52.5 28.5t58.5 9t59 -9t53 -28t40 -55t15 -84v-128h-202v-15q0 -45 8 -62t28 -18q17 0 25.5 13t9.5 44h131q0 -48 -15 -83.5t-40.5 -54.5t-53 -28t-58.5 -9t-58.5 9t-52.5 28.5t-40 55t-15 83.5zM225 301l-1 20
q0 38 -9 53.5t-26 16.5q-18 -1 -26.5 -16t-8.5 -55v-19h71z" />
    <glyph glyph-name="eacute" unicode="&#xe9;" horiz-adv-x="378" 
d="M145 719h143l-97 -172h-101zM23 168v165q0 48 15 83.5t40 55t52.5 28.5t58.5 9t59 -9t53 -28t40 -55t15 -84v-128h-202v-15q0 -45 8 -62t28 -18q17 0 25.5 13t9.5 44h131q0 -48 -15 -83.5t-40.5 -54.5t-53 -28t-58.5 -9t-58.5 9t-52.5 28.5t-40 55t-15 83.5zM225 301
l-1 20q0 38 -9 53.5t-26 16.5q-18 -1 -26.5 -16t-8.5 -55v-19h71z" />
    <glyph glyph-name="ecircumflex" unicode="&#xea;" horiz-adv-x="378" 
d="M119 706h139l73 -159h-93l-49 53l-50 -53h-93zM23 168v165q0 48 15 83.5t40 55t52.5 28.5t58.5 9t59 -9t53 -28t40 -55t15 -84v-128h-202v-15q0 -45 8 -62t28 -18q17 0 25.5 13t9.5 44h131q0 -48 -15 -83.5t-40.5 -54.5t-53 -28t-58.5 -9t-58.5 9t-52.5 28.5t-40 55
t-15 83.5zM225 301l-1 20q0 38 -9 53.5t-26 16.5q-18 -1 -26.5 -16t-8.5 -55v-19h71z" />
    <glyph glyph-name="edieresis" unicode="&#xeb;" horiz-adv-x="378" 
d="M40 573v127h129v-127h-129zM209 573v127h129v-127h-129zM23 168v165q0 48 15 83.5t40 55t52.5 28.5t58.5 9t59 -9t53 -28t40 -55t15 -84v-128h-202v-15q0 -45 8 -62t28 -18q17 0 25.5 13t9.5 44h131q0 -48 -15 -83.5t-40.5 -54.5t-53 -28t-58.5 -9t-58.5 9t-52.5 28.5
t-40 55t-15 83.5zM225 301l-1 20q0 38 -9 53.5t-26 16.5q-18 -1 -26.5 -16t-8.5 -55v-19h71z" />
    <glyph glyph-name="igrave" unicode="&#xec;" horiz-adv-x="270" 
d="M43 720h143l55 -171h-101zM107 0v500h132v-500h-132z" />
    <glyph glyph-name="iacute" unicode="&#xed;" horiz-adv-x="263" 
d="M80 719h142l-97 -172h-101zM32 0v500h131v-500h-131z" />
    <glyph glyph-name="icircumflex" unicode="&#xee;" horiz-adv-x="313" 
d="M87 706h139l73 -159h-93l-49 53l-50 -53h-93zM94 0v500h132v-500h-132z" />
    <glyph glyph-name="idieresis" unicode="&#xef;" horiz-adv-x="346" 
d="M25 573v127h128v-127h-128zM193 573v127h129v-127h-129zM113 0v500h132v-500h-132z" />
    <glyph glyph-name="eth" unicode="&#xf0;" horiz-adv-x="467" 
d="M423 600l-70 -41q3 -12 3 -26v-365q0 -48 -15 -83.5t-40 -55t-52.5 -28.5t-58.5 -9t-59 9t-53 28t-40 55t-15 84v165q0 48 15 84t40 55t53 28t59 9q21 0 35 -13v27q0 38 -8.5 52.5t-26.5 14.5q-15 0 -23 -12.5t-11 -43.5h-129l1 11q1 44 16 77.5t39 51.5t50.5 26.5
t56.5 8.5q71 0 115 -42l56 33zM225 234v33q0 73 -7 98.5t-28 25.5t-28.5 -25.5t-7.5 -98.5v-33q-1 -73 6 -98.5t29 -25.5t28.5 24.5t7.5 99.5z" />
    <glyph glyph-name="ntilde" unicode="&#xf1;" horiz-adv-x="383" 
d="M255 706h94q0 -43 -8.5 -77t-31 -57.5t-57.5 -23.5q-30 0 -67 25q-17 13 -35 11q-21 -2 -21 -36h-95q0 44 9 77.5t31.5 57t57.5 23.5q18 0 31.5 -5.5t35.5 -20.5q23 -15 40 -8q16 5 16 34zM116 500l20 -38q36 47 100 47q52 0 88 -42t36 -134v-333h-131v267q0 74 -7 99
t-29 25q-19 0 -27.5 -19t-8.5 -68v-304h-131v500h90z" />
    <glyph glyph-name="ograve" unicode="&#xf2;" horiz-adv-x="379" 
d="M91 720h143l55 -171h-101zM23 168v165q0 48 15 83.5t40 55t52.5 28.5t58.5 9t59 -9t53 -28t40 -55t15 -84v-165q0 -48 -15 -84t-40 -55t-53 -28t-59 -9t-58.5 9t-52.5 28.5t-40 55t-15 83.5zM225 234v33q0 73 -7.5 98.5t-28.5 25.5t-28 -25t-7 -99v-33q1 -75 7.5 -99.5
t28.5 -24.5t29 25.5t6 98.5z" />
    <glyph glyph-name="oacute" unicode="&#xf3;" horiz-adv-x="379" 
d="M146 719h143l-97 -172h-101zM23 168v165q0 48 15 83.5t40 55t52.5 28.5t58.5 9t59 -9t53 -28t40 -55t15 -84v-165q0 -48 -15 -84t-40 -55t-53 -28t-59 -9t-58.5 9t-52.5 28.5t-40 55t-15 83.5zM225 234v33q0 73 -7.5 98.5t-28.5 25.5t-28 -25t-7 -99v-33q1 -75 7.5 -99.5
t28.5 -24.5t29 25.5t6 98.5z" />
    <glyph glyph-name="ocircumflex" unicode="&#xf4;" horiz-adv-x="379" 
d="M121 706h138l73 -159h-93l-49 53l-49 -53h-93zM23 168v165q0 48 15 83.5t40 55t52.5 28.5t58.5 9t59 -9t53 -28t40 -55t15 -84v-165q0 -48 -15 -84t-40 -55t-53 -28t-59 -9t-58.5 9t-52.5 28.5t-40 55t-15 83.5zM225 234v33q0 73 -7.5 98.5t-28.5 25.5t-28 -25t-7 -99
v-33q1 -75 7.5 -99.5t28.5 -24.5t29 25.5t6 98.5z" />
    <glyph glyph-name="otilde" unicode="&#xf5;" horiz-adv-x="379" 
d="M253 706h95q0 -43 -8.5 -77t-31.5 -57.5t-58 -23.5q-30 0 -67 25q-17 13 -35 11q-21 -2 -21 -36h-94q0 44 8.5 77.5t31 57t57.5 23.5q18 0 32 -5.5t35 -20.5q23 -15 40 -8q16 5 16 34zM23 168v165q0 48 15 83.5t40 55t52.5 28.5t58.5 9t59 -9t53 -28t40 -55t15 -84v-165
q0 -48 -15 -84t-40 -55t-53 -28t-59 -9t-58.5 9t-52.5 28.5t-40 55t-15 83.5zM225 234v33q0 72 -7.5 98t-28.5 26t-28 -25t-7 -99v-33q1 -75 7.5 -99.5t28.5 -24.5t29 25.5t6 98.5z" />
    <glyph glyph-name="odieresis" unicode="&#xf6;" horiz-adv-x="379" 
d="M41 573v127h129v-127h-129zM210 573v127h129v-127h-129zM23 168v165q0 48 15 83.5t40 55t52.5 28.5t58.5 9t59 -9t53 -28t40 -55t15 -84v-165q0 -48 -15 -84t-40 -55t-53 -28t-59 -9t-58.5 9t-52.5 28.5t-40 55t-15 83.5zM225 234v33q0 73 -7.5 98.5t-28.5 25.5t-28 -25
t-7 -99v-33q1 -75 7.5 -99.5t28.5 -24.5t29 25.5t6 98.5z" />
    <glyph glyph-name="divide" unicode="&#xf7;" horiz-adv-x="577" 
d="M213 382v139h141v-139h-141zM50 342h477v-152h-477v152zM214 11v139h141v-139h-141z" />
    <glyph glyph-name="oslash" unicode="&#xf8;" horiz-adv-x="426" 
d="M354 550l-25 -77q57 -46 57 -140v-165q0 -48 -15 -84t-40 -55t-53 -28t-59 -9q-24 0 -46 5l-15 -47h-73l26 77q-58 46 -58 141v165q0 48 14.5 83.5t40 55t53 28.5t58.5 9q24 0 47 -5l15 46h73zM183 267v-17l46 139q-5 1 -10 1q-22 0 -29 -24.5t-7 -98.5zM255 249
l-44 -137q4 -1 9 -1q21 0 28.5 25t6.5 98v15z" />
    <glyph glyph-name="ugrave" unicode="&#xf9;" horiz-adv-x="381" 
d="M92 720h143l55 -171h-101zM227 500h131v-500h-90l-20 38q-37 -47 -101 -47q-51 0 -87.5 42t-36.5 134v333h132v-267q0 -74 7 -99t28 -25q20 0 28 19t9 68v304z" />
    <glyph glyph-name="uacute" unicode="&#xfa;" horiz-adv-x="381" 
d="M147 719h143l-97 -172h-101zM227 500h131v-500h-90l-20 38q-37 -47 -101 -47q-51 0 -87.5 42t-36.5 134v333h132v-267q0 -74 7 -99t28 -25q20 0 28 19t9 68v304z" />
    <glyph glyph-name="ucircumflex" unicode="&#xfb;" horiz-adv-x="381" 
d="M121 706h139l73 -159h-93l-49 53l-50 -53h-93zM227 500h131v-500h-90l-20 38q-37 -47 -101 -47q-51 0 -87.5 42t-36.5 134v333h132v-267q0 -74 7 -99t28 -25q20 0 28 19t9 68v304z" />
    <glyph glyph-name="udieresis" unicode="&#xfc;" horiz-adv-x="381" 
d="M42 573v127h129v-127h-129zM211 573v127h129v-127h-129zM227 500h131v-500h-90l-20 38q-37 -47 -101 -47q-51 0 -87.5 42t-36.5 134v333h132v-267q0 -74 7 -99t28 -25q20 0 28 19t9 68v304z" />
    <glyph glyph-name="yacute" unicode="&#xfd;" horiz-adv-x="373" 
d="M143 719h143l-97 -172h-101zM223 501h131v-499q-1 -48 -15.5 -83t-39.5 -54t-53 -28t-58 -9q-28 0 -53.5 7t-49 22.5t-40.5 43.5t-22 66h133q7 -20 31 -20q18 0 26.5 14t8.5 48l1 19q-31 -28 -80 -28q-51 0 -87.5 41.5t-36.5 134.5v324h132v-258q0 -74 7 -99t28 -25
t28.5 25.5t8.5 98.5v259z" />
    <glyph glyph-name="thorn" unicode="&#xfe;" horiz-adv-x="383" 
d="M157 700v-219q31 28 80 28q51 0 87.5 -42t36.5 -134v-165q0 -93 -36.5 -134.5t-87.5 -41.5q-49 0 -80 27v-182h-131v863h131zM229 234v33q0 75 -7 99t-29 24t-28.5 -25t-6.5 -98v-33q0 -73 7.5 -98.5t28.5 -25.5t28 25t7 99z" />
    <glyph glyph-name="ydieresis" unicode="&#xff;" horiz-adv-x="373" 
d="M38 573v127h129v-127h-129zM207 573v127h129v-127h-129zM223 501h131v-499q-1 -48 -15.5 -83t-39.5 -54t-53 -28t-58 -9q-28 0 -53.5 7t-49 22.5t-40.5 43.5t-22 66h133q7 -20 31 -20q18 0 26.5 14t8.5 48l1 19q-31 -28 -80 -28q-51 0 -87.5 41.5t-36.5 134.5v324h132
v-258q0 -74 7 -99t28 -25t28.5 25.5t8.5 98.5v259z" />
    <glyph glyph-name="Amacron" unicode="&#x100;" horiz-adv-x="500" 
d="M115 900h271v-117h-271v117zM149 700h201l128 -700h-156l-23 136h-97l-24 -136h-156zM281 293l-31 231l-32 -231h63z" />
    <glyph glyph-name="amacron" unicode="&#x101;" 
d="M56 700h271v-117h-271v117zM267 500h90v-500h-90l-17 37q-34 -45 -99 -45q-24 0 -45.5 9t-40.5 28.5t-30.5 55t-11.5 83.5v165q0 48 11.5 83.5t30.5 55t40.5 28.5t45.5 9q64 0 98 -43zM154 267v-33q1 -75 7.5 -99.5t28.5 -24.5t29 25t6 99v33q0 73 -7.5 98.5t-27.5 25.5
q-22 0 -29 -25t-7 -99z" />
    <glyph glyph-name="Abreve" unicode="&#x102;" horiz-adv-x="500" 
d="M282 900h110q-2 -57 -43 -97t-98.5 -40t-98.5 40t-43 97h110q1 -12 10 -20t21.5 -8t21.5 8t10 20zM149 700h201l129 -700h-157l-23 136h-97l-24 -136h-156zM282 292l-32 232l-32 -232h64z" />
    <glyph glyph-name="abreve" unicode="&#x103;" 
d="M223 700h110q-2 -57 -43 -97t-98.5 -40t-98.5 40t-43 97h110q1 -12 10 -20t21.5 -8t21.5 8t10 20zM23 168v165q0 48 11.5 83.5t30.5 55t40.5 28.5t45.5 9q64 0 98 -43l18 34h90v-500h-90l-17 37q-34 -45 -99 -45q-24 0 -45.5 9t-40.5 28.5t-30.5 55t-11.5 83.5zM225 234
v33q0 73 -7.5 98.5t-27.5 25.5q-22 0 -29 -25t-7 -99v-33q1 -75 7.5 -99.5t28.5 -24.5t29 25t6 99z" />
    <glyph glyph-name="Aogonek" unicode="&#x104;" horiz-adv-x="500" 
d="M149 700h201l128 -700q-10 -17 -14.5 -24t-9 -19.5t-2.5 -20.5q2 -17 25 -20h13v-93h-34q-113 9 -111 85q0 8 1 16t4 16t5 14t7 14.5t6.5 11.5t7.5 11.5l6 8.5h-60l-23 136h-97l-24 -136h-156zM282 293l-32 231l-32 -231h64z" />
    <glyph glyph-name="aogonek" unicode="&#x105;" 
d="M23 168v165q0 48 11.5 83.5t30.5 55t40.5 28.5t45.5 9q64 0 98 -43l18 34h89v-500q-31 -47 -25 -66q4 -17 32 -18h5v-94h-5q-132 1 -139 74q-4 46 43 104l-17 37q-34 -45 -99 -45q-24 0 -45.5 9t-40.5 28.5t-30.5 55t-11.5 83.5zM225 234v33q0 73 -7.5 98.5t-27.5 25.5
q-22 0 -29 -25t-7 -99v-33q1 -75 7.5 -99.5t28.5 -24.5t29 25t6 99z" />
    <glyph glyph-name="Cacute" unicode="&#x106;" horiz-adv-x="450" 
d="M181 919h143l-97 -172h-101zM27 234v233q0 66 18 115t48.5 75.5t65 39t74.5 12.5q39 0 73 -12t64 -38t47.5 -74.5t18.5 -114.5v-23h-157v19q-2 91 -46 91q-24 0 -34.5 -23.5t-10.5 -72.5v-220q0 -49 10.5 -73t34.5 -24q43 0 46 91v20h157v-24q-1 -66 -18.5 -114.5
t-47.5 -74.5t-64 -38t-73 -12q-40 0 -74.5 12.5t-65 39t-48.5 75.5t-18 115z" />
    <glyph glyph-name="cacute" unicode="&#x107;" horiz-adv-x="374" 
d="M144 719h142l-97 -172h-101zM23 168v165q0 48 14.5 83.5t40 55t53 28.5t58.5 9t58 -9t51.5 -28t39.5 -54t15 -83v-28h-128q-1 47 -9 65.5t-27 18.5q-21 0 -28 -25t-7 -99v-33q1 -75 7.5 -99.5t28.5 -24.5q19 0 27.5 18.5t8.5 65.5h127v-28q0 -47 -15 -82.5t-39.5 -54.5
t-51.5 -28t-58 -9t-58.5 9t-52.5 28.5t-40 55t-15 83.5z" />
    <glyph glyph-name="Cdotaccent" unicode="&#x10a;" horiz-adv-x="450" 
d="M161 900h129v-126h-129v126zM27 234v233q0 66 18 115t48.5 75.5t65 39t74.5 12.5q39 0 73 -12t64 -38t47.5 -74.5t18.5 -114.5v-23h-157v19q-2 91 -46 91q-24 0 -34.5 -23.5t-10.5 -72.5v-220q0 -49 10.5 -73t34.5 -24q43 0 46 91v20h157v-24q-1 -66 -18.5 -114.5
t-47.5 -74.5t-64 -38t-73 -12q-40 0 -74.5 12.5t-65 39t-48.5 75.5t-18 115z" />
    <glyph glyph-name="cdotaccent" unicode="&#x10b;" horiz-adv-x="374" 
d="M123 700h129v-126h-129v126zM23 168v165q0 48 14.5 83.5t40 55t53 28.5t58.5 9t58 -9t51.5 -28t39.5 -54t15 -83v-28h-128q-1 47 -9 65.5t-27 18.5q-21 0 -28 -25t-7 -99v-33q1 -75 7.5 -99.5t28.5 -24.5q19 0 27.5 18.5t8.5 65.5h127v-28q0 -47 -14.5 -82.5t-39.5 -54.5
t-52 -28t-58 -9t-58.5 9t-52.5 28.5t-40 55t-15 83.5z" />
    <glyph glyph-name="Ccaron" unicode="&#x10c;" horiz-adv-x="450" 
d="M274 906h93l-73 -159h-138l-73 159h93l49 -53zM27 234v233q0 66 18 115t48.5 75.5t65 39t74.5 12.5q39 0 73 -12t64 -38t47.5 -74.5t18.5 -114.5v-23h-157v19q-2 91 -46 91q-24 0 -34.5 -23.5t-10.5 -72.5v-220q0 -49 10.5 -73t34.5 -24q43 0 46 91v20h157v-24
q-1 -66 -18.5 -114.5t-47.5 -74.5t-64 -38t-73 -12q-40 0 -74.5 12.5t-65 39t-48.5 75.5t-18 115z" />
    <glyph glyph-name="ccaron" unicode="&#x10d;" horiz-adv-x="374" 
d="M237 706h93l-73 -159h-139l-73 159h93l49 -53zM23 168v165q0 48 14.5 83.5t40 55t53 28.5t58.5 9t58 -9t51.5 -28t39.5 -54t15 -83v-28h-128q-1 47 -9 65.5t-27 18.5q-21 0 -28 -25t-7 -99v-33q1 -75 7.5 -99.5t28.5 -24.5q19 0 27.5 18.5t8.5 65.5h127v-28
q0 -47 -15 -82.5t-39.5 -54.5t-51.5 -28t-58 -9t-58.5 9t-52.5 28.5t-40 55t-15 83.5z" />
    <glyph glyph-name="Dcaron" unicode="&#x10e;" horiz-adv-x="456" 
d="M298 747h-139l-73 159h93l49 -53l50 53h93zM29 700h197q40 0 73.5 -11t64 -36.5t48 -75t17.5 -119.5v-216q0 -70 -17.5 -119.5t-48 -75t-64 -36.5t-73.5 -11h-197v700zM273 249v203q0 96 -47 96h-41v-396h41q47 0 47 97z" />
    <glyph glyph-name="dcaron" unicode="&#x10f;" horiz-adv-x="554" 
d="M226 481v219h131v-700h-90l-18 38q-36 -46 -103 -46q-51 0 -87 42t-36 134v165q0 92 36 134t87 42q50 0 80 -28zM389 700h142v-139l-51 -143h-55l24 143h-60v139zM154 267v-33q1 -75 7.5 -99.5t28.5 -24.5t29 25t6 99v33q0 73 -7.5 98.5t-27.5 25.5q-22 0 -29 -25t-7 -99
z" />
    <glyph glyph-name="Dcroat" unicode="&#x110;" horiz-adv-x="456" 
d="M31 700h197q40 0 73.5 -11t64.5 -36.5t48 -75t17 -119.5v-216q0 -70 -17 -119.5t-48 -75t-64.5 -36.5t-73.5 -11h-197v281h-29v117h29v302zM275 249v203q0 96 -47 96h-41v-150h44v-117h-44v-129h41q47 0 47 97z" />
    <glyph glyph-name="dcroat" unicode="&#x111;" horiz-adv-x="421" 
d="M411 668v-116h-54v-552h-90l-18 38q-36 -46 -103 -46q-51 0 -87 42t-36 134v165q0 92 36 134t87 42q50 0 80 -28v71h-58v116h58v32h131v-32h54zM154 267v-33q1 -75 7.5 -99.5t28.5 -24.5t29 25t6 99v33q0 73 -7.5 98.5t-27.5 25.5q-22 0 -29 -25t-7 -99z" />
    <glyph glyph-name="Emacron" unicode="&#x112;" horiz-adv-x="346" 
d="M38 900h271v-117h-271v117zM29 700h303v-152h-147v-120h137v-152h-137v-124h147v-152h-303v700z" />
    <glyph glyph-name="emacron" unicode="&#x113;" horiz-adv-x="378" 
d="M53 700h272v-117h-272v117zM23 168v165q0 48 15 83.5t40 55t52.5 28.5t58.5 9t59 -9t53 -28t40 -55t15 -84v-128h-202v-15q0 -45 8 -62t28 -18q17 0 25.5 13t9.5 44h131q0 -48 -15 -83.5t-40.5 -54.5t-53 -28t-58.5 -9t-58.5 9t-52.5 28.5t-40 55t-15 83.5zM225 301
l-1 20q0 38 -9 53.5t-26 16.5q-18 -1 -26.5 -16t-8.5 -55v-19h71z" />
    <glyph glyph-name="Edotaccent" unicode="&#x116;" horiz-adv-x="346" 
d="M109 900h129v-126h-129v126zM29 700h303v-152h-147v-120h137v-152h-137v-124h147v-152h-303v700z" />
    <glyph glyph-name="edotaccent" unicode="&#x117;" horiz-adv-x="378" 
d="M124 574v126h129v-126h-129zM23 168v165q0 48 15 83.5t40 55t52.5 28.5t58.5 9t59 -9t53 -28t40 -55t15 -84v-128h-202v-15q0 -45 8 -62t28 -18q17 0 25.5 13t9.5 44h131q0 -48 -15 -83.5t-40.5 -54.5t-53 -28t-58.5 -9t-58.5 9t-52.5 28.5t-40 55t-15 83.5zM225 301
l-1 20q0 38 -9 53.5t-26 16.5q-18 -1 -26.5 -16t-8.5 -55v-19h71z" />
    <glyph glyph-name="Eogonek" unicode="&#x118;" horiz-adv-x="346" 
d="M29 700h303v-152h-147v-120h137v-152h-137v-124h147v-152h-36q-29 -44 -26 -63q2 -18 28 -21h10v-93h-12q-121 2 -133 70q-6 41 36 107h-170v700z" />
    <glyph glyph-name="eogonek" unicode="&#x119;" horiz-adv-x="378" 
d="M23 168v165q0 48 15 83.5t40 55t52.5 28.5t58.5 9t59 -9t53 -28t40 -55t15 -84v-128h-202v-15q0 -45 8 -62t28 -17q17 0 25.5 12.5t9.5 43.5h131q0 -99 -64 -144l-4 -3q-24 -34 -21 -51q2 -18 29 -21h9v-93h-12q-121 2 -133 71q-4 28 17 67q-11 0 -21 2
q-58 10 -95.5 51.5t-37.5 121.5zM224 302v19q0 38 -9 53.5t-26 15.5q-18 0 -26.5 -15t-8.5 -55v-18h70z" />
    <glyph glyph-name="Ecaron" unicode="&#x11a;" horiz-adv-x="346" 
d="M223 906h93l-73 -159h-139l-73 159h93l50 -53zM29 700h303v-152h-147v-120h137v-152h-137v-124h147v-152h-303v700z" />
    <glyph glyph-name="ecaron" unicode="&#x11b;" horiz-adv-x="378" 
d="M238 706h93l-73 -159h-139l-73 159h93l50 -53zM23 168v165q0 48 15 83.5t40 55t52.5 28.5t58.5 9t58.5 -9t53 -28t40.5 -55t15 -84v-128h-202v-15q0 -45 8 -62t28 -18q17 0 25.5 13t9.5 44h131q0 -48 -15 -83.5t-40.5 -54.5t-53 -28t-58.5 -9t-58.5 9t-53 28.5t-40 55
t-14.5 83.5zM225 301l-1 20q0 38 -9 53.5t-26 16.5q-18 -1 -26.5 -16t-8.5 -55v-19h71z" />
    <glyph glyph-name="Gbreve" unicode="&#x11e;" horiz-adv-x="455" 
d="M260 900h109q-1 -57 -42 -97t-98.5 -40t-99 40t-42.5 97h109q2 -12 11 -20t21 -8t21 8t11 20zM27 234v233q0 67 17 115.5t47 75t64 39t74 12.5q39 0 72.5 -12t63 -38.5t46.5 -75t17 -115.5v-10h-153v6q-1 93 -46 93q-24 0 -34.5 -23.5t-10.5 -72.5v-220q0 -49 10.5 -73
t34.5 -24q46 0 46 91v20h-48v152h202v-173q0 -67 -17 -116t-46.5 -75.5t-63.5 -38.5t-73 -12q-40 0 -74 12.5t-64 39t-47 75t-17 115.5z" />
    <glyph glyph-name="gbreve" unicode="&#x11f;" horiz-adv-x="383" 
d="M223 700h110q-2 -57 -43 -97t-98.5 -40t-98.5 40t-43 97h110q1 -12 10 -20t21.5 -8t21.5 8t10 20zM23 176v157q0 92 36 134t87 42q67 0 103 -46l18 38h90v-498q0 -47 -15 -83t-40 -55t-52.5 -28t-58.5 -9q-27 0 -52.5 7t-49.5 22.5t-40.5 43.5t-21.5 66h133q7 -20 30 -20
q18 0 27 14t9 48v19q-30 -28 -80 -28q-51 0 -87 41.5t-36 134.5zM225 235v32q1 73 -6 98t-29 25t-28.5 -24t-7.5 -99v-32q0 -74 7 -99t29 -25q20 0 27.5 25.5t7.5 98.5z" />
    <glyph glyph-name="Gdotaccent" unicode="&#x120;" horiz-adv-x="455" 
d="M164 774v126h129v-126h-129zM27 234v233q0 67 17 115.5t47 75t64 39t74 12.5q39 0 72.5 -12t63 -38.5t46.5 -75t17 -115.5v-10h-153v6q-1 93 -46 93q-24 0 -34.5 -23.5t-10.5 -72.5v-220q0 -49 10.5 -73t34.5 -24q46 0 46 91v20h-48v152h202v-173q0 -67 -17 -116
t-46.5 -75.5t-63.5 -38.5t-73 -12q-40 0 -74 12.5t-64 39t-47 75t-17 115.5z" />
    <glyph glyph-name="gdotaccent" unicode="&#x121;" horiz-adv-x="383" 
d="M127 700h129v-126h-129v126zM23 176v157q0 92 36 134t87 42q67 0 103 -46l18 38h90v-498q0 -47 -15 -83t-40 -55t-52.5 -28t-58.5 -9q-27 0 -52.5 7t-49.5 22.5t-40.5 43.5t-21.5 66h133q7 -20 30 -20q18 0 26.5 13t9.5 46v22q-30 -28 -80 -28q-51 0 -87 41.5t-36 134.5z
M225 235v32q1 73 -6 98t-29 25t-28.5 -24t-7.5 -99v-32q0 -74 7 -99t29 -25q20 0 27.5 25.5t7.5 98.5z" />
    <glyph glyph-name="Gcommaaccent" unicode="&#x122;" horiz-adv-x="455" 
d="M27 234v233q0 67 17 115.5t47 75t64 39t74 12.5q39 0 72.5 -12t63 -38.5t46.5 -75t17 -115.5v-10h-153v6q-1 93 -46 93q-24 0 -34.5 -23.5t-10.5 -72.5v-220q0 -49 10.5 -73t34.5 -24q46 0 46 91v20h-48v152h202v-173q0 -67 -17 -116t-46.5 -75.5t-63.5 -38.5t-73 -12
q-86 0 -144 57t-58 185zM157 -31h142v-139l-51 -142h-55l24 142h-60v139z" />
    <glyph glyph-name="gcommaaccent" unicode="&#x123;" horiz-adv-x="381" 
d="M172 829h50l-22 -130h54v-126h-128v126zM23 176v157q0 92 36 134t87 42q67 0 103 -46l18 38h90v-498q0 -47 -15 -83t-40 -55t-52.5 -28t-58.5 -9q-27 0 -52.5 7t-49.5 22.5t-40.5 43.5t-21.5 66h133q7 -20 30 -20q18 0 27 13.5t9 47.5v20q-30 -28 -80 -28q-51 0 -87 41.5
t-36 134.5zM225 235v32q1 73 -6 98t-29 25t-28.5 -24t-7.5 -99v-32q0 -74 7 -99t29 -25q20 0 27.5 25.5t7.5 98.5z" />
    <glyph glyph-name="Hbar" unicode="&#x126;" horiz-adv-x="552" 
d="M533 630v-139h-60v-491h-156v276h-86v-276h-156v491h-60v139h60v70h156v-70h86v70h156v-70h60zM317 428v63h-85v-63h85z" />
    <glyph glyph-name="hbar" unicode="&#x127;" horiz-adv-x="440" 
d="M214 540v-60q31 29 79 29q52 0 88 -42t36 -134v-333h-131v267q0 74 -7 99t-29 25q-19 0 -27.5 -19t-8.5 -68v-304h-131v540h-71v119h71v41h131v-41h71v-119h-71z" />
    <glyph glyph-name="Imacron" unicode="&#x12a;" horiz-adv-x="219" 
d="M-26 900h271v-117h-271v117zM29 0v700h162v-700h-162z" />
    <glyph glyph-name="imacron" unicode="&#x12b;" horiz-adv-x="295" 
d="M12 700h271v-117h-271v117zM85 0v500h131v-500h-131z" />
    <glyph glyph-name="Iogonek" unicode="&#x12e;" horiz-adv-x="219" 
d="M29 700h162v-700q-30 -43 -27 -63q3 -19 29 -21h9v-94h-11q-128 2 -134 75q-4 41 37 103h-65v700z" />
    <glyph glyph-name="iogonek" unicode="&#x12f;" horiz-adv-x="204" 
d="M32 574v126h129v-126h-129zM162 500v-500q0 -1 -5 -8.5t-6.5 -9.5t-5 -8t-4.5 -9t-3 -8t-2.5 -9t-0.5 -8q1 -22 31 -24h8v-94h-12q-130 2 -134 80q-1 18 7 40t13.5 31t17.5 27h-34v500h130z" />
    <glyph glyph-name="Idotaccent" unicode="&#x130;" horiz-adv-x="219" 
d="M45 774v126h129v-126h-129zM29 0v700h162v-700h-162z" />
    <glyph glyph-name="dotlessi" unicode="&#x131;" horiz-adv-x="194" 
d="M32 0v500h131v-500h-131z" />
    <glyph glyph-name="IJ" unicode="&#x132;" horiz-adv-x="536" 
d="M29 700h162v-700h-162v700zM351 700h157v-466q0 -66 -17 -115t-47 -75.5t-63.5 -39t-72.5 -12.5h-67v152h38q72 1 72 97v459z" />
    <glyph glyph-name="ij" unicode="&#x133;" horiz-adv-x="445" 
d="M27 689h142v-128h-142v128zM279 689h141v-128h-141v128zM32 500h132v-500h-132v500zM284 500h132v-496q0 -95 -40 -136t-104 -41h-52v118h14q31 1 40.5 20.5t9.5 72.5v462z" />
    <glyph glyph-name="Kcommaaccent" unicode="&#x136;" horiz-adv-x="498" 
d="M333 353l144 -353h-181l-105 278v-278h-162v700h162v-265l95 266h176zM179 -170v139h141v-139l-50 -142h-56l25 142h-60z" />
    <glyph glyph-name="kcommaaccent" unicode="&#x137;" 
d="M276 257l87 -257h-135l-70 188v-188h-132v700h132v-372l64 172h135zM121 -170v139h141v-139l-50 -142h-55l24 142h-60z" />
    <glyph glyph-name="Lacute" unicode="&#x139;" horiz-adv-x="344" 
d="M128 919h143l-97 -172h-101zM29 700h156v-548h137v-152h-293v700z" />
    <glyph glyph-name="lacute" unicode="&#x13a;" horiz-adv-x="249" 
d="M87 922h143l-97 -171h-101zM27 0v700h132v-700h-132z" />
    <glyph glyph-name="Lcommaaccent" unicode="&#x13b;" horiz-adv-x="344" 
d="M185 152h137v-152h-293v700h156v-548zM101 -170v139h142v-139l-50 -142h-56l24 142h-60z" />
    <glyph glyph-name="lcommaaccent" unicode="&#x13c;" horiz-adv-x="181" 
d="M159 700v-700h-132v700h132zM21 -31h141v-139l-50 -142h-56l25 142h-60v139z" />
    <glyph glyph-name="Lcaron" unicode="&#x13d;" horiz-adv-x="459" 
d="M317 418l24 143h-60v139h142v-139l-50 -143h-56zM185 152h137v-152h-293v700h156v-548z" />
    <glyph glyph-name="lcaron" unicode="&#x13e;" horiz-adv-x="353" 
d="M27 0v700h132v-700h-132zM195 700h141v-139l-50 -143h-56l25 143h-60v139z" />
    <glyph glyph-name="Ldot" unicode="&#x13f;" horiz-adv-x="438" 
d="M185 152h137v-152h-293v700h156v-548zM266 302v131h134v-131h-134z" />
    <glyph glyph-name="ldot" unicode="&#x140;" horiz-adv-x="362" 
d="M27 0v700h132v-700h-132zM199 298v139h142v-139h-142z" />
    <glyph glyph-name="Lslash" unicode="&#x141;" horiz-adv-x="419" 
d="M239 152h159v-152h-315v287l-72 -24v153l72 24v260h156v-224l73 24v-153l-73 -24v-171z" />
    <glyph glyph-name="lslash" unicode="&#x142;" horiz-adv-x="338" 
d="M320 500v-153l-84 -27v-320h-132v290l-84 -27v153l84 27v257h132v-227z" />
    <glyph glyph-name="Nacute" unicode="&#x143;" horiz-adv-x="496" 
d="M205 919h143l-97 -172h-101zM318 700h152v-700h-154l-138 339v-339h-151v700h154l137 -339v339z" />
    <glyph glyph-name="nacute" unicode="&#x144;" horiz-adv-x="383" 
d="M148 719h143l-97 -172h-101zM116 500l20 -38q36 47 100 47q52 0 88 -42t36 -134v-333h-131v267q0 74 -7 99t-29 25q-19 0 -27.5 -19t-8.5 -68v-304h-131v500h90z" />
    <glyph glyph-name="Ncommaaccent" unicode="&#x145;" horiz-adv-x="496" 
d="M318 700h152v-700h-154l-138 339v-339h-151v700h154l137 -339v339zM178 -170v139h141v-139l-50 -142h-55l24 142h-60z" />
    <glyph glyph-name="ncommaaccent" unicode="&#x146;" horiz-adv-x="383" 
d="M116 500l20 -38q36 47 100 47q52 0 88 -42t36 -134v-333h-131v267q0 74 -7 99t-29 25q-19 0 -27.5 -19t-8.5 -68v-304h-131v500h90zM121 -170v139h142v-139l-51 -142h-55l24 142h-60z" />
    <glyph glyph-name="Ncaron" unicode="&#x147;" horiz-adv-x="496" 
d="M298 906h93l-73 -159h-139l-73 159h93l50 -53zM318 700h152v-700h-154l-138 339v-339h-151v700h154l137 -339v339z" />
    <glyph glyph-name="ncaron" unicode="&#x148;" horiz-adv-x="383" 
d="M241 706h93l-73 -159h-139l-73 159h93l50 -53zM116 500l20 -38q36 47 100 47q52 0 88 -42t36 -134v-333h-131v267q0 74 -7 99t-29 25q-19 0 -27.5 -19t-8.5 -68v-304h-131v500h90z" />
    <glyph glyph-name="Eng" unicode="&#x14a;" horiz-adv-x="600" 
d="M392 700h157v-660q0 -212 -175 -212h-56v149h27q22 0 32 8.5t13 29.5l-128 356v-371h-156v700h154l132 -370v370z" />
    <glyph glyph-name="eng" unicode="&#x14b;" horiz-adv-x="394" 
d="M120 500l20 -38q37 47 101 47q51 0 87 -42t37 -134v-329q0 -96 -40 -136.5t-105 -40.5h-51v118h14q29 1 39 16.5t11 56.5v273q0 58 -7.5 79t-27.5 21t-28.5 -19t-8.5 -68v-304h-131v500h90z" />
    <glyph glyph-name="Omacron" unicode="&#x14c;" horiz-adv-x="465" 
d="M97 900h272v-117h-272v117zM26 234v233q0 66 17.5 115t48 75.5t65.5 39t75 12.5q39 0 74 -12t66 -38.5t49 -75.5t18 -116v-233q0 -67 -18 -116t-49 -75.5t-66 -38.5t-74 -12q-40 0 -75 12.5t-65.5 39t-48 75.5t-17.5 115zM278 241v220q0 96 -46 96q-24 0 -34.5 -23.5
t-10.5 -72.5v-220q0 -49 10.5 -73t34.5 -24q46 0 46 97z" />
    <glyph glyph-name="omacron" unicode="&#x14d;" horiz-adv-x="379" 
d="M54 700h272v-117h-272v117zM23 168v165q0 48 15 83.5t40 55t52.5 28.5t58.5 9t59 -9t53 -28t40 -55t15 -84v-165q0 -48 -15 -84t-40 -55t-53 -28t-59 -9t-58.5 9t-52.5 28.5t-40 55t-15 83.5zM225 234v33q0 73 -7.5 98.5t-28.5 25.5t-28 -25t-7 -99v-33q1 -75 7.5 -99.5
t28.5 -24.5t29 25.5t6 98.5z" />
    <glyph glyph-name="Ohungarumlaut" unicode="&#x150;" horiz-adv-x="465" 
d="M115 919h131l-97 -172h-89zM275 919h131l-97 -172h-89zM26 234v233q0 66 17.5 115t48 75.5t65.5 39t75 12.5q39 0 74 -12t66 -38.5t49 -75.5t18 -116v-233q0 -67 -18 -116t-49 -75.5t-66 -38.5t-74 -12q-40 0 -75 12.5t-65.5 39t-48 75.5t-17.5 115zM278 241v220
q0 96 -46 96q-24 0 -34.5 -23.5t-10.5 -72.5v-220q0 -49 10.5 -73t34.5 -24q46 0 46 97z" />
    <glyph glyph-name="ohungarumlaut" unicode="&#x151;" horiz-adv-x="423" 
d="M104 719h131l-97 -172h-90zM264 719h131l-97 -172h-89zM23 168v165q0 48 15 83.5t40 55t52.5 28.5t58.5 9t59 -9t53 -28t40 -55t15 -84v-165q0 -48 -15 -84t-40 -55t-53 -28t-59 -9t-58.5 9t-52.5 28.5t-40 55t-15 83.5zM225 234v33q0 73 -7.5 98.5t-28.5 25.5t-28 -25
t-7 -99v-33q1 -75 7.5 -99.5t28.5 -24.5t29 25.5t6 98.5z" />
    <glyph glyph-name="OE" unicode="&#x152;" horiz-adv-x="652" 
d="M23 234v233q0 66 17.5 115t48 75.5t65.5 39t75 12.5q58 0 96 -30v21h303v-152h-146v-120h136v-152h-136v-124h146v-152h-303v22q-37 -30 -96 -30q-40 0 -75 12.5t-65.5 39t-48 75.5t-17.5 115zM275 241v220q0 96 -46 96q-24 0 -34.5 -23.5t-10.5 -72.5v-220
q0 -50 10.5 -73.5t34.5 -23.5q46 0 46 97z" />
    <glyph glyph-name="oe" unicode="&#x153;" horiz-adv-x="624" 
d="M36 168v165q0 48 11.5 83.5t30.5 55t40.5 28.5t45.5 9q77 0 111 -60q44 60 131 60q30 0 58 -9t53.5 -28t40.5 -55t15 -84v-128h-202v-18q0 -43 8 -59.5t28 -17.5q16 0 25 13t10 44h131q-1 -48 -16 -83.5t-40 -54.5t-53 -28t-59 -9q-86 0 -130 60q-34 -60 -111 -60
q-24 0 -45.5 9t-40.5 28.5t-30.5 55t-11.5 83.5zM238 234v33q0 73 -7.5 98.5t-27.5 25.5q-22 0 -29 -25t-7 -99v-33q1 -75 7.5 -99.5t29.5 -24.5q21 0 28 25.5t6 98.5zM440 323v21q-2 46 -34 47q-16 -1 -25 -11t-10 -36v-21h69z" />
    <glyph glyph-name="Racute" unicode="&#x154;" horiz-adv-x="461" 
d="M187 919h143l-97 -172h-101zM29 700h164q35 0 66.5 -5.5t62 -20t52.5 -36.5t36 -57t14 -79v-48q0 -92 -65 -142l81 -312h-166l-63 231l-26 9v-240h-156v700zM271 475v6q0 35 -15 51t-38 16h-33v-140h33q22 0 37.5 16t15.5 51z" />
    <glyph glyph-name="racute" unicode="&#x155;" horiz-adv-x="283" 
d="M98 719h143l-97 -172h-101zM116 500l25 -51q48 60 123 60v-118q-54 0 -80 -27t-27 -94v-270h-131v500h90z" />
    <glyph glyph-name="Rcommaaccent" unicode="&#x156;" horiz-adv-x="461" 
d="M29 700h164q35 0 66.5 -5.5t62 -20t52.5 -36.5t36 -57t14 -79v-48q0 -92 -65 -142l81 -312h-166l-63 231l-26 9v-240h-156v700zM271 475v6q0 35 -15 51t-38 16h-33v-140h33q22 0 37.5 16t15.5 51zM160 -31h142v-139l-51 -142h-55l24 142h-60v139z" />
    <glyph glyph-name="rcommaaccent" unicode="&#x157;" horiz-adv-x="283" 
d="M116 500l25 -51q48 60 123 60v-118q-54 0 -80 -27t-27 -94v-270h-131v500h90zM74 -170v139h141v-139l-49 -142h-56l24 142h-60z" />
    <glyph glyph-name="Rcaron" unicode="&#x158;" horiz-adv-x="461" 
d="M280 906h93l-73 -159h-139l-73 159h93l50 -53zM29 700h164q35 0 66.5 -5.5t62 -20t52.5 -36.5t36 -57t14 -79v-48q0 -92 -65 -142l81 -312h-166l-63 231l-26 9v-240h-156v700zM271 475v6q0 35 -15 51.5t-38 16.5h-33v-141h33q22 0 37.5 16t15.5 51z" />
    <glyph glyph-name="rcaron" unicode="&#x159;" horiz-adv-x="283" 
d="M191 706h93l-73 -159h-139l-73 159h93l50 -53zM116 500l25 -51q48 60 123 60v-118q-54 0 -80 -27t-27 -94v-270h-131v500h90z" />
    <glyph glyph-name="Sacute" unicode="&#x15a;" horiz-adv-x="451" 
d="M181 919h143l-97 -172h-101zM17 223h152q0 -79 54 -79t54 66q0 36 -19 49.5t-76 23.5q-26 4 -50 14.5t-49 31.5t-40 59.5t-15 89.5q0 63 17 110t46.5 72t63.5 37t73 12q38 0 71 -11.5t62 -37t45.5 -72.5t16.5 -113h-151q0 82 -44 82q-43 0 -43 -69q0 -16 5 -27t17.5 -17
t23 -9t31.5 -6q48 -7 82.5 -27.5t53.5 -49.5t27.5 -60t8.5 -66q0 -65 -17 -111.5t-47.5 -72.5t-66.5 -38t-79 -12q-42 0 -76.5 11.5t-64.5 37t-47.5 72.5t-18.5 110z" />
    <glyph glyph-name="sacute" unicode="&#x15b;" horiz-adv-x="361" 
d="M137 719h143l-97 -172h-101zM147 160l-1 -14q1 -17 10.5 -26t24.5 -9q34 0 34 34q0 33 -16.5 46t-55.5 19q-53 6 -88.5 43t-35.5 98q0 79 44.5 118.5t115.5 39.5q69 0 115 -40.5t46 -110.5v-9h-131v7q0 17 -8.5 26t-20.5 9q-30 0 -30 -31q1 -34 38 -41q47 -8 79.5 -24.5
t49 -40t23.5 -48t7 -54.5q0 -80 -45.5 -120t-120.5 -40q-67 0 -116 40.5t-50 110.5v17h132z" />
    <glyph glyph-name="Scedilla" unicode="&#x15e;" horiz-adv-x="451" 
d="M17 223h152q0 -79 54 -79t54 66q0 36 -19 49.5t-76 23.5q-26 4 -50 14.5t-49 31.5t-40 59.5t-15 89.5q0 63 17 110t46.5 72t63.5 37t73 12q38 0 71 -11.5t62 -37t45.5 -72.5t16.5 -113h-151q0 82 -44 82q-43 0 -43 -69q0 -16 5 -27t17.5 -17t23 -9t31.5 -6
q48 -7 82.5 -27.5t53.5 -49.5t27.5 -60t8.5 -66q0 -179 -131 -222v-28q-1 -82 -31.5 -117t-110.5 -37h-14v94l13 1q22 1 30 15t8 43v19q-14 1 -20 2q-70 12 -115 67t-46 160z" />
    <glyph glyph-name="scedilla" unicode="&#x15f;" horiz-adv-x="361" 
d="M147 160l-1 -14q1 -17 11 -26t24 -9q34 0 34 34q0 33 -16.5 46t-55.5 19q-53 6 -88.5 43t-35.5 98q0 79 44.5 118.5t115.5 39.5q69 0 115 -40.5t46 -109.5v-10h-131v7q0 18 -8.5 26.5t-20.5 8.5q-30 0 -30 -31q1 -34 38 -41q47 -8 79.5 -24.5t49 -40t23.5 -48t7 -54.5
q0 -111 -88 -146v-25q-1 -86 -31 -121.5t-112 -37.5h-13v94h10q23 1 31.5 15t9.5 44v21q-9 0 -24 4q-50 13 -82 49.5t-33 93.5v17h132z" />
    <glyph glyph-name="Scaron" unicode="&#x160;" horiz-adv-x="451" 
d="M275 906h93l-73 -159h-139l-73 159h93l49 -53zM17 223h152q0 -79 54 -79t54 66q0 36 -19 49.5t-76 23.5q-26 4 -50 14.5t-49 31.5t-40 59.5t-15 89.5q0 63 17 110t46.5 72t63.5 37t73 12q38 0 71 -11.5t62 -37t45.5 -72.5t16.5 -113h-151q0 82 -44 82q-43 0 -43 -69
q0 -16 5 -27t17.5 -17t23 -9t31.5 -6q48 -7 82.5 -27.5t53.5 -49.5t27.5 -60t8.5 -66q0 -65 -17 -111.5t-47.5 -72.5t-66.5 -38t-79 -12q-42 0 -77 11.5t-64.5 37t-47 72.5t-18.5 110z" />
    <glyph glyph-name="scaron" unicode="&#x161;" horiz-adv-x="361" 
d="M230 706h93l-73 -159h-139l-73 159h93l50 -53zM147 160l-1 -14q1 -17 10.5 -26t24.5 -9q34 0 34 34q0 33 -16.5 46t-55.5 19q-53 6 -88.5 43t-35.5 98q0 79 44.5 118.5t115.5 39.5q69 0 115 -40.5t46 -110.5v-9h-131v7q0 17 -8.5 26t-20.5 9q-30 0 -30 -31q1 -34 38 -41
q47 -8 79.5 -24.5t49 -40t23.5 -48t7 -54.5q0 -80 -45.5 -120t-120.5 -40q-67 0 -116.5 40.5t-49.5 110.5v17h132z" />
    <glyph glyph-name="Tcedilla" unicode="&#x162;" horiz-adv-x="412" 
d="M22 700h369v-152h-107v-558q0 -92 -30 -129.5t-114 -38.5h-12v94h10q24 1 32 15.5t9 49.5v19h-51v548h-106v152z" />
    <glyph glyph-name="tcedilla" unicode="&#x163;" horiz-adv-x="287" 
d="M70 653h131v-153h64v-118h-64v-179q0 -55 9.5 -74.5t40.5 -19.5h14v-118h-6q-10 0 -29 1l-1 -19q-5 -68 -36 -97.5t-106 -31.5h-13v94h11q23 2 31 17t9 48v15q-56 42 -55 151v213h-48v118h48v153z" />
    <glyph glyph-name="Tcaron" unicode="&#x164;" horiz-adv-x="412" 
d="M256 906h93l-73 -159h-139l-73 159h93l49 -53zM391 700v-152h-107v-548h-156v548h-106v152h369z" />
    <glyph glyph-name="tcaron" unicode="&#x165;" horiz-adv-x="427" 
d="M269 714h129v-126l-46 -130h-50l22 130h-55v126zM70 653h131v-153h64v-118h-64v-179q0 -54 9.5 -74t39.5 -20h15v-118h-51q-65 0 -104.5 40.5t-39.5 137.5v213h-48v118h48v153z" />
    <glyph glyph-name="Tbar" unicode="&#x166;" horiz-adv-x="412" 
d="M22 700h369v-152h-107v-120h65v-117h-65v-311h-156v311h-64v117h64v120h-106v152z" />
    <glyph glyph-name="tbar" unicode="&#x167;" horiz-adv-x="287" 
d="M265 382h-64v-56h65v-117h-65v-29q1 -41 11.5 -56t37.5 -15h15v-118h-51q-65 0 -104.5 40.5t-39.5 137.5v40h-48v117h48v56h-48v118h48v153h131v-153h64v-118z" />
    <glyph glyph-name="Umacron" unicode="&#x16a;" horiz-adv-x="459" 
d="M95 900h271v-117h-271v117zM185 232v468h-156v-475q0 -66 17 -113.5t46.5 -72.5t63.5 -36t74 -11t73.5 11t64 36t48 72.5t17.5 113.5v475h-157v-468q0 -47 -11 -67.5t-35 -20.5t-34.5 20.5t-10.5 67.5z" />
    <glyph glyph-name="umacron" unicode="&#x16b;" horiz-adv-x="381" 
d="M55 700h272v-117h-272v117zM227 500h131v-500h-90l-20 38q-37 -47 -101 -47q-51 0 -87.5 42t-36.5 134v333h132v-267q0 -74 7 -99t28 -25q20 0 28 19t9 68v304z" />
    <glyph glyph-name="Uring" unicode="&#x16e;" horiz-adv-x="459" 
d="M230 962q48 0 82 -34t34 -81q0 -48 -34 -82t-82 -34t-81.5 34t-33.5 82q0 47 33.5 81t81.5 34zM230 871q-10 0 -17.5 -7t-7.5 -17q0 -11 7.5 -18.5t17.5 -7.5t17.5 7.5t7.5 18.5q0 10 -7.5 17t-17.5 7zM185 232v468h-156v-475q0 -66 17 -113.5t46.5 -72.5t63.5 -36
t74 -11t73.5 11t64 36t48 72.5t17.5 113.5v475h-157v-468q0 -47 -11 -67.5t-35 -20.5t-34.5 20.5t-10.5 67.5z" />
    <glyph glyph-name="uring" unicode="&#x16f;" horiz-adv-x="381" 
d="M190.5 762q47.5 0 81.5 -34t34 -81q0 -48 -33.5 -82t-81.5 -34t-81.5 34t-33.5 82q0 47 33.5 81t81 34zM190.5 671q-10.5 0 -17.5 -7t-7 -17q0 -11 7 -18.5t17.5 -7.5t18 7.5t7.5 18.5q0 10 -7.5 17t-18 7zM227 500h131v-500h-90l-20 38q-37 -47 -101 -47q-51 0 -87.5 42
t-36.5 134v333h132v-267q0 -74 7 -99t28 -25q20 0 28 19t9 68v304z" />
    <glyph glyph-name="Uhungarumlaut" unicode="&#x170;" horiz-adv-x="459" 
d="M112 919h131l-97 -172h-89zM272 919h131l-97 -172h-89zM185 232v468h-156v-475q0 -66 17 -113.5t46.5 -72.5t63.5 -36t74 -11t73.5 11t64 35.5t48 72.5t17.5 114v475h-157v-468q0 -47 -11 -67.5t-35 -20.5t-34.5 20.5t-10.5 67.5z" />
    <glyph glyph-name="uhungarumlaut" unicode="&#x171;" horiz-adv-x="381" 
d="M85 719h131l-97 -172h-89zM245 719h131l-97 -172h-89zM227 500h131v-500h-90l-20 38q-37 -47 -101 -47q-51 0 -87.5 42t-36.5 134v333h132v-267q0 -74 7 -99t28 -25q20 0 28 19t9 68v304z" />
    <glyph glyph-name="Uogonek" unicode="&#x172;" horiz-adv-x="459" 
d="M276 700h157v-475q0 -114 -56 -172l-33 -54q-29 -41 -25 -62q3 -19 29 -21h8v-94h-10q-132 2 -135 80q-2 37 32 90h-13q-40 0 -74 11t-63.5 36t-46.5 72.5t-17 113.5v475h156v-468q0 -47 10.5 -67.5t34.5 -20.5t35 20.5t11 67.5v468z" />
    <glyph glyph-name="uogonek" unicode="&#x173;" horiz-adv-x="381" 
d="M227 500h131v-500q-29 -42 -28 -60q0 -22 29 -24h9v-94h-14q-121 4 -130 73q-5 43 44 105l-20 38q-37 -47 -101 -47q-51 0 -87.5 42t-36.5 134v333h132v-267q0 -74 7 -99t28 -25q20 0 28 19t9 68v304z" />
    <glyph glyph-name="Wcircumflex" unicode="&#x174;" horiz-adv-x="757" 
d="M310 906h138l73 -159h-93l-49 53l-49 -53h-93zM577 700h158l-120 -700h-186l-51 314l-51 -314h-186l-119 700h158l65 -442l61 442h145l61 -442z" />
    <glyph glyph-name="wcircumflex" unicode="&#x175;" horiz-adv-x="607" 
d="M234 706h139l73 -159h-93l-49 53l-50 -53h-93zM457 500h132l-88 -500h-161l-36 242l-36 -242h-161l-88 500h132l47 -327l51 327h110l51 -327z" />
    <glyph glyph-name="Ycircumflex" unicode="&#x176;" horiz-adv-x="523" 
d="M192 906h139l73 -159h-93l-49 53l-50 -53h-93zM339 700h163l-159 -435v-265h-163v265l-158 435h162l77 -255z" />
    <glyph glyph-name="ycircumflex" unicode="&#x177;" horiz-adv-x="373" 
d="M117 706h139l73 -159h-93l-49 53l-50 -53h-93zM223 501h131v-500q-1 -47 -15.5 -82t-39.5 -54t-53 -28t-58 -9q-28 0 -53.5 7t-49 22.5t-40.5 43.5t-22 66h133q7 -20 31 -20q18 0 26.5 14t8.5 48l1 19q-31 -28 -80 -28q-51 0 -87.5 41.5t-36.5 134.5v324h132v-258
q0 -74 7 -99t28 -25t28.5 25.5t8.5 98.5v259z" />
    <glyph glyph-name="Ydieresis" unicode="&#x178;" horiz-adv-x="523" 
d="M113 773v127h129v-127h-129zM282 773v127h129v-127h-129zM339 700h163l-159 -435v-265h-163v265l-158 435h162l77 -255z" />
    <glyph glyph-name="Zacute" unicode="&#x179;" horiz-adv-x="437" 
d="M175 919h142l-97 -172h-101zM25 700h391v-129l-229 -419h232v-152h-402v126l231 422h-223v152z" />
    <glyph glyph-name="zacute" unicode="&#x17a;" horiz-adv-x="343" 
d="M128 719h143l-97 -172h-101zM31 500h288v-97l-155 -285h160v-118h-305v96l159 286h-147v118z" />
    <glyph glyph-name="Zdotaccent" unicode="&#x17b;" horiz-adv-x="437" 
d="M154 900h129v-126h-129v126zM25 700h391v-129l-229 -419h232v-152h-402v126l231 422h-223v152z" />
    <glyph glyph-name="zdotaccent" unicode="&#x17c;" horiz-adv-x="343" 
d="M107 700h129v-126h-129v126zM31 500h288v-97l-155 -285h160v-118h-305v96l159 286h-147v118z" />
    <glyph glyph-name="Zcaron" unicode="&#x17d;" horiz-adv-x="437" 
d="M268 906h93l-73 -159h-139l-73 159h93l49 -53zM25 700h391v-129l-229 -419h232v-152h-402v126l231 422h-223v152z" />
    <glyph glyph-name="zcaron" unicode="&#x17e;" horiz-adv-x="343" 
d="M221 706h93l-73 -159h-139l-73 159h93l50 -53zM31 500h288v-97l-155 -285h160v-118h-305v96l159 286h-147v118z" />
    <glyph glyph-name="florin" unicode="&#x192;" horiz-adv-x="334" 
d="M287 701h32v-118h-16q-28 -1 -40 -14.5t-19 -54.5l-3 -14h75v-118h-95l-65 -382h-133l65 382h-73v118h93l8 49q9 49 24.5 80.5t39.5 46.5t48 20t59 5z" />
    <glyph glyph-name="Acaron" unicode="&#x1cd;" horiz-adv-x="500" 
d="M300 906h93l-73 -159h-139l-73 159h93l50 -53zM149 700h201l128 -700h-156l-23 136h-97l-24 -136h-156zM281 292l-31 232l-32 -232h63z" />
    <glyph glyph-name="acaron" unicode="&#x1ce;" 
d="M241 706h93l-73 -159h-139l-73 159h93l50 -53zM267 500h90v-500h-90l-17 37q-34 -45 -99 -45q-24 0 -45.5 9t-41 28.5t-30.5 55t-11 83.5v165q0 48 11 83.5t30.5 55t41 28.5t45.5 9q64 0 98 -43zM154 267v-33q1 -75 7.5 -99.5t28.5 -24.5t29 25t6 99v33q0 73 -7.5 98.5
t-27.5 25.5q-22 0 -29 -25t-7 -99z" />
    <glyph glyph-name="Icaron" unicode="&#x1cf;" horiz-adv-x="219" 
d="M159 906h93l-73 -159h-139l-73 159h93l50 -53zM29 0v700h162v-700h-162z" />
    <glyph glyph-name="icaron" unicode="&#x1d0;" horiz-adv-x="313" 
d="M206 706h93l-73 -159h-139l-73 159h93l50 -53zM93 0v500h131v-500h-131z" />
    <glyph glyph-name="Ocaron" unicode="&#x1d1;" horiz-adv-x="465" 
d="M282 906h93l-73 -159h-139l-73 159h93l50 -53zM26 234v233q0 66 17.5 115t48 75.5t65.5 39t75 12.5q39 0 74 -12t66 -38.5t49 -75.5t18 -116v-233q0 -67 -18 -116t-49 -75.5t-66 -38.5t-74 -12q-40 0 -75 12.5t-65.5 39t-48 75.5t-17.5 115zM278 241v220q0 96 -46 96
q-24 0 -35 -23.5t-11 -72.5v-220q0 -49 11 -73t35 -24q46 0 46 97z" />
    <glyph glyph-name="ocaron" unicode="&#x1d2;" horiz-adv-x="379" 
d="M239 706h93l-73 -159h-138l-73 159h93l49 -53zM23 168v165q0 48 15 83.5t40 55t52.5 28.5t58.5 9t59 -9t53 -28t40 -55t15 -84v-165q0 -48 -15 -84t-40 -55t-53 -28t-59 -9t-58.5 9t-52.5 28.5t-40 55t-15 83.5zM225 234v33q0 73 -7.5 98.5t-28.5 25.5t-28 -25t-7 -99
v-33q1 -75 7.5 -99.5t28.5 -24.5t29 25.5t6 98.5z" />
    <glyph glyph-name="Ucaron" unicode="&#x1d3;" horiz-adv-x="459" 
d="M280 906h93l-73 -159h-139l-73 159h93l49 -53zM185 232v468h-156v-475q0 -66 17 -113.5t46.5 -72.5t63.5 -36t74 -11t73.5 11t64 36t48 72.5t17.5 113.5v475h-157v-468q0 -47 -11 -67.5t-35 -20.5t-34.5 20.5t-10.5 67.5z" />
    <glyph glyph-name="ucaron" unicode="&#x1d4;" horiz-adv-x="381" 
d="M240 706h93l-73 -159h-139l-73 159h93l50 -53zM227 500h131v-500h-90l-20 38q-37 -47 -101 -47q-51 0 -87.5 42t-36.5 134v333h132v-267q0 -74 7 -99t28 -25q20 0 28 19t9 68v304z" />
    <glyph glyph-name="Udieresismacron" unicode="&#x1d5;" horiz-adv-x="459" 
d="M95 1036h271v-117h-271v117zM81 751v127h129v-127h-129zM250 751v127h129v-127h-129zM185 232v468h-156v-475q0 -66 17 -113.5t46.5 -72.5t63.5 -36t74 -11t73.5 11t64 36t48 72.5t17.5 113.5v475h-157v-468q0 -47 -11 -67.5t-35 -20.5t-34.5 20.5t-10.5 67.5z" />
    <glyph glyph-name="udieresismacron" unicode="&#x1d6;" horiz-adv-x="381" 
d="M55 835h272v-117h-272v117zM42 554v126h129v-126h-129zM211 554v126h129v-126h-129zM227 500h131v-500h-90l-20 38q-37 -47 -101 -47q-51 0 -87.5 42t-36.5 134v333h132v-267q0 -74 7 -99t28 -25q20 0 28 19t9 68v304z" />
    <glyph glyph-name="Udieresisacute" unicode="&#x1d7;" horiz-adv-x="459" 
d="M192 1079h142l-97 -172h-101zM81 878h129v-127h-129v127zM250 878h129v-127h-129v127zM276 700h157v-475q0 -66 -17.5 -114t-48 -72.5t-64 -35.5t-73.5 -11t-74 11t-63.5 36t-46.5 72.5t-17 113.5v475h156v-468q0 -47 10.5 -67.5t34.5 -20.5t35 20.5t11 67.5v468z" />
    <glyph glyph-name="udieresisacute" unicode="&#x1d8;" horiz-adv-x="381" 
d="M147 875h143l-97 -171h-101zM42 554v126h129v-126h-129zM211 554v126h129v-126h-129zM227 500h131v-500h-90l-20 38q-37 -47 -101 -47q-51 0 -87.5 42t-36.5 134v333h132v-267q0 -74 7 -99t28 -25q20 0 28 19t9 68v304z" />
    <glyph glyph-name="Udieresiscaron" unicode="&#x1d9;" horiz-adv-x="459" 
d="M280 1063h93l-73 -159h-139l-73 160h93l49 -54zM81 751v127h129v-127h-129zM250 751v127h129v-127h-129zM185 232v468h-156v-475q0 -66 17 -113.5t46.5 -72.5t63.5 -36t74 -11t73.5 11t64 36t48 72.5t17.5 113.5v475h-157v-468q0 -47 -11 -67.5t-35 -20.5t-34.5 20.5
t-10.5 67.5z" />
    <glyph glyph-name="udieresiscaron" unicode="&#x1da;" horiz-adv-x="381" 
d="M240 861h93l-73 -159h-139l-73 159h93l50 -54zM42 554v126h129v-126h-129zM211 554v126h129v-126h-129zM227 500h131v-500h-90l-20 38q-37 -47 -101 -47q-51 0 -87.5 42t-36.5 134v333h132v-267q0 -74 7 -99t28 -25q20 0 28 19t9 68v304z" />
    <glyph glyph-name="Udieresisgrave" unicode="&#x1db;" horiz-adv-x="459" 
d="M131 1078h143l55 -172h-101zM81 751v127h129v-127h-129zM250 751v127h129v-127h-129zM185 232v468h-156v-475q0 -66 17 -113.5t46.5 -72.5t63.5 -36t74 -11t73.5 11t64 36t48 72.5t17.5 113.5v475h-157v-468q0 -47 -11 -67.5t-35 -20.5t-34.5 20.5t-10.5 67.5z" />
    <glyph glyph-name="udieresisgrave" unicode="&#x1dc;" horiz-adv-x="381" 
d="M92 875h143l55 -171h-101zM42 554v126h129v-126h-129zM211 554v126h129v-126h-129zM227 500h131v-500h-90l-20 38q-37 -47 -101 -47q-51 0 -87.5 42t-36.5 134v333h132v-267q0 -74 7 -99t28 -25q20 0 28 19t9 68v304z" />
    <glyph glyph-name="Scommaaccent" unicode="&#x218;" horiz-adv-x="451" 
d="M423 475h-151q0 82 -44 82q-43 0 -43 -69q0 -16 5 -27t17.5 -17t23 -9t31.5 -6q48 -7 82.5 -27.5t53.5 -49.5t27.5 -60t8.5 -66q0 -65 -17 -111.5t-47.5 -72.5t-66.5 -38t-79 -12q-42 0 -76.5 11.5t-64.5 37t-47.5 72.5t-18.5 110h152q0 -79 54 -79t54 66q0 36 -19 49.5
t-76 23.5q-26 4 -50 14.5t-49 31.5t-40 59.5t-15 89.5q0 63 17 110t46.5 72t63.5 37t73 12q38 0 71 -11.5t62 -37t45.5 -72.5t16.5 -113zM155 -170v139h141v-139l-50 -142h-55l24 142h-60z" />
    <glyph glyph-name="scommaaccent" unicode="&#x219;" horiz-adv-x="361" 
d="M147 160l-1 -14q1 -17 10.5 -26t24.5 -9q34 0 34 34q0 33 -16.5 46t-55.5 19q-53 6 -88.5 43t-35.5 98q0 79 44.5 118.5t115.5 39.5q69 0 115 -40.5t46 -110.5v-9h-131v7q0 17 -8.5 26t-20.5 9q-30 0 -30 -31q1 -34 38 -41q47 -8 79.5 -24.5t49 -40t23.5 -48t7 -54.5
q0 -80 -45.5 -120t-120.5 -40q-67 0 -116 40.5t-50 110.5v17h132zM110 -31h142v-139l-51 -142h-55l24 142h-60v139z" />
    <glyph glyph-name="uni021A" unicode="&#x21a;" horiz-adv-x="412" 
d="M22 700h369v-152h-107v-548h-156v548h-106v152zM135 -31h142v-139l-50 -142h-56l25 142h-61v139z" />
    <glyph glyph-name="uni021B" unicode="&#x21b;" horiz-adv-x="287" 
d="M201 382v-179q0 -54 9.5 -74t39.5 -20h15v-118h-51q-145 0 -144 178v213h-48v118h48v153h131v-153h64v-118h-64zM109 -31h141v-139l-50 -142h-56l25 142h-60v139z" />
    <glyph glyph-name="circumflex" unicode="&#x2c6;" horiz-adv-x="436" 
d="M149 706h139l73 -159h-93l-49 53l-50 -53h-93z" />
    <glyph glyph-name="caron" unicode="&#x2c7;" horiz-adv-x="436" 
d="M268 706h93l-73 -159h-139l-73 159h93l49 -53z" />
    <glyph glyph-name="breve" unicode="&#x2d8;" horiz-adv-x="407" 
d="M172 700h-110q2 -57 43 -97t98.5 -40t98.5 40t43 97h-110q-1 -12 -10 -20t-21.5 -8t-21.5 8t-10 20z" />
    <glyph glyph-name="dotaccent" unicode="&#x2d9;" horiz-adv-x="241" 
d="M56 574v126h129v-126h-129z" />
    <glyph glyph-name="ring" unicode="&#x2da;" horiz-adv-x="374" 
d="M186.5 762q47.5 0 81.5 -34t34 -81q0 -48 -33.5 -82t-81.5 -34t-81.5 34t-33.5 82q0 47 33.5 81t81 34zM186.5 671q-10.5 0 -17.5 -7t-7 -17q0 -11 7 -18.5t17.5 -7.5t18 7.5t7.5 18.5q0 10 -7.5 17t-18 7z" />
    <glyph glyph-name="ogonek" unicode="&#x2db;" horiz-adv-x="245" 
d="M88 0h96q-29 -45 -26 -63q2 -19 29 -21h9v-94h-12q-121 2 -133 71q-6 40 34 102q2 4 3 5z" />
    <glyph glyph-name="tilde" unicode="&#x2dc;" 
d="M255 705h94q0 -68 -23.5 -112.5t-75.5 -44.5q-28 0 -66 24q-19 14 -36 11q-21 -3 -21 -35h-94q0 67 23.5 112t74.5 45q18 0 31.5 -5.5t35.5 -20.5q20 -13 38 -9q19 4 19 35z" />
    <glyph glyph-name="hungarumlaut" unicode="&#x2dd;" horiz-adv-x="499" 
d="M121 719h131l-97 -172h-89zM281 719h131l-97 -172h-89z" />
    <glyph glyph-name="commaaccentcomb" unicode="&#x326;" horiz-adv-x="0" 
d="M57 -39h129v-126l-46 -130h-50l22 130h-55v126z" />
    <glyph glyph-name="Delta" unicode="&#x394;" horiz-adv-x="444" 
d="M424 160v-160h-404v159l101 541h201zM166 153h112l-56 371z" />
    <glyph glyph-name="Omega" unicode="&#x3a9;" horiz-adv-x="496" 
d="M41 299v168q0 66 17.5 115t48.5 75.5t65.5 39t74.5 12.5t74.5 -12t65.5 -38.5t49 -75.5t18 -116v-168q0 -95 -45 -147h63v-152h-209v152q31 39 31 148v161q1 96 -47 96q-24 0 -34 -23.5t-10 -72.5v-161q0 -109 29 -147v-153h-208v152h64q-47 54 -47 147z" />
    <glyph glyph-name="mu" unicode="&#x3bc;" horiz-adv-x="426" 
d="M229 500h131v-299q0 -49 11.5 -70t40.5 -22v-117h-11q-53 1 -87 34q-28 -35 -78 -35q-48 0 -79 29v-183h-131v663h131v-304q0 -49 8.5 -67.5t27.5 -18.5q22 0 29 24.5t7 98.5v267z" />
    <glyph glyph-name="pi" unicode="&#x3c0;" horiz-adv-x="464" 
d="M15 500h434v-119h-52v-180q0 -49 11.5 -70t40.5 -21v-118h-39q-28 0 -52.5 9t-46 28.5t-33.5 54.5t-12 84v213h-68v-381h-132v381h-51v119z" />
    <glyph glyph-name="afii10017" unicode="&#x410;" horiz-adv-x="500" 
d="M322 0l-23 136h-97l-24 -136h-156l127 700h201l128 -700h-156zM218 292h63l-31 232z" />
    <glyph glyph-name="afii10018" unicode="&#x411;" horiz-adv-x="447" 
d="M29 701h358v-152h-202v-118h29q218 -8 218 -215v-9q-1 -99 -54 -152.5t-172 -55.5h-177v702zM222 270h-37v-110h37q26 0 41 12.5t16 35.5l1 7q0 26 -15 40.5t-43 14.5z" />
    <glyph glyph-name="afii10019" unicode="&#x412;" horiz-adv-x="447" 
d="M29 701h191q38 0 72 -9t63.5 -28t47 -52t17.5 -76v-46q0 -86 -69 -129q81 -45 81 -147v-38q0 -85 -56 -131t-154 -46h-193v702zM267 486v5q0 30 -14.5 44t-35.5 14h-32v-121h32q21 0 35.5 14t14.5 44zM272 215v5q0 33 -15 48.5t-39 15.5h-33v-133h33q24 0 39 15.5
t15 48.5z" />
    <glyph glyph-name="afii10020" unicode="&#x413;" horiz-adv-x="409" 
d="M387 700v-153h-202v-547h-156v700h358z" />
    <glyph glyph-name="afii10021" unicode="&#x414;" horiz-adv-x="556" 
d="M494 153h48v-273h-157v120h-214v-120h-157v273h21q63 7 63 94v453h396v-547zM236 153h101v394h-83v-306q0 -51 -18 -88z" />
    <glyph glyph-name="afii10022" unicode="&#x415;" horiz-adv-x="346" 
d="M332 548h-147v-120h137v-152h-137v-124h147v-152h-303v700h303v-152z" />
    <glyph glyph-name="afii10024" unicode="&#x416;" horiz-adv-x="750" 
d="M729 0h-166l-107 224v-224h-162v223l-106 -223h-166l152 353l-145 347h166l99 -214v214h162v-215l100 215h166l-145 -347z" />
    <glyph glyph-name="afii10025" unicode="&#x417;" horiz-adv-x="441" 
d="M218 709h16q36 -2 67 -13t59.5 -34t45.5 -64.5t19 -97.5v-16q0 -47 -17.5 -83t-41.5 -49q25 -12 42.5 -49t17.5 -84v-11q-1 -58 -18 -101t-45 -66.5t-60.5 -35.5t-70.5 -13h-14q-39 0 -72.5 12t-63.5 37.5t-48 72.5t-19 111l-1 5h157q4 -86 48 -86h4q21 2 31.5 20.5
t10.5 43.5v3q0 67 -65 67h-55v149h55q64 0 64 65v3q0 24 -11.5 42t-29.5 20h-4q-42 0 -48 -85h-156v6q1 63 19 109.5t48 72t63.5 37.5t72.5 12z" />
    <glyph glyph-name="afii10026" unicode="&#x418;" horiz-adv-x="497" 
d="M316 700h154v-700h-157v371l-132 -371h-154v700h157v-370z" />
    <glyph glyph-name="afii10027" unicode="&#x419;" horiz-adv-x="497" 
d="M281 891h110q-2 -57 -43 -97t-98.5 -40t-98.5 40t-43 97h110q1 -12 10 -20t21.5 -8t21.5 8t10 20zM316 700h154v-700h-157v371l-132 -371h-154v700h157v-370z" />
    <glyph glyph-name="afii10028" unicode="&#x41a;" horiz-adv-x="485" 
d="M464 0h-166l-107 224v-224h-162v700h162v-215l100 215h166l-146 -347z" />
    <glyph glyph-name="afii10029" unicode="&#x41b;" horiz-adv-x="514" 
d="M89 700h397v-700h-157v547h-83v-313q0 -66 -17.5 -115t-47 -75.5t-63.5 -39t-73 -12.5h-30v152q74 0 74 97v459z" />
    <glyph glyph-name="afii10030" unicode="&#x41c;" horiz-adv-x="616" 
d="M393 700h194v-700h-157v340l-76 -340h-94l-76 340v-340h-157v700h194l86 -435z" />
    <glyph glyph-name="afii10031" unicode="&#x41d;" horiz-adv-x="456" 
d="M271 700h156v-700h-156v276h-86v-276h-156v700h156v-272h86v272z" />
    <glyph glyph-name="afii10032" unicode="&#x41e;" horiz-adv-x="466" 
d="M26 234v233q0 66 18 115t48.5 75.5t65.5 39t75 12.5q39 0 74 -12t66 -38.5t49 -75.5t18 -116v-233q0 -67 -18 -116t-49 -75.5t-66 -38.5t-74 -12q-40 0 -75 12.5t-65.5 39t-48.5 75.5t-18 115zM279 241v220q0 96 -46 96q-25 0 -35.5 -23.5t-10.5 -72.5v-220
q0 -49 10.5 -73t35.5 -24q46 0 46 97z" />
    <glyph glyph-name="afii10033" unicode="&#x41f;" horiz-adv-x="456" 
d="M29 700h398v-700h-156v547h-86v-547h-156v700z" />
    <glyph glyph-name="afii10034" unicode="&#x420;" horiz-adv-x="448" 
d="M29 700h163q35 0 66 -5.5t62 -20t53 -36.5t35.5 -57t13.5 -79v-49q0 -51 -18 -89.5t-49 -61t-67 -34t-78 -13.5h-25v-255h-156v700zM270 473v8q0 35 -15.5 51.5t-37.5 16.5h-32v-143h32q22 0 37.5 16.5t15.5 50.5z" />
    <glyph glyph-name="afii10035" unicode="&#x421;" horiz-adv-x="450" 
d="M27 234v233q0 66 18 115t48.5 75.5t65 39t74.5 12.5q39 0 73 -12t64 -38t47.5 -74.5t18.5 -114.5v-23h-157v19q-3 91 -46 91q-24 0 -34.5 -23.5t-10.5 -72.5v-220q0 -49 10.5 -73t34.5 -24q44 0 46 93v18h157v-24q-1 -66 -18.5 -114.5t-47.5 -74.5t-64 -38t-73 -12
q-40 0 -74.5 12.5t-65 39t-48.5 75.5t-18 115z" />
    <glyph glyph-name="afii10036" unicode="&#x422;" horiz-adv-x="412" 
d="M391 700v-152h-107v-548h-156v548h-106v152h369z" />
    <glyph glyph-name="afii10037" unicode="&#x423;" horiz-adv-x="525" 
d="M340 700h163l-159 -436v-264h-162v264l-160 436h162l78 -256z" />
    <glyph glyph-name="afii10038" unicode="&#x424;" horiz-adv-x="673" 
d="M415 701v-71h19q213 -10 213 -218v-4q0 -207 -213 -217h-19v-191h-156v191h-19q-112 6 -163 61t-51 156v4q0 208 214 218h19v71h156zM495 408v4q0 28 -15 42t-41 14h-23v-115h23q25 0 40 13.5t16 41.5zM259 353v115h-24q-26 0 -41 -14t-15 -42v-4q1 -55 56 -55h24z" />
    <glyph glyph-name="afii10039" unicode="&#x425;" horiz-adv-x="514" 
d="M485 700l-124 -339l131 -361h-162l-73 209l-73 -209h-162l129 360l-120 340h162l64 -199l65 199h163z" />
    <glyph glyph-name="afii10040" unicode="&#x426;" horiz-adv-x="491" 
d="M427 153h49v-270h-157v117h-290v700h156v-547h86v547h156v-547z" />
    <glyph glyph-name="afii10041" unicode="&#x427;" horiz-adv-x="445" 
d="M263 700h157v-700h-157v234q-30 -29 -84 -29q-158 0 -158 176v319h157v-209q0 -72 9 -96.5t33 -24.5t33.5 19.5t9.5 75.5v235z" />
    <glyph glyph-name="afii10042" unicode="&#x428;" horiz-adv-x="698" 
d="M512 700h157v-700h-640v700h156v-547h86v547h156v-547h85v547z" />
    <glyph glyph-name="afii10043" unicode="&#x429;" horiz-adv-x="732" 
d="M669 153h49v-270h-157v117h-532v700h156v-547h86v547h156v-547h85v547h157v-547z" />
    <glyph glyph-name="afii10044" unicode="&#x42a;" horiz-adv-x="493" 
d="M228 431h24q114 -5 164.5 -59.5t51.5 -153.5v-4q0 -215 -238 -215h-159v549h-54v153h211v-270zM315 214v2q0 25 -15 39.5t-42 14.5h-30v-110h30q27 0 42 14.5t15 39.5z" />
    <glyph glyph-name="afii10045" unicode="&#x42b;" horiz-adv-x="664" 
d="M185 701v-270h25q114 -5 164.5 -59.5t50.5 -153.5v-4q0 -215 -237 -215h-159v702h156zM473 700h162v-700h-162v700zM185 161h30q28 0 43 14t15 39v2q0 25 -15 39.5t-43 14.5h-30v-109z" />
    <glyph glyph-name="afii10046" unicode="&#x42c;" horiz-adv-x="452" 
d="M185 701v-270h25q114 -5 164.5 -59.5t50.5 -153.5v-4q0 -215 -237 -215h-159v702h156zM185 161h30q28 0 43 14t15 39v2q0 25 -15 39.5t-43 14.5h-30v-109z" />
    <glyph glyph-name="afii10047" unicode="&#x42d;" horiz-adv-x="450" 
d="M14 464v5q1 66 18.5 115t47.5 75t64 38t73 12q40 0 74.5 -12.5t65 -39t48.5 -75.5t18 -115v-233q0 -66 -18 -115t-48.5 -75.5t-65 -39t-74.5 -12.5q-39 0 -73 12t-64 38.5t-47.5 75t-18.5 114.5v6h157q2 -94 46 -94q24 0 34.5 24t10.5 73v34h-119v153h119v33
q0 49 -10.5 72.5t-34.5 23.5q-44 0 -46 -93h-157z" />
    <glyph glyph-name="afii10048" unicode="&#x42e;" horiz-adv-x="683" 
d="M243 427v40q0 66 17.5 115t48.5 75.5t65.5 39t74.5 12.5t74.5 -12t65.5 -38.5t49 -75.5t18 -116v-233q0 -67 -18 -116t-49 -75.5t-65.5 -38.5t-74.5 -12t-74.5 12.5t-65.5 39t-48.5 75.5t-17.5 115v41h-58v-275h-156v700h156v-273h58zM496 241v220q0 96 -47 96
q-24 0 -34.5 -23.5t-10.5 -72.5v-220q0 -49 10.5 -73t34.5 -24q47 0 47 97z" />
    <glyph glyph-name="afii10049" unicode="&#x42f;" horiz-adv-x="461" 
d="M268 701h164v-701h-156v258h-29l-60 -258h-165l87 308q-72 50 -72 148v47q0 45 14 80t36 56.5t52.5 36t62 20t66.5 5.5zM276 409v141h-33q-23 0 -38 -16.5t-15 -50.5v-7q0 -35 15.5 -51t37.5 -16h33z" />
    <glyph glyph-name="afii10065" unicode="&#x430;" 
d="M267 500h90v-500h-90l-17 37q-34 -45 -99 -45q-24 0 -45.5 9t-40.5 28.5t-30.5 55t-11.5 83.5v165q0 48 11.5 83.5t30.5 55t40.5 28.5t45.5 9q64 0 98 -43zM154 267v-33q1 -75 7.5 -99.5t28.5 -24.5t29 25t6 99v33q0 73 -7.5 98.5t-27.5 25.5q-22 0 -29 -25t-7 -99z" />
    <glyph glyph-name="afii10066" unicode="&#x431;" 
d="M26 168v365q0 48 15 83.5t40 55t52.5 28.5t58.5 9q29 0 56 -8.5t51 -26.5t39 -51t16 -78l1 -11h-129q-3 31 -11 43.5t-23 12.5q-18 0 -26.5 -15t-8.5 -54v-37q23 21 60 21q26 0 49.5 -8.5t45 -27.5t34.5 -54t13 -82v-165q0 -48 -15 -84t-40 -55t-53 -28t-59 -9t-58.5 9
t-52.5 28.5t-40 55t-15 83.5zM228 234v33q0 73 -7.5 98.5t-28.5 25.5t-28 -25.5t-7 -98.5v-33q0 -75 7 -99.5t29 -24.5t29 25.5t6 98.5z" />
    <glyph glyph-name="afii10067" unicode="&#x432;" horiz-adv-x="372" 
d="M26 501h144q47 0 82.5 -13.5t55 -37t28.5 -49.5t9 -55q0 -51 -29 -84q41 -40 41 -106q0 -31 -9 -57.5t-28.5 -50t-55.5 -36.5t-84 -13h-154v502zM158 314h13q42 1 42 31q0 17 -9 24.5t-33 8.5h-13v-64zM158 118h13q30 1 42.5 9t12.5 29q0 20 -12 28.5t-43 9.5h-13v-76z
" />
    <glyph glyph-name="afii10068" unicode="&#x433;" horiz-adv-x="322" 
d="M304 500v-118h-147v-382h-131v500h278z" />
    <glyph glyph-name="afii10069" unicode="&#x434;" horiz-adv-x="465" 
d="M83 500h331v-382h36v-222h-131v104h-172v-104h-132v222h24q27 3 35.5 23.5t8.5 67.5v291zM283 118v264h-68v-207q0 -32 -11 -57h79z" />
    <glyph glyph-name="afii10070" unicode="&#x435;" horiz-adv-x="378" 
d="M23 168v165q0 48 15 83.5t40 55t52.5 28.5t58.5 9t59 -9t53 -28t40 -55t15 -84v-128h-202v-15q0 -45 8 -62t28 -18q17 0 25.5 13t9.5 44h131q0 -48 -15 -83.5t-40.5 -54.5t-53 -28t-58.5 -9t-58.5 9t-52.5 28.5t-40 55t-15 83.5zM224 301v21q0 37 -9 52.5t-26 16.5
q-18 -1 -26.5 -16t-8.5 -53v-21h70z" />
    <glyph glyph-name="afii10072" unicode="&#x436;" horiz-adv-x="599" 
d="M568 0h-135l-70 188v-188h-131v188l-71 -188h-135l88 257l-82 243h135l64 -172v172h132v-172l64 172h135l-81 -243z" />
    <glyph glyph-name="afii10073" unicode="&#x437;" horiz-adv-x="363" 
d="M179 509h10q151 -2 151 -151q0 -36 -19 -65t-59 -37q43 -7 65 -40.5t22 -86.5q0 -46 -24.5 -78t-59.5 -45t-77 -14h-9q-29 0 -56.5 9t-52 27t-39 52t-14.5 80h127q1 -49 37 -49h2q37 0 37 45q0 36 -45 36h-44v119h39q16 1 25 2.5t16 9.5t7 23q-1 45 -35 45h-2
q-34 0 -35 -51h-129q0 46 14.5 80.5t39 52.5t52 27t56.5 9z" />
    <glyph glyph-name="afii10074" unicode="&#x438;" horiz-adv-x="393" 
d="M237 500h131v-500h-131v224l-80 -224h-131v500h131v-222z" />
    <glyph glyph-name="afii10075" unicode="&#x439;" horiz-adv-x="393" 
d="M228 700h110q-1 -57 -42.5 -97t-99 -40t-98.5 40t-42 97h109q2 -12 11 -20t21 -8t21 8t10 20zM237 500h131v-500h-131v224l-80 -224h-131v500h131v-223z" />
    <glyph glyph-name="afii10076" unicode="&#x43a;" 
d="M363 0h-134l-71 188v-188h-131v500h131v-172l65 172h135l-82 -243z" />
    <glyph glyph-name="afii10077" unicode="&#x43b;" horiz-adv-x="423" 
d="M66 500h331v-500h-131v382h-68v-214q0 -49 -12 -84t-33.5 -54.5t-46 -28.5t-52.5 -9h-38v118q28 0 39.5 21t10.5 70v299z" />
    <glyph glyph-name="afii10078" unicode="&#x43c;" horiz-adv-x="465" 
d="M299 500h140v-500h-118v219l-61 -219h-56l-60 220v-220h-118v500h140l67 -282z" />
    <glyph glyph-name="afii10079" unicode="&#x43d;" horiz-adv-x="385" 
d="M228 500h132v-500h-132v198h-71v-198h-131v500h131v-183h71v183z" />
    <glyph glyph-name="afii10080" unicode="&#x43e;" horiz-adv-x="379" 
d="M23 168v165q0 48 15 83.5t40 55t52.5 28.5t58.5 9t59 -9t53 -28t40 -55t15 -84v-165q0 -48 -15 -84t-40 -55t-53 -28t-59 -9t-58.5 9t-52.5 28.5t-40 55t-15 83.5zM225 234v33q0 73 -7.5 98.5t-28.5 25.5t-28 -25t-7 -99v-33q1 -75 7.5 -99.5t28.5 -24.5t29 25.5t6 98.5z
" />
    <glyph glyph-name="afii10081" unicode="&#x43f;" horiz-adv-x="385" 
d="M26 500h334v-500h-132v382h-71v-382h-131v500z" />
    <glyph glyph-name="afii10082" unicode="&#x440;" horiz-adv-x="383" 
d="M116 501l19 -38q35 46 102 46q51 0 87.5 -42t36.5 -134v-165q0 -93 -36.5 -134.5t-87.5 -41.5q-49 0 -80 27v-182h-131v664h90zM229 234v33q0 75 -7 99t-29 24t-28.5 -25t-6.5 -98v-33q0 -73 7.5 -98.5t28.5 -25.5t28 25t7 99z" />
    <glyph glyph-name="afii10083" unicode="&#x441;" horiz-adv-x="374" 
d="M23 168v165q0 48 14.5 83.5t40 55t53 28.5t58.5 9t58 -9t51.5 -28t39.5 -54.5t15 -83.5v-27h-128q-1 47 -9 65.5t-27 18.5q-21 0 -28 -25t-7 -99v-33q1 -75 7.5 -99.5t28.5 -24.5q19 0 27.5 18.5t8.5 65.5h127v-27q0 -48 -14.5 -83.5t-39.5 -54.5t-52 -28t-58 -9t-58.5 9
t-52.5 28.5t-40 55t-15 83.5z" />
    <glyph glyph-name="afii10084" unicode="&#x442;" horiz-adv-x="367" 
d="M19 500h329v-118h-98v-382h-132v381h-99v119z" />
    <glyph glyph-name="afii10085" unicode="&#x443;" horiz-adv-x="373" 
d="M223 501h131v-499q-1 -48 -15.5 -83t-39.5 -54t-53 -28t-58 -9q-28 0 -53.5 7t-49 22.5t-40.5 43.5t-22 66h133q7 -20 31 -20q18 0 26.5 13.5t8.5 48.5l1 19q-31 -28 -80 -28q-51 0 -87.5 42t-36.5 134v324h132v-258q0 -74 7 -99t28 -25t28.5 25.5t8.5 98.5v259z" />
    <glyph glyph-name="afii10086" unicode="&#x444;" horiz-adv-x="582" 
d="M225 700h131v-219q30 28 80 28q51 0 87.5 -42t36.5 -134v-165q0 -93 -36.5 -134.5t-87.5 -41.5q-49 0 -80 27v-182h-131v182q-30 -27 -79 -27q-51 0 -87 41.5t-36 134.5v165q0 92 36 134t87 42q49 0 79 -28v219zM225 234v33q0 73 -6.5 98t-28.5 25q-22 1 -28.5 -23.5
t-7.5 -99.5v-33q0 -74 7 -99t29 -25q20 0 27.5 25.5t7.5 98.5zM428 234v33q0 75 -7 99t-29 24t-28.5 -25t-6.5 -98v-33q0 -73 7.5 -98.5t28.5 -25.5t28 25t7 99z" />
    <glyph glyph-name="afii10087" unicode="&#x445;" horiz-adv-x="418" 
d="M394 500l-80 -243l86 -257h-135l-55 151l-56 -151h-135l86 256l-80 244h136l49 -176l49 176h135z" />
    <glyph glyph-name="afii10088" unicode="&#x446;" horiz-adv-x="412" 
d="M360 118h37v-219h-132v101h-239v500h131v-382h71v382h132v-382z" />
    <glyph glyph-name="afii10089" unicode="&#x447;" horiz-adv-x="383" 
d="M227 500h131v-500h-131v164q-31 -29 -80 -29q-51 0 -87.5 41.5t-36.5 134.5v189h132v-123q0 -74 7 -99t28 -25q20 0 28 19t9 68v160z" />
    <glyph glyph-name="afii10090" unicode="&#x448;" horiz-adv-x="587" 
d="M431 500h131v-500h-536v500h131v-381h71v381h132v-381h71v381z" />
    <glyph glyph-name="afii10091" unicode="&#x449;" horiz-adv-x="614" 
d="M563 118h37v-219h-132v101h-442v500h131v-382h72v382h131v-382h71v382h132v-382z" />
    <glyph glyph-name="afii10092" unicode="&#x44a;" horiz-adv-x="404" 
d="M191 320h22q93 0 134.5 -41t41.5 -105v-30q0 -65 -43.5 -105t-133.5 -40h-153v382h-44v119h176v-180zM258 155v2q0 21 -12 30t-42 10h-13v-79h13q29 0 41 8.5t13 28.5z" />
    <glyph glyph-name="afii10093" unicode="&#x44b;" horiz-adv-x="567" 
d="M26 500h131v-180h22q93 0 134.5 -41t41.5 -105v-31q0 -64 -43.5 -104t-133.5 -40h-152v501zM409 0v500h132v-500h-132zM224 155v2q0 21 -11.5 30t-41.5 10h-14v-79h14q29 0 41 8.5t12 28.5z" />
    <glyph glyph-name="afii10094" unicode="&#x44c;" horiz-adv-x="370" 
d="M26 500h131v-180h22q93 0 134.5 -41t41.5 -105v-31q0 -64 -43.5 -104t-133.5 -40h-152v501zM224 155v2q0 21 -11.5 30t-41.5 10h-14v-79h14q29 0 41 8.5t12 28.5z" />
    <glyph glyph-name="afii10095" unicode="&#x44d;" horiz-adv-x="374" 
d="M150 333h-128q0 48 14.5 84t39 55t52 28t58 9t58.5 -9t53 -28.5t40 -55t15 -83.5v-165q0 -48 -15 -83.5t-40 -55t-53 -28.5t-58.5 -9t-58 9t-52 28t-39 54.5t-14.5 84.5h127q1 -32 9.5 -45t25.5 -13q19 1 27.5 15t8.5 49v18h-82v118h83l-1 20q-1 34 -9 47t-26 14
q-33 0 -35 -58z" />
    <glyph glyph-name="afii10096" unicode="&#x44e;" horiz-adv-x="564" 
d="M208 315v18q0 48 15 83.5t40 55t53 28.5t59 9t58.5 -9t53 -28t40.5 -55t15 -84v-165q0 -48 -15 -84t-40.5 -55t-53 -28t-58.5 -9t-59 9t-53 28.5t-40 55t-15 83.5v29h-51v-197h-131v500h131v-185h51zM411 234v33q0 73 -7.5 98.5t-28.5 25.5t-28 -25t-7 -99v-33
q0 -75 7 -99.5t29 -24.5t29 25.5t6 98.5z" />
    <glyph glyph-name="afii10097" unicode="&#x44f;" horiz-adv-x="371" 
d="M191 501h154v-501h-132v182l-21 -12l-45 -170h-132l56 216q-55 36 -55 110v31q0 64 42.5 104t132.5 40zM195 305h19v77l-18 1q-28 -2 -38.5 -10.5t-10.5 -29.5q0 -20 10.5 -28.5t37.5 -9.5z" />
    <glyph glyph-name="Wgrave" unicode="&#x1e80;" horiz-adv-x="757" 
d="M280 920h143l55 -171h-101zM577 700h158l-120 -700h-186l-51 314l-51 -314h-186l-119 700h158l65 -442l61 442h145l61 -442z" />
    <glyph glyph-name="wgrave" unicode="&#x1e81;" horiz-adv-x="607" 
d="M205 720h142l56 -171h-101zM457 500h132l-88 -500h-161l-36 242l-36 -242h-161l-88 500h132l47 -327l51 327h110l51 -327z" />
    <glyph glyph-name="Wacute" unicode="&#x1e82;" horiz-adv-x="757" 
d="M335 919h143l-97 -172h-101zM577 700h158l-120 -700h-186l-51 314l-51 -314h-186l-119 700h158l65 -442l61 442h145l61 -442z" />
    <glyph glyph-name="wacute" unicode="&#x1e83;" horiz-adv-x="607" 
d="M260 719h143l-97 -172h-101zM457 500h132l-88 -500h-161l-36 242l-36 -242h-161l-88 500h132l47 -327l51 327h110l51 -327z" />
    <glyph glyph-name="Wdieresis" unicode="&#x1e84;" horiz-adv-x="757" 
d="M230 900h129v-127h-129v127zM399 900h129v-127h-129v127zM577 700h158l-120 -700h-186l-51 314l-51 -314h-186l-119 700h158l65 -442l61 442h145l61 -442z" />
    <glyph glyph-name="wdieresis" unicode="&#x1e85;" horiz-adv-x="607" 
d="M155 700h129v-127h-129v127zM324 700h128v-127h-128v127zM457 500h132l-88 -500h-161l-36 242l-36 -242h-161l-88 500h132l47 -327l51 327h110l51 -327z" />
    <glyph glyph-name="Ygrave" unicode="&#x1ef2;" horiz-adv-x="523" 
d="M163 920h142l56 -171h-101zM339 700h163l-159 -435v-265h-163v265l-158 435h162l77 -255z" />
    <glyph glyph-name="ygrave" unicode="&#x1ef3;" horiz-adv-x="373" 
d="M88 720h143l55 -171h-101zM223 501h131v-499q-1 -48 -15.5 -83t-39.5 -54t-53 -28t-58 -9q-28 0 -53.5 7t-49 22.5t-40.5 43.5t-22 66h133q7 -20 31 -20q18 0 26.5 14t8.5 48l1 19q-31 -28 -80 -28q-51 0 -87.5 41.5t-36.5 134.5v324h132v-258q0 -74 7 -99t28 -25
t28.5 25.5t8.5 98.5v259z" />
    <glyph glyph-name="endash" unicode="&#x2013;" horiz-adv-x="472" 
d="M50 344h372v-153h-372v153z" />
    <glyph glyph-name="emdash" unicode="&#x2014;" horiz-adv-x="640" 
d="M50 344h540v-153h-540v153z" />
    <glyph glyph-name="quoteleft" unicode="&#x2018;" horiz-adv-x="241" 
d="M131 557h60v-139h-141v139l50 143h56z" />
    <glyph glyph-name="quoteright" unicode="&#x2019;" horiz-adv-x="241" 
d="M50 700h141v-139l-50 -143h-55l24 143h-60v139z" />
    <glyph glyph-name="quotesinglbase" unicode="&#x201a;" horiz-adv-x="241" 
d="M50 139h141v-139l-50 -143h-55l24 143h-60v139z" />
    <glyph glyph-name="quotedblleft" unicode="&#x201c;" horiz-adv-x="456" 
d="M156 700l-25 -143h60v-139h-141v139l50 143h56zM346 557h60v-139h-141v139l50 143h56z" />
    <glyph glyph-name="quotedblright" unicode="&#x201d;" horiz-adv-x="456" 
d="M50 561v139h141v-139l-50 -143h-55l24 143h-60zM265 700h141v-139l-50 -143h-55l24 143h-60v139z" />
    <glyph glyph-name="quotedblbase" unicode="&#x201e;" horiz-adv-x="241" 
d="M50 139h141v-139l-50 -143h-55l24 143h-60v139z" />
    <glyph glyph-name="dagger" unicode="&#x2020;" horiz-adv-x="438" 
d="M138 700h162v-200h88v-153h-88v-407h-162v407h-88v153h88v200z" />
    <glyph glyph-name="daggerdbl" unicode="&#x2021;" horiz-adv-x="438" 
d="M138 700h162v-200h88v-153h-88v-118h88v-152h-88v-137h-162v137h-88v152h88v118h-88v153h88v200z" />
    <glyph glyph-name="bullet" unicode="&#x2022;" horiz-adv-x="402" 
d="M201 468q74 0 126 -52t52 -126t-52 -126t-126 -52t-126 52t-52 126t52 126t126 52z" />
    <glyph glyph-name="ellipsis" unicode="&#x2026;" horiz-adv-x="586" 
d="M50 0v139h141v-139h-141zM222 0v139h142v-139h-142zM395 0v139h141v-139h-141z" />
    <glyph glyph-name="perthousand" unicode="&#x2030;" horiz-adv-x="1024" 
d="M50 430v154q0 35 13.5 60.5t34 38.5t40.5 19t38 6q20 0 40 -6.5t40 -20t33 -38.5t13 -59v-154q0 -33 -13 -58t-33 -38.5t-40 -20t-40 -6.5q-18 0 -38 6t-40.5 18.5t-34 38.5t-13.5 60zM462 700h106l-292 -700h-105zM207 426v162q0 15 -10 22.5t-21 7.5t-21 -7t-10 -23
v-162q0 -15 10 -22.5t21 -7.5q12 1 21.5 8t9.5 22zM724 116v154q0 35 13 60.5t33.5 38.5t40.5 19t38 6q20 0 40.5 -6.5t40.5 -20t32.5 -39t12.5 -58.5v-154q0 -33 -12.5 -58t-32.5 -38.5t-40.5 -20t-40.5 -6.5q-18 0 -38 6t-40.5 18.5t-33.5 38.5t-13 60zM437 116v154
q0 35 13.5 60.5t34 38.5t40.5 19t38 6q20 0 40.5 -6.5t40.5 -20t32.5 -39t12.5 -58.5v-154q0 -33 -12.5 -58t-32.5 -38.5t-40.5 -20t-40.5 -6.5q-18 0 -38 6t-40.5 18.5t-34 38.5t-13.5 60zM880 112v162q0 15 -9.5 22.5t-21.5 7.5q-11 0 -20.5 -7t-9.5 -23v-162
q0 -15 9.5 -22.5t20.5 -7.5q12 0 21.5 7.5t9.5 22.5zM594 112v162q0 15 -9.5 22.5t-21.5 7.5q-11 0 -21 -7t-10 -23v-162q0 -15 10 -22.5t21 -7.5q12 0 21.5 7.5t9.5 22.5z" />
    <glyph glyph-name="guilsinglleft" unicode="&#x2039;" horiz-adv-x="261" 
d="M50 337l161 146v-154l-77 -69l77 -70v-154l-161 147v154z" />
    <glyph glyph-name="guilsinglright" unicode="&#x203a;" horiz-adv-x="261" 
d="M50 329v154l161 -147v-153l-161 -147v154l78 70z" />
    <glyph glyph-name="fraction" unicode="&#x2044;" horiz-adv-x="427" 
d="M16 0l277 700h118l-277 -700h-118z" />
    <glyph glyph-name="Euro" unicode="&#x20ac;" horiz-adv-x="497" 
d="M73 424v43q0 66 17.5 115t48 75.5t65.5 39t75 12.5q39 0 73 -12t64 -38t47.5 -74.5t17.5 -114.5v-23h-156l-1 19q-2 91 -45 91q-24 0 -34.5 -23.5t-10.5 -72.5v-37h191l-61 -61h-130v-26h104l-61 -61h-43v-35q0 -49 10.5 -73t34.5 -24q43 0 46 92v19h156v-24
q0 -66 -17.5 -114.5t-47.5 -74.5t-64 -38t-73 -12q-40 0 -75 12.5t-65.5 39t-48 75.5t-17.5 115v42h-51v61h51v26h-51v61h51z" />
    <glyph glyph-name="trademark" unicode="&#x2122;" horiz-adv-x="680" 
d="M15 596v104h237v-104h-61v-301h-114v301h-62zM518 700h147v-405h-114v188l-45 -164h-73l-48 164v-188h-114v405h147l50 -185z" />
    <glyph glyph-name="partialdiff" unicode="&#x2202;" horiz-adv-x="600" 
 />
    <glyph glyph-name="emptyset" unicode="&#x2205;" horiz-adv-x="618" 
d="M569 399l-32 -32q29 -54 29 -116q0 -107 -75.5 -183t-182.5 -76q-60 0 -115 31l-32 -32l-108 108l30 30q-34 57 -34 122q0 107 76 182.5t183 75.5q65 0 122 -32l31 31zM307.5 117q57.5 0 94 39t36.5 94.5t-36.5 94.5t-94 39t-94 -39t-36.5 -94.5t36.5 -94.5t94 -39z" />
    <glyph glyph-name="product" unicode="&#x220f;" horiz-adv-x="600" 
 />
    <glyph glyph-name="summation" unicode="&#x2211;" horiz-adv-x="600" 
 />
    <glyph glyph-name="minus" unicode="&#x2212;" horiz-adv-x="577" 
d="M50 413h477v-153h-477v153z" />
    <glyph glyph-name="radical" unicode="&#x221a;" horiz-adv-x="600" 
 />
    <glyph glyph-name="infinity" unicode="&#x221e;" horiz-adv-x="600" 
 />
    <glyph glyph-name="integral" unicode="&#x222b;" horiz-adv-x="384" 
d="M246 707h88v-152h-21q-25 0 -32.5 -18t-7.5 -59v-455q0 -84 -39 -122.5t-96 -38.5h-88v153h21q25 0 33 17.5t7 59.5v454q0 84 39 122.5t96 38.5z" />
    <glyph glyph-name="approxequal" unicode="&#x2248;" horiz-adv-x="533" 
d="M370 449h113q0 -82 -30.5 -135.5t-93.5 -53.5q-10 0 -18.5 1t-20 5t-16.5 5.5t-23 9.5t-24 11q-37 17 -60 13q-33 -4 -33 -45h-114q0 83 31.5 137.5t94.5 54.5q16 0 31 -3.5t26 -8t38 -15.5q47 -23 70 -18q28 5 29 42zM370 234h113q0 -83 -30.5 -136.5t-93.5 -53.5
q-10 0 -18.5 1t-20 5t-16.5 5.5t-23 9.5t-24 11q-37 18 -62 12q-31 -5 -31 -44h-114q0 84 31.5 138t94.5 54q16 0 31 -3.5t26 -7.5t38 -16q47 -22 71 -18q27 5 28 43z" />
    <glyph glyph-name="notequal" unicode="&#x2260;" horiz-adv-x="526" 
d="M502 277h-149l-13 -38h162v-152h-211l-60 -183h-164l59 183h-102v152h152l12 38h-164v152h213l57 175h165l-57 -175h100v-152z" />
    <glyph glyph-name="lessequal" unicode="&#x2264;" horiz-adv-x="559" 
d="M50 380l460 202v-153l-182 -70l182 -69v-153l-460 201v42zM50 102h460v-152h-460v152z" />
    <glyph glyph-name="greaterequal" unicode="&#x2265;" horiz-adv-x="559" 
d="M50 429v153l459 -202v-42l-459 -201v153l182 69zM50 102h459v-152h-459v152z" />
    <glyph glyph-name="lozenge" unicode="&#x25ca;" horiz-adv-x="600" 
 />
    <glyph glyph-name="fi" unicode="&#xfb01;" horiz-adv-x="481" 
d="M214 709h51v-118h-14q-28 0 -38.5 -16.5t-11.5 -58.5v-16h64v-118h-64v-382h-131v382h-48v118h48v33q0 95 40 135.5t104 40.5zM314 689h141v-128h-141v128zM319 500h131v-500h-131v500z" />
    <glyph glyph-name="fl" unicode="&#xfb02;" horiz-adv-x="468" 
d="M214 709h51v-118h-14q-29 0 -39 -17t-11 -61v-13h64v-118h-64v-382h-131v382h-48v118h48v33q0 95 40 135.5t104 40.5zM314 700h131v-700h-131v700z" />
    <glyph glyph-name="K.ss01" horiz-adv-x="435" 
d="M244 700h163l-73 -315q25 -14 37 -26.5t22 -33.5q20 -51 20 -135v-190h-158v211q0 38 -15 54q-14 16 -43 16h-21v-281h-156v700h157v-276z" />
    <glyph glyph-name="R.ss01" horiz-adv-x="448" 
d="M29 0v701h158q122 0 178.5 -54.5t56.5 -159.5v-6q-1 -98 -52 -149q19 -14 31 -35q25 -44 25 -117v-180h-157v206q0 33 -14 49t-45 16h-25v-271h-156zM214 540h-29v-108h29q24 0 39.5 13t15.5 38v4q0 25 -14.5 38.5t-40.5 14.5z" />
    <glyph glyph-name="f.ss01" horiz-adv-x="243" 
d="M171 709h50v-118h-13q-30 0 -40 -17.5t-10 -63.5v-10h63v-118h-64v-382h-131v533q0 95 40 135.5t105 40.5z" />
    <glyph glyph-name="k.ss01" horiz-adv-x="376" 
d="M210 500h135l-54 -218q28 -15 43 -39q23 -41 23 -111v-132h-131v153q0 37 -16 52q-13 12 -42 12h-10v-217h-132v700h132v-416z" />
    <glyph glyph-name="t.ss01" horiz-adv-x="243" 
d="M157 382v-179q0 -53 9.5 -72.5t41.5 -20.5h13v-118h-50q-65 0 -105 40.5t-40 136.5v484h131v-153h64v-118h-64z" />
    <glyph glyph-name="afii10049.ss01" horiz-adv-x="448" 
d="M262 701h157v-701h-156v271h-25q-32 0 -46 -17q-13 -16 -13 -48v-206h-157v180q0 64 20 106q13 27 36 46q-51 51 -52 149v6q0 105 56.5 159.5t179.5 54.5zM263 432v107h-29q-25 0 -40 -13.5t-15 -38.5v-4q0 -25 15.5 -38t39.5 -13h29z" />
    <glyph glyph-name="afii10024.ss01" horiz-adv-x="672" 
d="M644 700l-72 -315q23 -12 34 -22.5t20 -27.5q25 -53 25 -145v-190h-159v211q1 43 -19 59q-13 11 -38 11h-21v-281h-156v281h-20q-29 0 -43 -14q-16 -17 -16 -56v-211h-157v190q0 90 23 143q9 18 20.5 28.5t35.5 23.5l-73 315h163l67 -277v277h156v-277l67 277h163z" />
    <glyph glyph-name="afii10097.ss01" horiz-adv-x="371" 
d="M346 501v-501h-131v183h-11q-32 0 -44 -15q-13 -14 -13 -48v-120h-131v100q0 57 14 94q9 23 24 40q-36 33 -37 92v31q0 64 43 104t133 40h153zM215 382l-18 1q-27 -2 -37.5 -10.5t-10.5 -29.5q0 -20 9.5 -28.5t34.5 -9.5h22v77z" />
    <glyph glyph-name="afii10076.ss01" horiz-adv-x="376" 
d="M210 500h135l-54 -218q30 -16 45 -41q21 -41 21 -109v-132h-131v153q0 38 -18 53q-12 11 -40 11h-10v-217h-132v500h132v-216z" />
    <glyph glyph-name="afii10072.ss01" horiz-adv-x="568" 
d="M537 500l-54 -218q32 -18 45 -41q21 -41 21 -109v-132h-131v153q0 37 -17 52q-13 12 -41 12h-10v-217h-132v217h-10q-29 0 -42 -13q-16 -15 -16 -51v-153h-131v132q0 68 22 108q14 24 44 42l-53 218h135l51 -216v216h132v-216l52 216h135z" />
    <glyph glyph-name="two.dnom" horiz-adv-x="257" 
d="M128 339h6q48 0 80 -26t33 -80v-4q0 -26 -12 -49t-27 -35.5t-34.5 -29t-27.5 -27.5h98v-88h-229v40q0 29 10 53.5t25 38.5t32.5 27t32.5 22t25 20.5t10 25.5q0 24 -19 25h-2q-11 0 -16 -7.5t-6 -24.5h-97v3q2 61 36.5 88.5t81.5 27.5z" />
    <glyph glyph-name="four.dnom" horiz-adv-x="276" 
d="M58 338h97l-47 -201h44v116h97v-116h17v-88h-17v-49h-97v49h-142v99z" />
    <glyph glyph-name="one.numr" horiz-adv-x="182" 
d="M27 700h128v-338h-97v249h-31v89z" />
    <glyph glyph-name="three.numr" horiz-adv-x="286" 
d="M139 708h7q110 -2 111 -102v-4q0 -23 -8.5 -41.5t-20.5 -24.5q12 -6 20.5 -25t9.5 -43v-4q-1 -100 -113 -102h-6q-47 0 -79 26t-33 80v2h91q1 -17 19 -19h4q8 0 13.5 4.5t6.5 10.5v3q1 22 -31 23h-28v89h28q29 0 30 18l1 3q0 7 -5.5 12t-14.5 5h-3q-18 0 -20 -19h-91v2
q2 52 34 79t78 27z" />
    </font>
</defs>
</svg>
